<svg width="100" height="90" viewBox="0 0 100 90" fill="none" xmlns="http://www.w3.org/2000/svg">
<path fill-rule="evenodd" clip-rule="evenodd" d="M0 16.1111C0 9.97462 4.97461 5 11.1111 5L68.8889 5C75.0254 5 80 9.97461 80 16.1111V73.8889C80 80.0254 75.0254 85 68.8889 85H11.1111C4.97462 85 0 80.0254 0 73.8889L0 16.1111Z" fill="#00CB75"/>
<path fill-rule="evenodd" clip-rule="evenodd" d="M0 16.1111C0 9.97462 4.97461 5 11.1111 5H62.2222C68.3587 5 73.3333 9.97461 73.3333 16.1111V73.8889C73.3333 80.0254 68.3587 85 62.2222 85H11.1111C4.97463 85 0 80.0254 0 73.8889V16.1111Z" fill="#EFF5E0"/>
<path fill-rule="evenodd" clip-rule="evenodd" d="M0 16.1111C0 9.97462 4.97461 5 11.1111 5L48.8889 5C55.0254 5 60 9.97461 60 16.1111V73.8889C60 80.0254 55.0254 85 48.8889 85H11.1111C4.97462 85 0 80.0254 0 73.8889L0 16.1111Z" fill="#BEE75E"/>
<path d="M30.0001 28.3333C30.0001 28.3333 17.7778 37.9486 17.7778 47.564C17.7778 55.5776 22.7451 59.2218 29.0498 59.5508C29.0099 60.2217 28.9815 60.9163 28.9815 61.6666H31.0186C31.0186 59.2669 31.2792 57.3198 31.5308 55.4379C32.024 51.7498 32.5253 47.9237 31.0504 40.9004C33.9713 45.808 33.2752 54.4171 33.8286 59.142C38.7016 57.9577 42.2223 54.3091 42.2223 47.564C42.2223 37.9485 30.0001 28.3333 30.0001 28.3333V28.3333Z" fill="white"/>
<path d="M20 78.3334C20 75.8788 21.9898 73.8889 24.4444 73.8889H81.1111C83.5657 73.8889 85.5556 75.8788 85.5556 78.3334V85H20V78.3334Z" fill="#ACACAC"/>
<path fill-rule="evenodd" clip-rule="evenodd" d="M80 22.7778H50V28.3338H70C73.6819 28.3338 76.6667 31.3186 76.6667 35.0005V57.2227C76.6667 60.9046 73.6819 63.8894 70 63.8894H50V69.4445H80C87.3638 69.4445 93.3333 63.475 93.3333 56.1112V36.1112C93.3333 28.7474 87.3638 22.7778 80 22.7778Z" fill="#656565"/>
<path fill-rule="evenodd" clip-rule="evenodd" d="M78.8889 28.3337H70C73.6819 28.3337 76.6667 31.3185 76.6667 35.0004V57.2226C76.6667 60.9045 73.6819 63.8893 70 63.8893H78.8889C83.7981 63.8893 87.7778 59.9096 87.7778 55.0004V37.2226C87.7778 32.3134 83.7981 28.3337 78.8889 28.3337Z" fill="#353535"/>
<rect x="28.8889" y="63.8889" width="37.7778" height="5.55556" rx="1.11111" fill="#ACACAC"/>
<path d="M76.6666 48.3332C76.6666 43.424 80.6463 39.4443 85.5555 39.4443H91.1111C96.0203 39.4443 100 43.424 100 48.3332C100 53.2424 96.0203 57.2221 91.1111 57.2221H85.5555C80.6463 57.2221 76.6666 53.2424 76.6666 48.3332Z" fill="#656565"/>
<path d="M82.2222 48.3332C82.2222 43.424 86.2019 39.4443 91.1111 39.4443C96.0203 39.4443 99.9999 43.424 99.9999 48.3332C99.9999 53.2424 96.0203 57.2221 91.1111 57.2221C86.2019 57.2221 82.2222 53.2424 82.2222 48.3332Z" fill="#ACACAC"/>
<path d="M87.7778 48.3333C87.7778 46.4924 89.2702 45 91.1112 45C92.9521 45 94.4445 46.4924 94.4445 48.3333C94.4445 50.1743 92.9521 51.6667 91.1112 51.6667C89.2702 51.6667 87.7778 50.1743 87.7778 48.3333Z" fill="#656565"/>
<rect x="44.4445" y="69.4443" width="28.8889" height="4.44444" fill="#656565"/>
<rect x="57.7778" y="69.4443" width="15.5556" height="4.44444" fill="#353535"/>
<rect x="37.7782" y="15" width="26.6667" height="31.1111" rx="4.44444" fill="#ACACAC"/>
<rect x="41.1116" y="5" width="20" height="6.66667" fill="#656565"/>
<rect x="52.2227" y="5" width="8.88889" height="6.66667" fill="#353535"/>
<rect x="43.3337" y="11.6667" width="15.5556" height="3.33333" fill="#353535"/>
<rect x="44.4448" y="46.1111" width="13.3333" height="7.77778" fill="#656565"/>
<rect x="52.2227" y="46.1111" width="5.55556" height="7.77778" fill="#353535"/>
<rect x="46.6671" y="53.8889" width="8.88889" height="5.55556" fill="#656565"/>
<rect x="53.3337" y="53.8889" width="2.22222" height="5.55556" fill="#353535"/>
<path fill-rule="evenodd" clip-rule="evenodd" d="M59.9992 15H48.8881C51.3427 15 53.3325 16.9898 53.3325 19.4444V41.6667C53.3325 44.1213 51.3427 46.1111 48.8881 46.1111H59.9992C62.4538 46.1111 64.4436 44.1213 64.4436 41.6667V19.4444C64.4436 16.9898 62.4538 15 59.9992 15Z" fill="#838383"/>
<path d="M53.3334 78.3334C53.3334 75.8788 55.3232 73.8889 57.7778 73.8889H81.1112C83.5658 73.8889 85.5556 75.8788 85.5556 78.3334V85H53.3334V78.3334Z" fill="#656565"/>
</svg>
