<svg width="100" height="90" viewBox="0 0 100 90" fill="none" xmlns="http://www.w3.org/2000/svg">
<path fill-rule="evenodd" clip-rule="evenodd" d="M57.6895 17.0684H29.999V24.7012C18.2104 30.0386 10 41.9828 10 55.8612C10 74.7151 25.1524 89.9992 43.8439 89.9992C62.5354 89.9992 77.6879 74.7151 77.6879 55.8612C77.6879 41.983 69.4778 30.0391 57.6895 24.7014V17.0684Z" fill="#A9D4FF"/>
<path fill-rule="evenodd" clip-rule="evenodd" d="M19.231 55.5492C19.231 44.6871 39.2296 44.6871 49.9982 50.1182C60.7667 55.5492 25.3844 64.0837 25.3844 64.0837C25.3844 64.0837 20.7693 60.2044 19.231 55.5492Z" fill="#563FBA"/>
<path fill-rule="evenodd" clip-rule="evenodd" d="M43.8447 81.0477C57.4385 81.0477 68.4585 69.932 68.4585 56.2201C68.4585 52.3103 67.5625 48.6116 65.9664 45.3215C57.69 43.0304 47.5833 53.565 37.6913 58.5477C30.1056 62.3687 23.0769 62.427 19.231 56.2201C19.231 69.932 30.2509 81.0477 43.8447 81.0477Z" fill="#7A78D7"/>
<path fill-rule="evenodd" clip-rule="evenodd" d="M49.5409 45.796C52.6865 45.796 55.2365 43.1862 55.2365 39.9669C55.2365 36.7475 52.6865 34.1377 49.5409 34.1377C46.3953 34.1377 43.8453 36.7475 43.8453 39.9669C43.8453 43.1862 46.3953 45.796 49.5409 45.796Z" fill="#563FBA"/>
<path fill-rule="evenodd" clip-rule="evenodd" d="M43.0261 32.5466C44.2715 32.5466 45.2812 31.5133 45.2812 30.2387C45.2812 28.964 44.2715 27.9307 43.0261 27.9307C41.7806 27.9307 40.771 28.964 40.771 30.2387C40.771 31.5133 41.7806 32.5466 43.0261 32.5466Z" fill="#563FBA"/>
<path fill-rule="evenodd" clip-rule="evenodd" d="M37.0671 42.3044C39.2706 42.3044 41.0568 40.4763 41.0568 38.2211C41.0568 35.9659 39.2706 34.1377 37.0671 34.1377C34.8636 34.1377 33.0773 35.9659 33.0773 38.2211C33.0773 40.4763 34.8636 42.3044 37.0671 42.3044Z" fill="#563FBA"/>
<path fill-rule="evenodd" clip-rule="evenodd" d="M26.9208 9.27659C26.9208 7.58132 28.2951 6.20703 29.9903 6.20703H57.6951C59.3904 6.20703 60.7647 7.58132 60.7647 9.27659V13.9996C60.7647 15.6948 59.3904 17.0691 57.6951 17.0691H29.9903C28.2951 17.0691 26.9208 15.6948 26.9208 13.9996V9.27659Z" fill="#E9FEF5"/>
<path fill-rule="evenodd" clip-rule="evenodd" d="M34.5133 6.74477C34.1552 3.13253 36.9926 0 40.6225 0H47.0655C50.6954 0 53.5328 3.13253 53.1747 6.74478L52.0844 17.7424C51.773 20.883 49.1312 23.2759 45.9752 23.2759H41.7128C38.5568 23.2759 35.915 20.883 35.6036 17.7424L34.5133 6.74477Z" fill="#FBD249"/>
<path fill-rule="evenodd" clip-rule="evenodd" d="M26.9208 9.27659C26.9208 7.58132 28.2951 6.20703 29.9903 6.20703H57.6951C59.3904 6.20703 60.7647 7.58132 60.7647 9.27659V13.9996C60.7647 15.6948 59.3904 17.0691 57.6951 17.0691H29.9903C28.2951 17.0691 26.9208 15.6948 26.9208 13.9996V9.27659Z" fill="#A9D4FF"/>
<path fill-rule="evenodd" clip-rule="evenodd" d="M62.3096 39.2684C62.3096 38.1478 63.2181 37.2393 64.3388 37.2393H87.9709C89.0916 37.2393 90.0001 38.1478 90.0001 39.2684V76.1527C90.0001 83.7992 83.8013 89.998 76.1548 89.998C68.5083 89.998 62.3096 83.7992 62.3096 76.1527V39.2684Z" fill="#C5E2FF"/>
<path fill-rule="evenodd" clip-rule="evenodd" d="M73.8481 43.4472C75.1225 43.4472 76.1556 42.4051 76.1556 41.1196C76.1556 39.8341 75.1225 38.792 73.8481 38.792C72.5736 38.792 71.5405 39.8341 71.5405 41.1196C71.5405 42.4051 72.5736 43.4472 73.8481 43.4472Z" fill="#FF732B"/>
<path fill-rule="evenodd" clip-rule="evenodd" d="M80.7698 38.7919C82.4691 38.7919 83.8466 37.4024 83.8466 35.6884C83.8466 33.9744 82.4691 32.585 80.7698 32.585C79.0706 32.585 77.6931 33.9744 77.6931 35.6884C77.6931 37.4024 79.0706 38.7919 80.7698 38.7919Z" fill="#FF732B"/>
<path fill-rule="evenodd" clip-rule="evenodd" d="M74.616 27.9296C75.4656 27.9296 76.1544 27.2349 76.1544 26.3779C76.1544 25.5209 75.4656 24.8262 74.616 24.8262C73.7664 24.8262 73.0776 25.5209 73.0776 26.3779C73.0776 27.2349 73.7664 27.9296 74.616 27.9296Z" fill="#FF732B"/>
<path fill-rule="evenodd" clip-rule="evenodd" d="M68.4622 49.6532C68.4622 44.998 76.1286 46.7999 79.9999 48.1015C82.3074 48.8774 81.8218 53.4934 79.2307 55.0843C77.3444 56.2424 68.4622 55.0843 68.4622 55.0843C68.4622 55.0843 68.4622 54.3084 68.4622 49.6532Z" fill="#FF732B"/>
<path fill-rule="evenodd" clip-rule="evenodd" d="M68.4622 49.6548C69.2313 51.9824 73.4858 51.0457 76.154 48.879C78.5908 46.9001 80.1741 44.259 83.8458 44.9997C83.8458 50.7846 83.8458 66.551 83.8458 76.1094C83.8458 80.3574 80.402 83.7928 76.154 83.7928C71.9059 83.7928 68.4622 80.3566 68.4622 76.1085C68.4622 68.0158 68.4622 55.6347 68.4622 49.6548Z" fill="#FFB334"/>
</svg>
