<svg width="100" height="90" viewBox="0 0 100 90" fill="none" xmlns="http://www.w3.org/2000/svg">
<path fill-rule="evenodd" clip-rule="evenodd" d="M10.0007 8.88889C10.0007 3.9797 13.9804 5.25946e-09 18.8896 5.25947e-09L81.1118 5.25959e-09C86.021 5.2596e-09 90.0007 3.97969 90.0007 8.88889V59.7357C90.0007 64.6449 86.021 68.6246 81.1118 68.6246H18.8896C13.9804 68.6246 10.0007 64.6449 10.0007 59.7357V8.88889Z" fill="#1A96F6"/>
<path fill-rule="evenodd" clip-rule="evenodd" d="M10 74.0053C10 72.8976 10.8979 71.9996 12.0056 71.9996H87.9944C89.1021 71.9996 90 72.8976 90 74.0053V87.9939C90 89.1016 89.1021 89.9995 87.9944 89.9995H12.0056C10.8979 89.9995 10 89.1016 10 87.9939V74.0053Z" fill="#0053CF"/>
<path fill-rule="evenodd" clip-rule="evenodd" d="M10 74.0053C10 72.8976 10.8979 71.9996 12.0056 71.9996H67.9944C69.1021 71.9996 70 72.8976 70 74.0053V87.9939C70 89.1016 69.1021 89.9995 67.9944 89.9995H12.0056C10.8979 89.9995 10 89.1016 10 87.9939V74.0053Z" fill="#1A96F6"/>
<path fill-rule="evenodd" clip-rule="evenodd" d="M18.8887 68.6243H81.1109V71.9992H18.8887V68.6243Z" fill="#0053CF"/>
<path fill-rule="evenodd" clip-rule="evenodd" d="M10.0007 8.88889C10.0007 3.97969 13.9804 0 18.8896 0H61.1118C66.021 0 70.0007 3.97969 70.0007 8.88889V59.7357C70.0007 64.6449 66.021 68.6246 61.1118 68.6246H18.8896C13.9804 68.6246 10.0007 64.6449 10.0007 59.7357V8.88889Z" fill="#33CCFF"/>
<path fill-rule="evenodd" clip-rule="evenodd" d="M16.666 59.0626C16.666 57.5093 17.9252 56.2501 19.4785 56.2501H30.5202C32.0735 56.2501 33.3327 57.5093 33.3327 59.0626C33.3327 60.6159 32.0735 61.8751 30.5202 61.8751H19.4785C17.9252 61.8751 16.666 60.6159 16.666 59.0626Z" fill="#D53211"/>
<path fill-rule="evenodd" clip-rule="evenodd" d="M16.666 59.0626C16.666 57.5093 17.9252 56.2501 19.4785 56.2501H28.298C29.8513 56.2501 31.1105 57.5093 31.1105 59.0626C31.1105 60.6159 29.8513 61.8751 28.298 61.8751H19.4785C17.9252 61.8751 16.666 60.6159 16.666 59.0626Z" fill="#FF6666"/>
<path fill-rule="evenodd" clip-rule="evenodd" d="M45.5547 59.0626C45.5547 57.5093 46.8139 56.2501 48.3672 56.2501H50.52C52.0733 56.2501 53.3325 57.5093 53.3325 59.0626C53.3325 60.6159 52.0733 61.8751 50.52 61.8751H48.3672C46.8139 61.8751 45.5547 60.6159 45.5547 59.0626Z" fill="#3BB16F"/>
<path fill-rule="evenodd" clip-rule="evenodd" d="M45.5547 59.0279C45.5547 57.4938 46.7983 56.2501 48.3325 56.2501C49.8666 56.2501 51.1102 57.4938 51.1102 59.0279V59.0973C51.1102 60.6314 49.8666 61.8751 48.3325 61.8751C46.7983 61.8751 45.5547 60.6314 45.5547 59.0973V59.0279Z" fill="#98DF5B"/>
<path fill-rule="evenodd" clip-rule="evenodd" d="M55.5547 59.0626C55.5547 57.5093 56.8139 56.2501 58.3672 56.2501H60.52C62.0733 56.2501 63.3325 57.5093 63.3325 59.0626C63.3325 60.6159 62.0733 61.8751 60.52 61.8751H58.3672C56.8139 61.8751 55.5547 60.6159 55.5547 59.0626Z" fill="#DB7A00"/>
<path fill-rule="evenodd" clip-rule="evenodd" d="M55.5547 59.0279C55.5547 57.4938 56.7983 56.2501 58.3325 56.2501C59.8666 56.2501 61.1102 57.4938 61.1102 59.0279V59.0973C61.1102 60.6314 59.8666 61.8751 58.3325 61.8751C56.7983 61.8751 55.5547 60.6314 55.5547 59.0973V59.0279Z" fill="#FFB334"/>
<path fill-rule="evenodd" clip-rule="evenodd" d="M16.666 11.1951C16.666 8.74045 18.6559 6.75061 21.1105 6.75061H58.8882C61.3428 6.75061 63.3327 8.74046 63.3327 11.1951V46.1809C63.3327 48.6355 61.3428 50.6253 58.8882 50.6253H21.1105C18.6559 50.6253 16.666 48.6355 16.666 46.1809V11.1951Z" fill="#0053CF"/>
<path fill-rule="evenodd" clip-rule="evenodd" d="M21.1113 11.1951C21.1113 8.74045 23.1012 6.75061 25.5558 6.75061H58.8891C61.3437 6.75061 63.3335 8.74046 63.3335 11.1951V46.1809C63.3335 48.6355 61.3437 50.6253 58.8891 50.6253H25.5558C23.1012 50.6253 21.1113 48.6355 21.1113 46.1809V11.1951Z" fill="#FAF8F3"/>
<path fill-rule="evenodd" clip-rule="evenodd" d="M27.0293 15.9932H32.7056V33.2348H27.0293V15.9932Z" fill="#ECE6D8"/>
<path fill-rule="evenodd" clip-rule="evenodd" d="M35.5449 15.9932H41.2212V33.2348H35.5449V15.9932Z" fill="#ECE6D8"/>
<path fill-rule="evenodd" clip-rule="evenodd" d="M27.0293 36.1094H32.7056V41.8566H27.0293V36.1094Z" fill="#ECE6D8"/>
<path fill-rule="evenodd" clip-rule="evenodd" d="M35.5449 36.1094H41.2212V41.8566H35.5449V36.1094Z" fill="#ECE6D8"/>
<path fill-rule="evenodd" clip-rule="evenodd" d="M14.4453 76.5H33.3342V79.875H14.4453V76.5Z" fill="#003054"/>
<path fill-rule="evenodd" clip-rule="evenodd" d="M56.666 76.5H63.3327V79.875H56.666V76.5Z" fill="#003054"/>
<path fill-rule="evenodd" clip-rule="evenodd" d="M47.7773 76.5H54.444V79.875H47.7773V76.5Z" fill="#003054"/>
<path fill-rule="evenodd" clip-rule="evenodd" d="M38.8887 76.5H45.5553V79.875H38.8887V76.5Z" fill="#003054"/>
<path fill-rule="evenodd" clip-rule="evenodd" d="M17.7773 76.5H33.3329V79.875H17.7773V76.5Z" fill="#0053CF"/>
<path fill-rule="evenodd" clip-rule="evenodd" d="M60 76.5H63.3333V79.875H60V76.5Z" fill="#0053CF"/>
<path fill-rule="evenodd" clip-rule="evenodd" d="M51.1113 76.5H54.4447V79.875H51.1113V76.5Z" fill="#0053CF"/>
<path fill-rule="evenodd" clip-rule="evenodd" d="M42.2227 76.5H45.556V79.875H42.2227V76.5Z" fill="#0053CF"/>
<path fill-rule="evenodd" clip-rule="evenodd" d="M14.4453 82.1245H33.3342V85.4995H14.4453V82.1245Z" fill="#003054"/>
<path fill-rule="evenodd" clip-rule="evenodd" d="M17.7773 82.1245H33.3329V85.4995H17.7773V82.1245Z" fill="#0053CF"/>
</svg>
