<svg width="100" height="90" viewBox="0 0 100 90" fill="none" xmlns="http://www.w3.org/2000/svg">
<rect x="10" width="80" height="90" rx="9" fill="#C8BCA3"/>
<rect x="10" width="66.6667" height="90" rx="9" fill="#E8DFCB"/>
<rect x="15.5557" y="5.625" width="55.5556" height="23.625" rx="3.375" fill="#2F161D"/>
<rect x="17.7778" y="5.625" width="53.3333" height="23.625" rx="3.375" fill="#55353E"/>
<path d="M30.0001 10.125L27.7778 12.375V14.625L30.0001 16.875V10.125Z" fill="#754754"/>
<path d="M30.0001 18L27.7778 20.25V22.5L30.0001 24.75V18Z" fill="#754754"/>
<path d="M22.2222 9L24.4444 11.25L26.6666 11.25L28.8888 9L22.2222 9Z" fill="#754754"/>
<path d="M28.8889 25.875L26.6667 23.625L24.4445 23.625L22.2222 25.875L28.8889 25.875Z" fill="#754754"/>
<path d="M21.111 16.875L23.3333 14.625L23.3333 12.375L21.111 10.125L21.111 16.875Z" fill="#754754"/>
<path d="M21.111 24.75L23.3333 22.5L23.3333 20.25L21.111 18L21.111 24.75Z" fill="#754754"/>
<path d="M23.8888 18.5625L27.2221 18.5625L28.3333 17.4375L27.2221 16.3125L23.8888 16.3125L22.7777 17.4375L23.8888 18.5625Z" fill="#754754"/>
<path d="M42.2222 10.125L40 12.375V14.625L42.2222 16.875V10.125Z" fill="#33CCFF"/>
<path d="M42.2222 18L40 20.25V22.5L42.2222 24.75V18Z" fill="#33CCFF"/>
<path d="M34.4443 9L36.6666 11.25L38.8888 11.25L41.111 9L34.4443 9Z" fill="#754754"/>
<path d="M41.1111 25.875L38.8889 23.625L36.6666 23.625L34.4444 25.875L41.1111 25.875Z" fill="#754754"/>
<path d="M33.3333 16.875L35.5555 14.625L35.5555 12.375L33.3333 10.125L33.3333 16.875Z" fill="#33CCFF"/>
<path d="M33.3333 24.75L35.5555 22.5L35.5555 20.25L33.3333 18L33.3333 24.75Z" fill="#754754"/>
<path d="M36.1111 18.5625L39.4444 18.5625L40.5555 17.4375L39.4444 16.3125L36.1111 16.3125L35 17.4375L36.1111 18.5625Z" fill="#33CCFF"/>
<path d="M54.4444 10.125L52.2222 12.375V14.625L54.4444 16.875V10.125Z" fill="#33CCFF"/>
<path d="M54.4444 18L52.2222 20.25V22.5L54.4444 24.75V18Z" fill="#33CCFF"/>
<path d="M46.6667 9L48.889 11.25L51.1112 11.25L53.3334 9L46.6667 9Z" fill="#33CCFF"/>
<path d="M53.3333 25.875L51.111 23.625L48.8888 23.625L46.6666 25.875L53.3333 25.875Z" fill="#33CCFF"/>
<path d="M45.5556 16.875L47.7778 14.625L47.7778 12.375L45.5556 10.125L45.5556 16.875Z" fill="#33CCFF"/>
<path d="M45.5556 24.75L47.7778 22.5L47.7778 20.25L45.5556 18L45.5556 24.75Z" fill="#33CCFF"/>
<path d="M48.3334 18.5625L51.6667 18.5625L52.7778 17.4375L51.6667 16.3125L48.3334 16.3125L47.2223 17.4375L48.3334 18.5625Z" fill="#754754"/>
<path d="M66.6666 10.125L64.4443 12.375V14.625L66.6666 16.875V10.125Z" fill="#33CCFF"/>
<path d="M66.6666 18L64.4443 20.25V22.5L66.6666 24.75V18Z" fill="#33CCFF"/>
<path d="M58.8889 9L61.1111 11.25L63.3334 11.25L65.5556 9L58.8889 9Z" fill="#33CCFF"/>
<path d="M65.5557 25.875L63.3334 23.625L61.1112 23.625L58.889 25.875L65.5557 25.875Z" fill="#754754"/>
<path d="M57.7778 16.875L60 14.625L60 12.375L57.7778 10.125L57.7778 16.875Z" fill="#33CCFF"/>
<path d="M57.7778 24.75L60 22.5L60 20.25L57.7778 18L57.7778 24.75Z" fill="#754754"/>
<path d="M60.5556 18.5625L63.8889 18.5625L65 17.4375L63.8889 16.3125L60.5556 16.3125L59.4444 17.4375L60.5556 18.5625Z" fill="#33CCFF"/>
<rect x="16.6667" y="34.875" width="14.4444" height="13.5" rx="3.375" fill="#55353E"/>
<rect x="16.6667" y="52.875" width="14.4444" height="13.5" rx="3.375" fill="#55353E"/>
<rect x="15.5557" y="70.875" width="35.5556" height="13.5" rx="3.375" fill="#55353E"/>
<rect x="36.6667" y="34.875" width="14.4444" height="13.5" rx="3.375" fill="#55353E"/>
<rect x="36.6667" y="52.875" width="14.4444" height="13.5" rx="3.375" fill="#55353E"/>
<rect x="56.6667" y="34.875" width="14.4444" height="13.5" rx="3.375" fill="#FF732B"/>
<rect x="56.6667" y="52.875" width="14.4444" height="13.5" rx="3.375" fill="#FF732B"/>
<rect x="56.6667" y="70.875" width="14.4444" height="13.5" rx="3.375" fill="#FF732B"/>
<rect x="15.5557" y="34.875" width="13.3333" height="13.5" rx="3.375" fill="#876470"/>
<rect x="15.5557" y="52.875" width="13.3333" height="13.5" rx="3.375" fill="#876470"/>
<rect x="15.5557" y="70.875" width="33.3333" height="13.5" rx="3.375" fill="#876470"/>
<rect x="35.5557" y="34.875" width="13.3333" height="13.5" rx="3.375" fill="#876470"/>
<rect x="35.5557" y="52.875" width="13.3333" height="13.5" rx="3.375" fill="#876470"/>
<rect x="55.5557" y="34.875" width="13.3333" height="13.5" rx="3.375" fill="#FF9900"/>
<rect x="55.5557" y="52.875" width="13.3333" height="13.5" rx="3.375" fill="#FF9900"/>
<rect x="55.5557" y="70.875" width="13.3333" height="13.5" rx="3.375" fill="#FF9900"/>
<path d="M80 11.25H84.4167C85.6593 11.25 86.6667 12.2574 86.6667 13.5V22.5C86.6667 23.7426 85.6593 24.75 84.4167 24.75H80V11.25Z" fill="#E8DFCB"/>
<path d="M80 28.125H84.4167C85.6593 28.125 86.6667 29.1324 86.6667 30.375V32.625C86.6667 33.8676 85.6593 34.875 84.4167 34.875H80V28.125Z" fill="#E8DFCB"/>
<path d="M80 11.25H81.0833C82.326 11.25 83.3333 12.2574 83.3333 13.5V22.5C83.3333 23.7426 82.326 24.75 81.0833 24.75H80V11.25Z" fill="#FAF8F3"/>
<path d="M80 28.125H81.0833C82.326 28.125 83.3333 29.1324 83.3333 30.375V32.625C83.3333 33.8676 82.326 34.875 81.0833 34.875H80V28.125Z" fill="#FAF8F3"/>
<path d="M61.6667 38.8125H62.7779V44.4375H61.6667V38.8125Z" fill="white"/>
<path d="M59.4443 42.1875L59.4443 41.0625L64.9999 41.0625L64.9999 42.1875L59.4443 42.1875Z" fill="white"/>
<path d="M59.4443 60.1875L59.4443 59.0625L64.9999 59.0625L64.9999 60.1875L59.4443 60.1875Z" fill="white"/>
<path d="M59.4443 77.0625L59.4443 75.9375L64.9999 75.9375L64.9999 77.0625L59.4443 77.0625Z" fill="white"/>
<path d="M59.4443 79.3125L59.4443 78.1875L64.9999 78.1875L64.9999 79.3125L59.4443 79.3125Z" fill="white"/>
<rect x="80" y="69.75" width="6.66667" height="1.125" fill="#998A69"/>
<rect x="80" y="72" width="6.66667" height="1.125" fill="#998A69"/>
<rect x="80" y="74.25" width="6.66667" height="1.125" fill="#998A69"/>
<ellipse cx="20" cy="39.375" rx="1.11111" ry="1.125" fill="#55353E"/>
<ellipse cx="24.4444" cy="43.875" rx="1.11111" ry="1.125" fill="#55353E"/>
<path fill-rule="evenodd" clip-rule="evenodd" d="M24.8373 39.7728L20.3929 44.2728L19.6072 43.4773L24.0516 38.9773L24.8373 39.7728Z" fill="#55353E"/>
</svg>
