<?xml version="1.0" encoding="utf-8"?>
<!-- Generator: Adobe Illustrator 25.2.3, SVG Export Plug-In . SVG Version: 6.00 Build 0)  -->
<svg version="1.1" baseProfile="basic" id="Layer_1"
	 xmlns="http://www.w3.org/2000/svg" xmlns:xlink="http://www.w3.org/1999/xlink" x="0px" y="0px" viewBox="0 0 406 425"
	 xml:space="preserve">
<style type="text/css">
	.st0{opacity:0.2;fill:#798EC7;}
	.st1{fill:#AE2143;}
	.st2{fill:#81123D;}
	.st3{fill:#E2DFF1;}
	.st4{fill:#25387A;}
	.st5{fill:#FFFFFF;}
	.st6{fill:#242D5D;}
	.st7{fill:#FDC85B;}
	.st8{fill:#F59A26;}
	.st9{fill:#E84343;}
	.st10{fill:#ABB4D3;}
	.st11{fill:#767B9C;}
	.st12{fill:#528A40;}
	.st13{fill:#768AC5;}
	.st14{fill:#234899;}
	.st15{fill:#93A2D3;}
	.st16{fill:#5483C3;}
	.st17{fill:#3A61AB;}
	.st18{fill:#5A9AD3;}
	.st19{opacity:0.3;}
	.st20{fill:#A2A4D3;}
	.st21{fill:#8DD2ED;}
	.st22{fill:#F5F5F5;}
	.st23{fill:#495478;}
	.st24{opacity:0.3;fill:#D51028;}
	.st25{fill:#F5EFE2;}
	.st26{opacity:0.3;fill:#495478;}
	.st27{fill:#F8BFB3;}
	.st28{fill:#14111F;}
	.st29{fill:#020203;}
	.st30{opacity:0.1844;fill:#393A56;}
	.st31{fill:#393A56;}
	.st32{fill:#FAD0C3;}
	.st33{fill:#535C78;}
	.st34{fill:#766885;}
</style>
<g>
	<polygon class="st0" points="349.65,358.41 222.8,408.99 211.71,399.95 217.02,397.82 217.39,397.68 222.52,395.61 222.87,395.47 
		228,393.41 228.01,393.41 228.37,393.26 233.5,391.2 233.86,391.05 238.99,389 239.35,388.85 244.49,386.79 244.85,386.64 
		249.98,384.58 250.34,384.44 255.47,382.38 255.84,382.23 260.96,380.17 261.32,380.03 266.45,377.96 266.81,377.82 271.94,375.76 
		271.95,375.76 272.31,375.61 277.44,373.56 277.8,373.41 282.93,371.35 283.29,371.21 288.42,369.14 288.79,369 293.92,366.94 
		294.28,366.79 299.4,364.73 299.78,364.58 304.9,362.53 305.26,362.38 310.39,360.32 310.75,360.18 315.88,358.12 315.89,358.12 
		316.25,357.97 321.38,355.91 321.74,355.76 326.87,353.7 327.23,353.56 332.36,351.5 332.73,351.35 338.35,349.09 	"/>
	<path class="st0" d="M173.78,227.01l-108.12,61.8l166.56,95.27l108.12-61.8L173.78,227.01z"/>
	<path class="st1" d="M234.23,352.49v24.97l106.41-60.86v3.12l-106.41,60.87c-0.47,0.27-1.13,0.47-1.64,0.31
		c-0.1-0.03-0.19-0.07-0.28-0.13c-0.01-0.01-0.01-0.01-0.02-0.01c-0.27-0.17-0.49-0.45-0.61-0.75c-0.13-0.31-0.17-0.65-0.17-0.99
		v-24.97c0-0.46,0.08-0.92,0.23-1.38c0.3-0.91,0.76-1.72,1.41-2.43c0.32-0.35,0.69-0.65,1.09-0.88l106.41-60.86v3.12l-7.3,4.18
		L234.23,352.49z"/>
	<path class="st2" d="M176.93,194.87L70.51,255.73l163.72,93.64l106.41-60.86L176.93,194.87z"/>
	<polygon class="st2" points="340.64,316.6 234.23,377.47 234.23,372.6 333.34,315.91 333.34,312.43 	"/>
	<polygon class="st3" points="333.34,295.81 333.34,315.91 234.23,372.6 234.23,352.5 	"/>
	<polygon class="st0" points="333.34,295.81 333.34,299.96 234.23,356.64 234.23,352.5 	"/>
	<path class="st4" d="M231.5,354.05v24.97c0,0.33,0.04,0.67,0.17,0.99c0.12,0.3,0.34,0.58,0.61,0.75
		c-54.57-31.2-109.14-62.42-163.7-93.63c-0.14-0.08-0.27-0.19-0.37-0.33c-0.21-0.28-0.34-0.59-0.39-0.92
		c-0.02-0.16-0.03-0.33-0.03-0.5v-24.98c0-0.46,0.08-0.92,0.23-1.38c0.3-0.91,0.76-1.72,1.41-2.43c0.32-0.35,0.69-0.65,1.09-0.88
		l163.72,93.64c-0.41,0.23-0.77,0.52-1.09,0.88c-0.65,0.71-1.11,1.52-1.41,2.43C231.58,353.13,231.5,353.59,231.5,354.05z"/>
	<g>
		<polygon class="st5" points="234.23,349.38 247.45,341.62 260.7,333.93 287.26,318.65 313.91,303.5 327.26,295.98 340.64,288.51 
			327.42,296.27 314.17,303.96 287.61,319.24 260.96,334.39 247.61,341.91 		"/>
	</g>
	<g>
		<polygon class="st5" points="234.23,377.47 247.45,369.72 260.7,362.03 287.26,346.74 313.91,331.59 327.26,324.07 340.64,316.6 
			327.42,324.36 314.17,332.05 287.61,347.33 260.96,362.48 247.61,370 		"/>
	</g>
	<path class="st6" d="M232.29,380.76c-54.57-31.2-109.14-62.42-163.7-93.63c-0.14-0.08-0.27-0.19-0.37-0.33
		c-0.21-0.28-0.34-0.59-0.39-0.92c-0.02-0.16-0.03-0.33-0.03-0.5v-24.98l163.72,93.64v24.97c0,0.33,0.04,0.67,0.17,0.99
		C231.8,380.31,232.01,380.59,232.29,380.76z"/>
	<g>
		<polygon class="st7" points="349.65,357.01 349.65,358.25 223.33,408.99 223.33,407.74 		"/>
		<polygon class="st8" points="349.65,357.01 223.33,407.74 212.24,398.71 217.55,396.57 217.91,396.43 223.04,394.37 223.4,394.22 
			228.53,392.17 228.54,392.17 228.9,392.02 234.03,389.96 234.39,389.81 239.52,387.75 239.88,387.61 245.02,385.54 245.38,385.4 
			250.51,383.34 250.87,383.19 255.99,381.14 256.37,380.99 261.49,378.93 261.85,378.79 266.98,376.72 267.34,376.58 
			272.47,374.52 272.48,374.52 272.84,374.37 277.97,372.31 278.33,372.16 283.46,370.1 283.82,369.96 288.95,367.9 289.32,367.75 
			294.45,365.7 294.81,365.55 299.93,363.49 300.31,363.34 305.43,361.28 305.79,361.14 310.92,359.07 311.28,358.93 316.41,356.87 
			316.42,356.87 316.78,356.72 321.91,354.67 322.27,354.52 327.4,352.46 327.76,352.32 332.89,350.25 333.25,350.11 338.56,347.98 
					"/>
		<polygon class="st9" points="223.33,407.74 223.33,408.99 212.24,399.95 212.24,398.7 		"/>
		<g>
			<polygon class="st5" points="223.33,407.74 239.09,401.32 254.87,394.95 286.43,382.22 318.03,369.58 333.83,363.27 
				349.65,357.01 333.89,363.43 318.11,369.79 286.55,382.53 254.95,395.16 239.15,401.47 			"/>
		</g>
	</g>
	<g>
		<g>
			<path class="st3" d="M29.81,120.77v147.55l176.12-100.74V20.04L29.81,120.77z M202.4,165.57L33.33,262.27V122.78L197.12,29.1
				l5.29-3.02V165.57z"/>
			<polygon class="st10" points="205.92,20.04 29.81,120.77 21,115.73 197.12,15 			"/>
			<path class="st11" d="M202.4,26.3v139.48c-1.76-1.01-3.53-2.01-5.29-3.02V29.32L202.4,26.3z"/>
			<path class="st10" d="M202.4,165.57L33.33,262.27v-6.04c54.6-31.22,109.2-62.45,163.79-93.69
				C198.88,163.55,200.64,164.56,202.4,165.57z"/>
			<path class="st12" d="M197.12,29.1v133.44c-54.59,31.23-109.19,62.46-163.79,93.69V122.78L197.12,29.1z"/>
			<polygon class="st11" points="29.81,120.77 29.81,268.32 21,263.28 21,115.73 			"/>
			<g>
				<polygon class="st5" points="29.81,120.77 51.72,108.01 73.7,95.36 117.66,70.06 161.76,44.99 183.81,32.46 205.92,20.04 
					184.01,32.8 162.03,45.45 118.07,70.75 73.97,95.81 51.92,108.34 				"/>
			</g>
			<g>
				<polygon class="st5" points="202.4,165.57 181.37,177.82 160.29,190.01 118.07,214.27 75.75,238.36 54.56,250.35 33.33,262.27 
					54.36,250.02 75.44,237.83 117.66,213.57 159.98,189.48 181.17,177.49 				"/>
			</g>
		</g>
		<g>
			<path class="st5" d="M99.1,123.35c-0.21,0.76-0.61,1.4-1.43,1.93l-0.07-0.44c0.54-0.39,0.72-0.67,0.88-1.14l-0.23,0.13
				l-0.87-2.22l0.71-0.4l0.6,1.94l0.62-2.64l0.68-0.39L99.1,123.35z"/>
			<path class="st5" d="M100.28,120.18l2.08-1.19v0.52l-2.08,1.19V120.18z M100.28,121.22l2.08-1.19v0.52l-2.08,1.19V121.22z"/>
			<path class="st5" d="M103.78,117.66v0.29l0.66-0.38l-0.07,0.51l-0.59,0.34v2.24l-0.66,0.38v-2.25l-0.45,0.26v-0.47l0.45-0.26
				v-0.3c0-0.49,0.33-1.05,0.96-1.41c0.27-0.16,0.5-0.22,0.71-0.25l-0.19,0.55c-0.17,0.02-0.32,0.08-0.45,0.16
				C103.88,117.23,103.78,117.4,103.78,117.66z"/>
			<path class="st5" d="M106,115.3c-0.48,0.95-0.73,1.69-0.73,2.71c0,1.02,0.25,1.47,0.73,1.88l-0.43,0.53
				c-0.51-0.42-0.99-0.79-0.99-2.02c0-1.22,0.47-2.14,0.99-3.14L106,115.3z"/>
			<path class="st5" d="M108.73,117.84l-0.77,0.44l-0.56-0.76l-0.56,1.4l-0.73,0.42l0.91-1.96l-0.82-0.82l0.76-0.43l0.47,0.66
				l0.46-1.19l0.72-0.41l-0.79,1.72L108.73,117.84z"/>
			<path class="st5" d="M110.25,115.17c0,1.22-0.47,2.14-0.99,3.14l-0.42-0.04c0.47-0.95,0.73-1.7,0.73-2.71
				c0-1.02-0.26-1.47-0.73-1.88l0.42-0.52C109.78,113.57,110.25,113.95,110.25,115.17z"/>
			<g>
				<path class="st5" d="M143.2,104.7c-0.21,0.76-0.61,1.4-1.43,1.93l-0.07-0.44c0.54-0.39,0.72-0.67,0.88-1.14l-0.23,0.13
					l-0.87-2.22l0.71-0.4l0.6,1.94l0.62-2.64l0.68-0.39L143.2,104.7z"/>
				<path class="st5" d="M144.39,101.53l2.08-1.19v0.52l-2.08,1.19V101.53z M144.39,102.57l2.08-1.19v0.52l-2.08,1.19V102.57z"/>
				<path class="st5" d="M149.28,101.22l-0.77,0.44l-0.56-0.76l-0.56,1.4l-0.73,0.42l0.91-1.96l-0.82-0.82l0.76-0.43l0.47,0.66
					l0.46-1.19l0.72-0.41l-0.79,1.72L149.28,101.22z"/>
			</g>
			<g>
				<path class="st5" d="M148.38,132.54c-0.21,0.76-0.61,1.4-1.43,1.93l-0.07-0.44c0.54-0.39,0.72-0.67,0.88-1.14l-0.23,0.13
					l-0.87-2.22l0.71-0.4l0.6,1.94l0.62-2.64l0.68-0.39L148.38,132.54z"/>
				<path class="st5" d="M149.57,129.37l2.08-1.19v0.52l-2.08,1.19V129.37z M149.57,130.41l2.08-1.19v0.52l-2.08,1.19V130.41z"/>
				<path class="st5" d="M153.06,126.85v0.29l0.66-0.38l-0.07,0.51l-0.59,0.34v2.24l-0.66,0.38v-2.25l-0.45,0.26v-0.47l0.45-0.26
					v-0.3c0-0.49,0.33-1.05,0.96-1.41c0.27-0.16,0.5-0.22,0.71-0.25l-0.19,0.55c-0.17,0.02-0.32,0.08-0.45,0.16
					C153.16,126.42,153.06,126.59,153.06,126.85z"/>
				<g>
					<path class="st5" d="M154.88,123.56l0.74-0.42v0.25l-0.74,0.42V123.56z"/>
					<path class="st5" d="M156.44,123.55l-0.31,0.18v-1.32l-0.37,0.43l-0.14-0.13l0.54-0.63l0.28-0.16V123.55z"/>
				</g>
				<path class="st5" d="M158.42,122.69c-0.48,0.95-0.73,1.69-0.73,2.71c0,1.02,0.25,1.47,0.73,1.88l-0.43,0.53
					c-0.51-0.42-0.99-0.79-0.99-2.02c0-1.22,0.47-2.14,0.99-3.14L158.42,122.69z"/>
				<path class="st5" d="M161.16,125.23l-0.77,0.44l-0.56-0.76l-0.56,1.4l-0.73,0.42l0.91-1.96l-0.82-0.82l0.76-0.43l0.47,0.66
					l0.46-1.19l0.72-0.41l-0.79,1.72L161.16,125.23z"/>
				<path class="st5" d="M162.68,122.56c0,1.22-0.47,2.14-0.99,3.14l-0.42-0.04c0.47-0.95,0.73-1.7,0.73-2.71
					c0-1.02-0.26-1.47-0.73-1.88l0.42-0.52C162.21,120.96,162.68,121.34,162.68,122.56z"/>
			</g>
			<path class="st5" d="M157.89,149.5l-0.77,0.44l-0.56-0.76l-0.56,1.4l-0.73,0.42l0.91-1.96l-0.82-0.82l0.76-0.43l0.47,0.66
				l0.46-1.19l0.72-0.41l-0.79,1.72L157.89,149.5z"/>
			<path class="st5" d="M83.78,118.09c-0.21,0.76-0.61,1.4-1.43,1.93l-0.07-0.44c0.54-0.39,0.72-0.67,0.88-1.14l-0.23,0.13
				l-0.87-2.22l0.71-0.4l0.6,1.94l0.62-2.64l0.68-0.39L83.78,118.09z"/>
			<path class="st5" d="M93.57,183.95c0,1.16-0.43,2.05-1.25,2.52c-0.82,0.47-1.25,0.07-1.25-1.09c0-1.15,0.43-2.04,1.25-2.51
				C93.14,182.4,93.57,182.8,93.57,183.95z M91.75,184.99c0,0.97,0.18,1.2,0.57,0.98c0.38-0.22,0.57-0.65,0.57-1.63
				c0-0.97-0.18-1.19-0.57-0.97C91.93,183.59,91.75,184.03,91.75,184.99z"/>
			<g>
				<rect x="86.9" y="107.1" class="st5" width="0.69" height="111.01"/>
			</g>
			<g>
				<polygon class="st5" points="56.33,202.9 55.98,202.31 166.35,139.18 166.7,139.77 				"/>
			</g>
			<g>
				<g>
					<polygon class="st5" points="83.79,191.39 83.21,191.03 85.42,187.57 86,187.94 					"/>
				</g>
				<g>
					<path class="st5" d="M90.22,181.35l-0.58-0.36l4.22-6.59l0.58,0.36L90.22,181.35z M98.65,168.17l-0.58-0.36l4.22-6.59
						l0.58,0.36L98.65,168.17z M107.09,154.98l-0.58-0.36l4.22-6.59l0.58,0.36L107.09,154.98z M115.52,141.8l-0.58-0.36l4.22-6.59
						l0.58,0.36L115.52,141.8z M123.96,128.62l-0.58-0.36l4.22-6.59l0.58,0.36L123.96,128.62z M132.4,115.44l-0.58-0.36l4.22-6.59
						l0.58,0.36L132.4,115.44z"/>
				</g>
				<g>
					<polygon class="st5" points="140.83,102.26 140.25,101.89 142.46,98.44 143.04,98.8 					"/>
				</g>
			</g>
			<g>
				<path class="st5" d="M63.35,187.92l-0.31-0.61c0.17-0.09,17.28-8.87,32.77-33.96c15.5-25.12,16.96-53.57,16.97-53.86l0.69,0.03
					c-0.01,0.29-1.48,28.92-17.07,54.18C80.8,178.98,63.52,187.84,63.35,187.92z"/>
			</g>
			<g>
				<path class="st5" d="M131.85,139.71c-6.48,6.4-14.03,14.68-19.36,23.1c-8.4,13.29-11.96,24.11-13.47,30.84
					c-1.63,7.3-1.27,11.51-1.27,11.55l-0.69,0.06c-0.01-0.16-1.38-17.18,14.84-42.81c5.4-8.54,13.01-16.81,19.57-23.28
					C131.6,139.38,131.74,139.51,131.85,139.71z"/>
			</g>
		</g>
	</g>
	<g>
		<g>
			<path class="st11" d="M283.93,225.04c-0.03-0.11-0.06-0.21-0.1-0.32c-0.66-2.13-1.32-4.27-1.98-6.4v-0.02
				c-0.26-1.24-0.53-2.49-0.79-3.73l1.04,0.14l0.25-0.25c0.26,1.19,0.51,2.39,0.76,3.58l0.01,0.02c0.26,2.21,0.52,4.43,0.78,6.65
				C283.9,224.83,283.91,224.93,283.93,225.04z"/>
			<path class="st10" d="M282.11,214.74l-1.04-0.14l-1.69-0.22l-22.41-106.12c0.74-0.01,1.48-0.13,2.17-0.4
				c0.64-0.26,1.24-0.64,1.74-1.13l0.01,0.01c0.32-0.32,0.64-0.64,0.97-0.96l0.08-0.08l18.37,87.03c0.11,0.51,0.21,1.02,0.3,1.53
				c0.18,1.02,0.32,2.05,0.43,3.08c0.05,0.52,0.1,1.03,0.12,1.55L282.11,214.74z"/>
			<path class="st3" d="M254.08,107.74l-21.82,88.9l-1.61,1.6l22.31-90.93C253.33,107.47,253.7,107.62,254.08,107.74z"/>
			<path class="st3" d="M283.71,213.12l-1.36,1.34l-0.25,0.25l-0.96-15.84c-0.03-0.52-0.07-1.03-0.12-1.55
				c-0.11-1.03-0.25-2.06-0.43-3.08c-0.09-0.51-0.19-1.02-0.3-1.53l-18.37-87.03l1.61-1.6l18.38,87.03c0.11,0.51,0.2,1.02,0.3,1.53
				c0.18,1.02,0.32,2.05,0.42,3.08c0.05,0.52,0.1,1.03,0.13,1.55L283.71,213.12z"/>
			<path class="st10" d="M252.97,107.25l-22.31,90.93l-0.24-0.13l-1.17-0.62l-1.32-0.7l0.96-15.21c0.03-0.47,0.07-0.94,0.12-1.42
				c0.1-0.94,0.24-1.87,0.42-2.8c0.09-0.46,0.19-0.93,0.3-1.38l17.94-73.12c0.06,0.09,0.13,0.19,0.2,0.28
				c1.08,1.45,2.44,2.68,3.99,3.59C252.23,106.89,252.59,107.08,252.97,107.25z"/>
			<path class="st11" d="M230.47,198.07c-0.2,0.86-0.42,1.72-0.63,2.58l-0.01,0.03c-0.66,1.82-1.31,3.64-1.97,5.46
				c-0.03,0.09-0.06,0.18-0.1,0.27c0.01-0.1,0.02-0.19,0.04-0.29c0.26-1.92,0.52-3.83,0.78-5.75l0.01-0.03
				c0.24-0.96,0.47-1.93,0.71-2.9L230.47,198.07z"/>
			<path class="st13" d="M258.34,73.69l-1.22-0.67l-1.73-0.1l-1.51,0.26h-0.01l-0.79,0.72L252.82,75l0.17,0.59l0.25,0.36l0.4,0.29
				l0.72,0.35l0.92,0.15l1.41-0.13l0.97-0.26l0.76-0.68l0.36-1L258.34,73.69z M257.84,75.42c-0.37,0.29-0.8,0.42-1.25,0.48
				c-0.54,0.08-1.08,0.08-1.62-0.01c-0.19-0.03-0.38-0.07-0.57-0.13c-0.24-0.08-0.47-0.2-0.67-0.37c-0.28-0.24-0.52-0.59-0.51-0.93
				c0.01-0.26,0.15-0.51,0.35-0.71c0.07-0.07,0.14-0.14,0.22-0.2c0.37-0.29,0.81-0.41,1.25-0.48c0.53-0.08,1.07-0.08,1.61,0.01
				c0.18,0.03,0.36,0.07,0.54,0.13c0.25,0.08,0.49,0.2,0.7,0.37c0.29,0.24,0.52,0.59,0.51,0.93
				C258.39,74.86,258.14,75.2,257.84,75.42z"/>
			<path class="st14" d="M262.46,106.22c-0.23,0.38-0.52,0.73-0.84,1.04c-0.57,0.56-1.26,1-1.99,1.29
				c-0.78,0.31-1.63,0.45-2.48,0.46c-0.4,0-0.8-0.02-1.2-0.07c-0.72-0.09-1.43-0.24-2.11-0.47c-0.44-0.14-0.86-0.31-1.28-0.49
				c-0.43-0.2-0.85-0.42-1.26-0.65c-1.78-1.04-3.34-2.46-4.58-4.12c-0.08-0.1-0.15-0.21-0.23-0.32c-1.12-1.59-1.95-3.38-2.2-5.31
				c-0.06-0.41-0.08-0.82-0.08-1.24c0-1.25,0.27-2.5,0.92-3.54c0.25-0.39,0.54-0.75,0.88-1.07c0.56-0.54,1.23-0.98,1.95-1.26
				c1.16-0.46,2.44-0.54,3.68-0.4c1.65,0.19,3.22,0.78,4.65,1.62c1.78,1.04,3.34,2.46,4.58,4.12c1.24,1.66,2.16,3.57,2.43,5.63
				C263.52,103.09,263.33,104.83,262.46,106.22z"/>
			<path class="st10" d="M258.4,74.52c-0.01,0.34-0.27,0.68-0.56,0.9c-0.37,0.29-0.8,0.42-1.25,0.48c-0.54,0.08-1.08,0.08-1.62-0.01
				c-0.19-0.03-0.38-0.07-0.57-0.13c-0.24-0.08-0.47-0.2-0.67-0.37c-0.28-0.24-0.52-0.59-0.51-0.93c0.01-0.26,0.15-0.51,0.35-0.71
				c0.07-0.07,0.14-0.14,0.22-0.2c0.37-0.29,0.81-0.41,1.25-0.48c0.53-0.08,1.07-0.08,1.61,0.01c0.18,0.03,0.36,0.07,0.54,0.13
				c0.25,0.08,0.49,0.2,0.7,0.37C258.18,73.84,258.42,74.18,258.4,74.52z"/>
			<path class="st10" d="M259.51,75.34c-0.02,0.48-0.39,0.96-0.81,1.28c-0.53,0.41-1.15,0.59-1.78,0.68
				c-0.77,0.11-1.55,0.11-2.32-0.01c-0.28-0.04-0.55-0.1-0.81-0.19c-0.35-0.12-0.67-0.28-0.96-0.53c-0.33-0.27-0.61-0.66-0.7-1.05
				c0.09,0.55,0,12.82,0,13.39c0,0.01,0,0.01,0,0.01v0.08c0.01,0.02,0.01,0.06,0.02,0.08c0.01,0.02,0.01,0.05,0.02,0.07
				c0.01,0.02,0.02,0.06,0.03,0.08c0.02,0.04,0.04,0.07,0.06,0.11s0.05,0.07,0.08,0.1c0.03,0.04,0.06,0.07,0.1,0.11
				c0.03,0.03,0.07,0.07,0.12,0.1c0.04,0.04,0.09,0.07,0.13,0.1c0.04,0.03,0.1,0.07,0.15,0.1c0.05,0.03,0.11,0.07,0.17,0.1
				c0.06,0.03,0.12,0.06,0.18,0.09c0.06,0.03,0.13,0.06,0.2,0.09c0.07,0.03,0.14,0.06,0.21,0.09c0.1,0.04,0.22,0.09,0.33,0.13
				c0.04,0.01,0.07,0.02,0.1,0.03c0.05,0.02,0.1,0.04,0.15,0.05c0.08,0.02,0.16,0.05,0.25,0.07c0.08,0.02,0.16,0.04,0.25,0.06
				c0.09,0.02,0.17,0.04,0.25,0.06c0.09,0.02,0.17,0.04,0.26,0.05c0.09,0.02,0.17,0.04,0.27,0.05c0.09,0.01,0.17,0.02,0.26,0.04
				c0.09,0.01,0.17,0.02,0.26,0.03c0.09,0.01,0.18,0.02,0.27,0.02c0.09,0.01,0.17,0.01,0.26,0.01h0.17c0.06,0.01,0.12,0,0.17,0
				c0.06,0,0.11,0,0.17-0.01c0.06,0,0.11-0.01,0.17-0.01c0.06-0.01,0.1-0.01,0.16-0.02c0.06-0.01,0.1-0.01,0.16-0.02
				c0.06-0.01,0.1-0.02,0.15-0.02c0.06-0.01,0.1-0.02,0.15-0.04c0.05-0.01,0.1-0.02,0.15-0.04c0.05-0.01,0.09-0.02,0.14-0.04
				c0.05-0.02,0.09-0.03,0.14-0.05c0.05-0.02,0.09-0.04,0.14-0.06c0.04-0.02,0.08-0.04,0.12-0.06c0.04-0.02,0.08-0.04,0.12-0.06
				c0.04-0.02,0.07-0.05,0.11-0.07c0.04-0.02,0.07-0.05,0.11-0.07c0.05-0.04,0.1-0.08,0.15-0.13l0.06-0.05
				c0.04-0.04,0.09-0.09,0.12-0.14c0.02-0.03,0.05-0.07,0.07-0.1c0.02-0.03,0.04-0.07,0.06-0.1c0.02-0.03,0.04-0.07,0.06-0.1
				c0.02-0.04,0.04-0.07,0.05-0.11c0.02-0.04,0.03-0.08,0.04-0.12c0.01-0.04,0.02-0.07,0.03-0.11c0.01-0.04,0.01-0.09,0.02-0.12
				c0.01-0.04,0.01-0.08,0.02-0.12c0-0.04,0.01-0.09,0.01-0.12L259.51,75.34z"/>
			<path class="st15" d="M257.84,74.9c-0.37,0.29-0.8,0.42-1.25,0.48c-0.54,0.08-1.08,0.08-1.62-0.01
				c-0.19-0.03-0.38-0.07-0.57-0.13c-0.24-0.08-0.47-0.2-0.67-0.37c-0.2-0.17-0.38-0.4-0.46-0.64c-0.03,0.08-0.05,0.15-0.06,0.24
				c-0.01,0.34,0.23,0.69,0.51,0.93c0.2,0.17,0.43,0.29,0.67,0.37c0.18,0.06,0.38,0.1,0.57,0.13c0.54,0.09,1.08,0.09,1.62,0.01
				c0.44-0.06,0.88-0.19,1.25-0.48c0.3-0.23,0.55-0.56,0.56-0.9c0.01-0.1-0.01-0.2-0.04-0.29C258.28,74.49,258.07,74.73,257.84,74.9
				z"/>
			<path class="st3" d="M259.52,75.34c-0.02,0.48-0.39,0.96-0.81,1.28c-0.53,0.41-1.15,0.59-1.78,0.68
				c-0.77,0.11-1.55,0.11-2.32-0.01c-0.28-0.04-0.55-0.1-0.81-0.19c-0.35-0.12-0.67-0.28-0.96-0.53c-0.33-0.27-0.61-0.66-0.7-1.05
				v-0.14c0-0.15,0.02-0.31,0.06-0.46c0.03-0.14,0.09-0.3,0.15-0.43c0.06-0.13,0.15-0.28,0.24-0.38c0.07-0.08,0.15-0.17,0.22-0.24
				c0.1-0.1,0.26-0.23,0.38-0.31c0.08-0.06,0.18-0.12,0.28-0.17c-0.07,0.09-0.12,0.2-0.16,0.31c-0.03,0.08-0.05,0.16-0.06,0.24
				c0,0.1,0.02,0.2,0.06,0.29c-0.03,0.08-0.05,0.15-0.06,0.24c-0.01,0.34,0.23,0.69,0.51,0.93c0.2,0.17,0.43,0.29,0.67,0.37
				c0.19,0.06,0.38,0.1,0.57,0.13c0.54,0.09,1.08,0.09,1.62,0.01c0.44-0.06,0.88-0.19,1.25-0.48c0.3-0.23,0.55-0.56,0.56-0.9
				c0.01-0.1-0.01-0.2-0.04-0.29c0.02-0.08,0.04-0.16,0.04-0.24c0.01-0.1-0.01-0.2-0.04-0.29c-0.04-0.12-0.1-0.23-0.18-0.33
				c0.01,0.01,0.02,0.01,0.03,0.02c0.16,0.09,0.27,0.17,0.41,0.28c0.14,0.12,0.23,0.2,0.35,0.34c0.12,0.13,0.19,0.23,0.28,0.38
				c0.08,0.15,0.13,0.27,0.18,0.43c0.05,0.15,0.07,0.29,0.08,0.45C259.52,75.31,259.52,75.33,259.52,75.34z"/>
			<path class="st10" d="M258.41,74.52c-0.01,0.34-0.27,0.68-0.56,0.9c-0.37,0.29-0.8,0.42-1.25,0.48
				c-0.54,0.08-1.08,0.08-1.62-0.01c-0.19-0.03-0.38-0.07-0.57-0.13c-0.24-0.08-0.47-0.2-0.67-0.37c-0.28-0.24-0.52-0.59-0.51-0.93
				c0.01-0.09,0.02-0.17,0.06-0.24c0.44-0.24,0.92-0.36,1.41-0.43c0.76-0.12,1.54-0.12,2.31,0.01c0.25,0.04,0.52,0.1,0.76,0.18
				c0.2,0.07,0.4,0.15,0.59,0.25C258.4,74.32,258.41,74.42,258.41,74.52z"/>
			<path class="st16" d="M267.44,98.27c0.05,1.11-0.11,2.24-0.57,3.25c-0.28,0.64-0.69,1.23-1.18,1.73
				c-0.02,0.02-0.07,0.06-0.07,0.06l-4,3.96l-0.01-0.01c0.32-0.32,0.61-0.67,0.84-1.04c0.87-1.39,1.07-3.13,0.84-4.78
				c-0.27-2.06-1.19-3.97-2.43-5.63c-1.24-1.67-2.8-3.08-4.58-4.12c-0.75-0.44-1.55-0.81-2.37-1.09c-0.74-0.26-1.5-0.43-2.28-0.53
				c-1.24-0.15-2.52-0.06-3.68,0.4c-0.72,0.29-1.39,0.73-1.95,1.26l-0.01-0.01c1.34-1.34,2.69-2.66,4.03-3.99
				c0.15-0.15,0.31-0.28,0.47-0.42c0.33-0.26,0.68-0.48,1.07-0.66c0.18-0.09,0.38-0.18,0.58-0.24v2.51c0,0.01,0,0.01,0,0.01v0.08
				c0.01,0.02,0.01,0.05,0.02,0.08c0.01,0.02,0.01,0.05,0.02,0.07c0.01,0.02,0.02,0.06,0.03,0.08c0.02,0.04,0.04,0.07,0.06,0.11
				c0.02,0.04,0.05,0.07,0.08,0.1c0.03,0.04,0.06,0.07,0.1,0.11c0.03,0.03,0.07,0.07,0.12,0.1c0.04,0.04,0.09,0.07,0.13,0.1
				c0.04,0.03,0.1,0.07,0.15,0.1c0.05,0.03,0.11,0.07,0.17,0.1c0.06,0.03,0.12,0.06,0.18,0.09c0.06,0.03,0.13,0.06,0.2,0.09
				c0.07,0.03,0.14,0.06,0.21,0.09c0.1,0.04,0.22,0.09,0.33,0.13c0.04,0.01,0.07,0.02,0.1,0.03c0.02,0.01,0.06,0.02,0.08,0.02
				c0.02,0.01,0.05,0.02,0.07,0.02c0.08,0.02,0.16,0.05,0.25,0.07c0.08,0.02,0.16,0.04,0.25,0.06c0.09,0.02,0.17,0.04,0.25,0.06
				c0.09,0.02,0.17,0.04,0.26,0.05c0.09,0.02,0.17,0.04,0.27,0.05c0.09,0.01,0.17,0.02,0.27,0.04c0.09,0.01,0.17,0.02,0.26,0.03
				c0.09,0.01,0.18,0.02,0.27,0.02c0.09,0.01,0.17,0.01,0.26,0.01h0.17c0.06,0.01,0.12,0,0.17,0c0.06,0,0.11,0,0.17-0.01
				c0.06,0,0.11-0.01,0.17-0.01c0.06-0.01,0.1-0.01,0.16-0.02c0.06-0.01,0.1-0.01,0.16-0.02c0.06-0.01,0.11-0.02,0.15-0.02
				c0.06-0.01,0.11-0.02,0.15-0.04c0.05-0.01,0.1-0.02,0.15-0.04c0.05-0.01,0.09-0.02,0.14-0.04c0.05-0.02,0.09-0.03,0.14-0.05
				c0.05-0.02,0.09-0.04,0.14-0.06c0.04-0.02,0.08-0.04,0.12-0.06c0.04-0.02,0.08-0.04,0.12-0.06c0.04-0.02,0.07-0.05,0.11-0.07
				c0.04-0.02,0.07-0.05,0.11-0.07c0.05-0.04,0.1-0.08,0.15-0.13l0.06-0.05c0.04-0.04,0.09-0.09,0.12-0.14
				c0.02-0.03,0.05-0.07,0.07-0.1c0.02-0.03,0.04-0.07,0.06-0.1c0.02-0.03,0.04-0.07,0.06-0.1c0.02-0.04,0.04-0.07,0.05-0.11
				c0.02-0.04,0.03-0.08,0.04-0.12c0.01-0.04,0.02-0.07,0.03-0.11c0.01-0.04,0.01-0.09,0.02-0.12c0.01-0.04,0.01-0.08,0.02-0.12
				c0-0.04,0.01-0.09,0.01-0.12v-1.73c1.5,0.74,2.87,1.75,4.04,2.95c1.17,1.2,2.15,2.57,2.85,4.09
				C266.99,95.51,267.38,96.88,267.44,98.27z"/>
			<path class="st17" d="M254.1,90.41l-0.18,0.19c-0.74-0.26-1.5-0.43-2.28-0.53c-1.24-0.15-2.52-0.06-3.68,0.4
				c-0.72,0.29-1.39,0.73-1.95,1.26l-0.01-0.01c1.34-1.34,2.69-2.66,4.03-3.99c0.15-0.15,0.31-0.28,0.47-0.42
				c0.33-0.26,0.68-0.48,1.07-0.66c0.18-0.09,0.38-0.18,0.58-0.24v2.51c0,0.01,0,0.01,0,0.01v0.08c0.01,0.02,0.01,0.05,0.02,0.08
				c0.01,0.02,0.01,0.05,0.02,0.07c0.01,0.02,0.02,0.06,0.03,0.08c0.02,0.04,0.04,0.07,0.06,0.11c0.02,0.04,0.05,0.07,0.08,0.1
				c0.03,0.04,0.06,0.07,0.1,0.11c0.03,0.03,0.07,0.07,0.12,0.1c0.04,0.04,0.09,0.07,0.13,0.1c0.04,0.03,0.1,0.07,0.15,0.1
				c0.05,0.03,0.11,0.07,0.17,0.1c0.06,0.03,0.12,0.06,0.18,0.09c0.06,0.03,0.13,0.06,0.2,0.09c0.07,0.03,0.14,0.06,0.21,0.09
				c0.1,0.04,0.22,0.09,0.33,0.13c0.04,0.01,0.07,0.02,0.1,0.03C254.05,90.39,254.08,90.4,254.1,90.41z"/>
			<g>
				<path class="st5" d="M256.29,91.69c1.28,0.69,2.46,1.58,3.48,2.62c1.02,1.05,1.88,2.24,2.56,3.54c0.65,1.31,1.08,2.74,1.16,4.2
					c0.03,0.73-0.01,1.46-0.17,2.18c-0.17,0.71-0.45,1.39-0.85,1.99c0.72-1.26,0.9-2.74,0.79-4.15c-0.12-1.42-0.54-2.81-1.2-4.08
					c-0.63-1.28-1.49-2.45-2.45-3.52C258.62,93.42,257.51,92.47,256.29,91.69z"/>
			</g>
		</g>
		<path class="st3" d="M253.29,74.22c0.06-0.17,0.16-0.33,0.29-0.46c0.07-0.07,0.14-0.14,0.22-0.2c0.37-0.29,0.81-0.41,1.25-0.48
			c0.53-0.08,1.07-0.08,1.61,0.01c0.18,0.03,0.36,0.07,0.54,0.13c0.25,0.08,0.49,0.2,0.7,0.37c0.21,0.18,0.39,0.4,0.47,0.64
			c0.02-0.08,0.04-0.16,0.04-0.24c0.01-0.1-0.01-0.2-0.04-0.29c-0.04-0.12-0.1-0.23-0.18-0.33c-0.15-0.09-0.28-0.14-0.45-0.21
			c-0.17-0.07-0.3-0.11-0.49-0.17c-0.18-0.05-0.32-0.08-0.51-0.11c-0.36-0.06-0.69-0.09-1.07-0.07c-0.31,0.01-0.78,0.07-1.08,0.13
			c-0.15,0.04-0.36,0.1-0.51,0.15c-0.06,0.02-0.12,0.04-0.19,0.07h-0.01c-0.1,0.04-0.2,0.09-0.28,0.13
			c-0.05,0.02-0.1,0.06-0.15,0.09c-0.07,0.09-0.12,0.2-0.16,0.31c-0.03,0.08-0.05,0.16-0.06,0.24
			C253.23,74.04,253.25,74.13,253.29,74.22L253.29,74.22z"/>
		<path class="st11" d="M257.73,73.16c-0.24-0.1-0.54,0.05-0.54,0.05c-0.17-0.06-0.36-0.1-0.54-0.13c-0.54-0.09-1.08-0.09-1.61-0.01
			c-0.44,0.07-0.88,0.19-1.25,0.48c-0.07,0.05-0.15,0.12-0.22,0.2c-0.19,0.2-0.33,0.45-0.35,0.71c-0.01,0.34,0.23,0.69,0.51,0.93
			c0.2,0.17,0.43,0.29,0.67,0.37c-0.32,0.35-0.31,1.2-0.31,1.2v13.45c-0.17-0.04-0.35-0.13-0.52-0.18
			c-0.07-0.02-0.14-0.06-0.21-0.09c-0.07-0.02-0.14-0.06-0.2-0.09c-0.06-0.03-0.12-0.06-0.18-0.09c-0.06-0.03-0.12-0.07-0.17-0.1
			c-0.05-0.03-0.1-0.07-0.15-0.1c-0.04-0.03-0.09-0.07-0.13-0.1c-0.04-0.03-0.09-0.07-0.12-0.1c-0.04-0.04-0.07-0.07-0.1-0.11
			c-0.03-0.03-0.06-0.07-0.08-0.1c-0.02-0.04-0.04-0.07-0.06-0.11c-0.01-0.02-0.02-0.05-0.03-0.08c-0.01-0.02-0.01-0.05-0.02-0.07
			c-0.01-0.02-0.01-0.05-0.02-0.08v-0.08c0,0,0-0.01,0-0.01V75.39c0-0.15,0.02-0.31,0.06-0.46c0.03-0.14,0.09-0.3,0.15-0.43
			s0.15-0.28,0.24-0.38c0.07-0.08,0.15-0.17,0.22-0.24c0.1-0.1,0.26-0.23,0.38-0.31c0.12-0.09,0.3-0.19,0.43-0.26
			c0.14-0.07,0.33-0.15,0.47-0.2c0.15-0.05,0.35-0.12,0.51-0.15c0.3-0.07,0.76-0.13,1.08-0.13c0.38-0.01,0.7,0.01,1.07,0.07
			c0.19,0.03,0.33,0.06,0.51,0.11C257.43,73.05,257.56,73.1,257.73,73.16z"/>
	</g>
	<path class="st0" d="M177.79,367.1c-0.19-0.43-0.53-0.78-0.91-1.05c-0.38-0.28-0.8-0.5-1.24-0.67l-79.2-30.73
		c-0.59-0.23-1.22-0.39-1.87-0.47c-1.29-0.16-2.57-0.04-3.84,0.36c-0.63,0.2-1.19,0.5-1.68,0.91l-38.8,32.72
		c-0.35,0.3-0.68,0.68-0.82,1.12c-0.06,0.19-0.09,0.38-0.08,0.58c0,0.27,0.06,0.55,0.17,0.8c0.19,0.43,0.53,0.77,0.91,1.05
		c0.38,0.28,0.8,0.5,1.24,0.67l79.2,30.73c0.59,0.23,1.22,0.39,1.87,0.47c1.29,0.16,2.57,0.03,3.84-0.37c0.63-0.2,1.19-0.5,1.68-0.9
		l38.8-32.72c0.35-0.3,0.68-0.68,0.82-1.12c0.06-0.18,0.08-0.37,0.08-0.57C177.95,367.64,177.89,367.36,177.79,367.1z"/>
	<g>
		<g>
			<path class="st18" d="M179.68,362.42v4.28c0,0.08-0.01,0.18-0.03,0.26c-0.07,0.39-0.22,0.74-0.48,1.03
				c-0.13,0.15-0.27,0.28-0.41,0.41l-38.8,32.72c-0.49,0.41-1.04,0.71-1.68,0.91c-1.27,0.4-2.55,0.52-3.84,0.37
				c-0.65-0.08-1.27-0.23-1.87-0.47v-4.3c0.59,0.23,1.22,0.39,1.87,0.47c1.29,0.16,2.57,0.03,3.84-0.37c0.63-0.2,1.19-0.5,1.68-0.9
				l38.8-32.72c0.35-0.3,0.68-0.68,0.82-1.12c0.06-0.18,0.08-0.37,0.08-0.57H179.68z"/>
			<path class="st16" d="M179.49,361.61c-0.19-0.43-0.53-0.78-0.91-1.05c-0.38-0.28-0.8-0.5-1.24-0.67l-79.2-30.73
				c-0.59-0.23-1.22-0.39-1.87-0.47c-1.29-0.16-2.57-0.04-3.84,0.36c-0.63,0.2-1.19,0.5-1.68,0.91l-38.8,32.72
				c-0.35,0.3-0.68,0.68-0.82,1.12c-0.06,0.19-0.09,0.38-0.08,0.58c0,0.27,0.06,0.55,0.17,0.8c0.19,0.43,0.53,0.77,0.91,1.05
				c0.38,0.28,0.8,0.5,1.24,0.67l79.2,30.73c0.59,0.23,1.22,0.39,1.87,0.47c1.29,0.16,2.57,0.03,3.84-0.37
				c0.63-0.2,1.19-0.5,1.68-0.9l38.8-32.72c0.35-0.3,0.68-0.68,0.82-1.12c0.06-0.18,0.08-0.37,0.08-0.57
				C179.66,362.14,179.6,361.86,179.49,361.61z M81.75,369.6c-0.64,0.2-1.27,0.26-1.92,0.18c-0.32-0.04-0.64-0.12-0.93-0.23
				l-13.2-5.12c-0.22-0.09-0.43-0.2-0.62-0.34c-0.15-0.11-0.28-0.24-0.38-0.39c-0.03-0.04-0.06-0.09-0.08-0.14
				c-0.09-0.21-0.11-0.47-0.04-0.69c0.07-0.22,0.23-0.41,0.41-0.56l29.85-25.17c0.24-0.2,0.52-0.35,0.83-0.46
				c0.64-0.2,1.27-0.26,1.92-0.18c0.32,0.04,0.64,0.12,0.93,0.23l13.2,5.12c0.22,0.08,0.43,0.19,0.62,0.33
				c0.19,0.14,0.36,0.32,0.45,0.53c0.09,0.22,0.11,0.47,0.04,0.69c-0.03,0.09-0.07,0.17-0.12,0.24c-0.08,0.12-0.18,0.22-0.29,0.32
				l-29.85,25.17C82.34,369.34,82.07,369.5,81.75,369.6z"/>
			<path class="st17" d="M112.84,343.42c-0.03,0.09-0.07,0.17-0.12,0.24c-0.06-0.09-0.13-0.17-0.2-0.24
				c-0.16-0.14-0.32-0.26-0.51-0.36c-0.09-0.05-0.19-0.09-0.29-0.12l-13.2-5.12v-1.08l13.2,5.12c0.22,0.08,0.43,0.19,0.62,0.33
				c0.19,0.14,0.36,0.32,0.45,0.53C112.89,342.94,112.91,343.19,112.84,343.42z"/>
			<path class="st14" d="M112.72,343.66c-0.08,0.12-0.18,0.22-0.29,0.32l-29.85,25.17c-0.24,0.2-0.52,0.36-0.84,0.46
				c-0.64,0.2-1.27,0.26-1.92,0.18c-0.32-0.04-0.64-0.12-0.93-0.23l-13.2-5.12c-0.22-0.09-0.43-0.2-0.62-0.34
				c-0.15-0.11-0.28-0.24-0.38-0.39c0.02-0.03,0.04-0.06,0.06-0.09c0.05-0.05,0.09-0.11,0.15-0.16c0.03-0.03,0.05-0.05,0.08-0.07
				l29.85-25.17c0.24-0.2,0.52-0.35,0.83-0.46c0.64-0.2,1.27-0.26,1.92-0.18c0.32,0.04,0.64,0.12,0.93,0.23l13.2,5.12
				c0.1,0.04,0.19,0.08,0.29,0.12c0.19,0.09,0.35,0.21,0.51,0.36C112.59,343.49,112.66,343.57,112.72,343.66z"/>
			<path class="st18" d="M98.52,336.74v1.08c-0.3-0.11-0.61-0.19-0.93-0.23c-0.65-0.08-1.28-0.02-1.92,0.18
				c-0.32,0.1-0.59,0.25-0.83,0.46l-29.85,25.17c-0.03,0.03-0.05,0.05-0.08,0.07c-0.05,0.05-0.1,0.1-0.15,0.16
				c-0.02,0.03-0.04,0.06-0.06,0.09c-0.03-0.04-0.06-0.09-0.08-0.14c-0.09-0.21-0.11-0.47-0.04-0.69c0.07-0.22,0.23-0.41,0.41-0.56
				l29.85-25.17c0.24-0.2,0.52-0.35,0.83-0.46c0.64-0.2,1.27-0.26,1.92-0.18C97.91,336.55,98.22,336.63,98.52,336.74z"/>
			<path class="st17" d="M132.58,397.64v4.3l-79.2-30.73c-0.47-0.18-0.92-0.42-1.33-0.73c-0.32-0.25-0.6-0.55-0.78-0.91
				c-0.14-0.27-0.22-0.57-0.22-0.87v-4.3h0.02c0,0.27,0.06,0.55,0.17,0.8c0.19,0.43,0.53,0.77,0.91,1.05
				c0.38,0.28,0.8,0.5,1.24,0.67L132.58,397.64z"/>
			<g>
				<path class="st5" d="M139.96,396.83c3.16-2.81,6.36-5.57,9.57-8.33l9.66-8.23l9.74-8.13l4.9-4.03l4.93-3.99l-4.77,4.19
					l-4.8,4.14l-9.66,8.22l-9.74,8.13C146.53,391.5,143.26,394.18,139.96,396.83z"/>
			</g>
			<g>
				<path class="st5" d="M64.98,362.31c2.42-2.18,4.87-4.31,7.33-6.44c2.46-2.13,4.95-4.22,7.42-6.34c2.5-2.08,4.99-4.18,7.5-6.25
					l3.78-3.09c1.27-1.02,2.53-2.05,3.81-3.05c-1.21,1.09-2.43,2.16-3.65,3.24l-3.68,3.2c-2.46,2.13-4.95,4.22-7.42,6.34
					c-2.5,2.08-4.99,4.18-7.5,6.25C70.06,358.24,67.54,360.3,64.98,362.31z"/>
			</g>
		</g>
		<g>
			<g>
				<path class="st8" d="M106.6,369.23c0,0.1-0.02,0.19-0.04,0.28c-0.07,0.22-0.23,0.41-0.41,0.56l-5.97,5.03
					c-0.25,0.21-0.52,0.36-0.84,0.46c-0.63,0.2-1.27,0.26-1.92,0.18c-0.32-0.04-0.64-0.11-0.93-0.23l-8.8-3.41
					c-0.22-0.08-0.43-0.19-0.62-0.34c-0.19-0.14-0.36-0.31-0.45-0.53c-0.06-0.12-0.08-0.26-0.08-0.39c0-0.1,0.01-0.2,0.04-0.29
					c0.07-0.22,0.23-0.41,0.41-0.56l5.97-5.04c0.25-0.2,0.52-0.36,0.84-0.45c0.63-0.2,1.27-0.26,1.92-0.18
					c0.32,0.04,0.64,0.11,0.93,0.23l8.8,3.41c0.22,0.09,0.43,0.19,0.62,0.34c0.19,0.14,0.36,0.31,0.45,0.53
					C106.58,368.95,106.6,369.09,106.6,369.23z"/>
				<path class="st7" d="M106.61,369.23v0.85c0,0.08-0.01,0.17-0.04,0.24c-0.05,0.17-0.13,0.31-0.24,0.43
					c-0.06,0.06-0.11,0.12-0.18,0.18l-5.97,5.03c-0.25,0.21-0.52,0.36-0.84,0.46c-0.63,0.2-1.27,0.26-1.92,0.19
					c-0.32-0.04-0.64-0.12-0.93-0.23v-0.86c0.3,0.12,0.61,0.2,0.93,0.23c0.65,0.08,1.29,0.02,1.92-0.18
					c0.32-0.1,0.59-0.25,0.84-0.46l5.97-5.03c0.17-0.15,0.33-0.34,0.41-0.56C106.59,369.42,106.6,369.33,106.61,369.23
					L106.61,369.23z"/>
				<path class="st9" d="M96.49,375.51v0.86l-8.8-3.42c-0.23-0.09-0.46-0.21-0.66-0.37c-0.16-0.12-0.3-0.27-0.39-0.46
					c-0.07-0.13-0.11-0.28-0.11-0.43v-0.86h0.01c0,0.13,0.03,0.27,0.08,0.39c0.09,0.22,0.27,0.39,0.45,0.53
					c0.19,0.14,0.4,0.25,0.62,0.34L96.49,375.51z"/>
				<g>
					<path class="st5" d="M106.16,370.08c-0.93,0.92-1.92,1.76-2.9,2.61c-1,0.83-2,1.66-3.07,2.42c0.92-0.92,1.92-1.76,2.9-2.61
						C104.09,371.67,105.09,370.84,106.16,370.08z"/>
				</g>
			</g>
			<g>
				<path class="st10" d="M118.56,359.18c0,0.1-0.02,0.19-0.04,0.28c-0.07,0.22-0.23,0.41-0.41,0.56l-5.97,5.03
					c-0.25,0.21-0.52,0.36-0.84,0.45c-0.63,0.2-1.27,0.26-1.92,0.18c-0.32-0.04-0.64-0.11-0.93-0.23l-8.8-3.41
					c-0.22-0.08-0.43-0.19-0.62-0.34c-0.19-0.14-0.36-0.31-0.45-0.53c-0.06-0.12-0.08-0.26-0.08-0.39c0-0.1,0.01-0.2,0.04-0.29
					c0.07-0.22,0.23-0.41,0.41-0.56l5.97-5.04c0.25-0.2,0.52-0.36,0.84-0.45c0.63-0.2,1.27-0.26,1.92-0.18
					c0.32,0.04,0.64,0.11,0.93,0.23l8.8,3.41c0.22,0.09,0.43,0.19,0.62,0.34c0.19,0.14,0.36,0.31,0.45,0.53
					C118.53,358.9,118.56,359.04,118.56,359.18z"/>
				<path class="st3" d="M118.55,359.16v0.85c0,0.08-0.01,0.17-0.04,0.24c-0.05,0.17-0.13,0.31-0.24,0.43
					c-0.06,0.06-0.11,0.12-0.18,0.18l-5.97,5.03c-0.25,0.21-0.52,0.36-0.84,0.46c-0.63,0.2-1.27,0.26-1.92,0.19
					c-0.32-0.04-0.64-0.12-0.93-0.23v-0.86c0.3,0.12,0.61,0.2,0.93,0.23c0.65,0.08,1.29,0.02,1.92-0.18
					c0.32-0.1,0.59-0.25,0.84-0.46l5.97-5.03c0.17-0.15,0.33-0.34,0.41-0.56C118.53,359.35,118.54,359.26,118.55,359.16
					L118.55,359.16z"/>
				<path class="st11" d="M108.43,365.45v0.86l-8.8-3.42c-0.23-0.09-0.46-0.21-0.66-0.37c-0.16-0.12-0.3-0.27-0.39-0.46
					c-0.07-0.13-0.11-0.28-0.11-0.43v-0.86h0.01c0,0.13,0.03,0.27,0.08,0.39c0.09,0.22,0.27,0.39,0.45,0.53
					c0.19,0.14,0.4,0.25,0.62,0.34L108.43,365.45z"/>
				<g>
					<path class="st5" d="M118.09,360.01c-0.93,0.92-1.92,1.76-2.9,2.61c-1,0.83-2,1.66-3.07,2.42c0.92-0.92,1.92-1.76,2.9-2.61
						C116.03,361.6,117.03,360.77,118.09,360.01z"/>
				</g>
			</g>
			<g>
				<path class="st10" d="M130.5,349.11c0,0.1-0.02,0.19-0.04,0.28c-0.07,0.22-0.23,0.41-0.41,0.56l-5.97,5.03
					c-0.25,0.21-0.52,0.36-0.84,0.45c-0.63,0.2-1.27,0.26-1.92,0.18c-0.32-0.04-0.64-0.11-0.93-0.23l-8.8-3.41
					c-0.22-0.08-0.43-0.19-0.62-0.34c-0.19-0.14-0.36-0.31-0.45-0.53c-0.06-0.12-0.08-0.26-0.08-0.39c0-0.1,0.01-0.2,0.04-0.29
					c0.07-0.22,0.23-0.41,0.41-0.56l5.97-5.04c0.25-0.2,0.52-0.36,0.84-0.46c0.63-0.2,1.27-0.26,1.92-0.18
					c0.32,0.04,0.64,0.11,0.93,0.23l8.8,3.41c0.22,0.09,0.43,0.19,0.62,0.34c0.19,0.14,0.36,0.31,0.45,0.53
					C130.47,348.83,130.5,348.97,130.5,349.11z"/>
				<path class="st3" d="M130.49,349.1v0.85c0,0.08-0.01,0.17-0.04,0.24c-0.05,0.17-0.13,0.31-0.24,0.43
					c-0.06,0.06-0.11,0.12-0.18,0.18l-5.97,5.03c-0.24,0.21-0.52,0.36-0.84,0.45c-0.63,0.2-1.27,0.26-1.92,0.19
					c-0.32-0.04-0.64-0.12-0.93-0.23v-0.86c0.3,0.12,0.61,0.2,0.93,0.23c0.65,0.08,1.29,0.02,1.92-0.18c0.32-0.1,0.6-0.25,0.84-0.46
					l5.97-5.03c0.17-0.15,0.33-0.34,0.41-0.56C130.47,349.29,130.48,349.19,130.49,349.1L130.49,349.1z"/>
				<path class="st11" d="M120.36,355.38v0.86l-8.8-3.42c-0.23-0.09-0.46-0.21-0.66-0.37c-0.16-0.12-0.3-0.27-0.39-0.46
					c-0.07-0.13-0.11-0.28-0.11-0.43v-0.86h0.01c0,0.13,0.03,0.27,0.08,0.39c0.09,0.22,0.27,0.39,0.45,0.53
					c0.19,0.14,0.4,0.25,0.62,0.34L120.36,355.38z"/>
				<g>
					<path class="st5" d="M130.03,349.94c-0.93,0.92-1.92,1.76-2.9,2.61c-1,0.83-2,1.66-3.07,2.42c0.92-0.92,1.92-1.76,2.9-2.61
						C127.97,351.53,128.97,350.7,130.03,349.94z"/>
				</g>
			</g>
			<g>
				<path class="st10" d="M124.22,376.07c0,0.1-0.02,0.19-0.04,0.28c-0.07,0.22-0.23,0.41-0.41,0.56l-5.97,5.03
					c-0.25,0.21-0.52,0.36-0.84,0.45c-0.63,0.2-1.27,0.26-1.92,0.18c-0.32-0.04-0.64-0.11-0.93-0.23l-8.8-3.41
					c-0.22-0.08-0.43-0.19-0.62-0.34c-0.19-0.14-0.36-0.31-0.45-0.53c-0.06-0.12-0.08-0.26-0.08-0.39c0-0.1,0.01-0.2,0.04-0.29
					c0.07-0.22,0.23-0.41,0.41-0.56l5.97-5.04c0.25-0.2,0.52-0.36,0.84-0.46c0.63-0.2,1.27-0.26,1.92-0.18
					c0.32,0.04,0.64,0.11,0.93,0.23l8.8,3.41c0.22,0.09,0.43,0.19,0.62,0.34c0.19,0.14,0.36,0.31,0.45,0.53
					C124.19,375.79,124.22,375.93,124.22,376.07z"/>
				<path class="st3" d="M124.21,376.06v0.85c0,0.08-0.01,0.17-0.04,0.24c-0.05,0.17-0.13,0.31-0.24,0.43
					c-0.06,0.06-0.11,0.12-0.18,0.18l-5.97,5.03c-0.25,0.21-0.52,0.36-0.84,0.46c-0.63,0.2-1.27,0.26-1.92,0.19
					c-0.32-0.04-0.64-0.12-0.93-0.23v-0.86c0.3,0.12,0.61,0.2,0.93,0.23c0.65,0.08,1.29,0.02,1.92-0.18c0.32-0.1,0.6-0.25,0.84-0.46
					l5.97-5.03c0.17-0.15,0.33-0.34,0.41-0.56C124.19,376.25,124.21,376.16,124.21,376.06L124.21,376.06z"/>
				<path class="st11" d="M114.09,382.34v0.86l-8.8-3.42c-0.23-0.09-0.46-0.21-0.66-0.37c-0.16-0.12-0.3-0.27-0.39-0.45
					c-0.07-0.13-0.11-0.28-0.11-0.43v-0.86h0.01c0,0.13,0.03,0.27,0.08,0.39c0.09,0.22,0.27,0.39,0.45,0.53
					c0.19,0.14,0.4,0.25,0.62,0.34L114.09,382.34z"/>
				<g>
					<path class="st5" d="M123.76,376.91c-0.93,0.92-1.92,1.76-2.9,2.61c-1,0.83-2,1.66-3.07,2.42c0.92-0.92,1.92-1.76,2.9-2.61
						C121.69,378.5,122.69,377.66,123.76,376.91z"/>
				</g>
			</g>
			<g>
				<path class="st10" d="M136.16,366.01c0,0.1-0.02,0.19-0.04,0.28c-0.07,0.22-0.23,0.41-0.41,0.56l-5.97,5.03
					c-0.25,0.21-0.52,0.36-0.84,0.45c-0.63,0.2-1.27,0.26-1.92,0.18c-0.32-0.04-0.64-0.11-0.93-0.23l-8.8-3.41
					c-0.22-0.08-0.43-0.19-0.62-0.34c-0.19-0.14-0.36-0.31-0.45-0.53c-0.06-0.12-0.08-0.26-0.08-0.39c0-0.1,0.01-0.2,0.04-0.29
					c0.07-0.22,0.23-0.41,0.41-0.56l5.97-5.04c0.25-0.2,0.52-0.36,0.84-0.46c0.63-0.2,1.27-0.26,1.92-0.18
					c0.32,0.04,0.64,0.11,0.93,0.23l8.8,3.41c0.22,0.09,0.43,0.19,0.62,0.34c0.19,0.14,0.36,0.31,0.45,0.53
					C136.13,365.73,136.16,365.87,136.16,366.01z"/>
				<path class="st3" d="M136.15,365.99v0.85c0,0.08-0.01,0.17-0.04,0.24c-0.05,0.17-0.13,0.31-0.24,0.43
					c-0.06,0.06-0.11,0.12-0.18,0.18l-5.97,5.03c-0.25,0.21-0.52,0.36-0.84,0.46c-0.63,0.2-1.27,0.26-1.92,0.19
					c-0.32-0.04-0.64-0.12-0.93-0.23v-0.86c0.3,0.12,0.61,0.2,0.93,0.23c0.65,0.08,1.29,0.02,1.92-0.18
					c0.32-0.1,0.59-0.25,0.84-0.46l5.97-5.03c0.17-0.15,0.33-0.34,0.41-0.56C136.13,366.18,136.14,366.09,136.15,365.99
					L136.15,365.99z"/>
				<path class="st11" d="M126.03,372.28v0.86l-8.8-3.42c-0.23-0.09-0.46-0.21-0.66-0.37c-0.16-0.12-0.3-0.27-0.39-0.46
					c-0.07-0.13-0.11-0.28-0.11-0.43v-0.86h0.01c0,0.13,0.03,0.27,0.08,0.39c0.09,0.22,0.27,0.39,0.45,0.53
					c0.19,0.14,0.4,0.25,0.62,0.34L126.03,372.28z"/>
				<g>
					<path class="st5" d="M135.69,366.84c-0.93,0.92-1.92,1.76-2.9,2.61c-1,0.83-2,1.66-3.07,2.42c0.92-0.92,1.92-1.76,2.9-2.61
						C133.63,368.43,134.63,367.6,135.69,366.84z"/>
				</g>
			</g>
			<g>
				<path class="st10" d="M148.1,355.94c0,0.1-0.02,0.19-0.04,0.28c-0.07,0.22-0.23,0.41-0.41,0.56l-5.97,5.03
					c-0.25,0.21-0.52,0.36-0.84,0.46c-0.63,0.2-1.27,0.26-1.92,0.18c-0.32-0.04-0.64-0.11-0.93-0.23l-8.8-3.41
					c-0.22-0.08-0.43-0.19-0.62-0.34c-0.19-0.14-0.36-0.31-0.45-0.53c-0.06-0.12-0.08-0.26-0.08-0.39c0-0.1,0.01-0.2,0.04-0.29
					c0.07-0.22,0.23-0.41,0.41-0.56l5.96-5.04c0.25-0.2,0.52-0.36,0.84-0.46c0.63-0.2,1.27-0.26,1.92-0.18
					c0.32,0.04,0.64,0.11,0.93,0.23l8.8,3.41c0.22,0.09,0.43,0.19,0.62,0.34c0.19,0.14,0.36,0.31,0.45,0.53
					C148.07,355.66,148.1,355.8,148.1,355.94z"/>
				<path class="st3" d="M148.09,355.92v0.85c0,0.08-0.01,0.17-0.04,0.24c-0.05,0.17-0.13,0.31-0.24,0.43
					c-0.06,0.06-0.11,0.12-0.18,0.18l-5.97,5.03c-0.25,0.21-0.52,0.36-0.84,0.46c-0.63,0.2-1.27,0.26-1.92,0.19
					c-0.32-0.04-0.64-0.12-0.93-0.23v-0.86c0.3,0.12,0.61,0.2,0.93,0.23c0.65,0.08,1.29,0.02,1.92-0.18
					c0.32-0.1,0.59-0.25,0.84-0.46l5.97-5.03c0.17-0.15,0.33-0.34,0.41-0.56C148.07,356.12,148.08,356.02,148.09,355.92
					L148.09,355.92z"/>
				<path class="st11" d="M137.96,362.21v0.86l-8.8-3.42c-0.23-0.09-0.46-0.21-0.66-0.37c-0.16-0.12-0.3-0.27-0.39-0.46
					c-0.07-0.13-0.11-0.28-0.11-0.43v-0.86h0.01c0,0.13,0.03,0.27,0.08,0.39c0.09,0.22,0.27,0.39,0.45,0.53
					c0.19,0.14,0.4,0.25,0.62,0.34L137.96,362.21z"/>
				<g>
					<path class="st5" d="M147.63,356.77c-0.93,0.92-1.92,1.76-2.9,2.61c-1,0.83-2,1.66-3.07,2.42c0.92-0.92,1.92-1.76,2.9-2.61
						C145.57,358.36,146.57,357.53,147.63,356.77z"/>
				</g>
			</g>
			<g>
				<path class="st10" d="M141.82,382.9c0,0.1-0.02,0.19-0.04,0.28c-0.07,0.22-0.23,0.41-0.41,0.56l-5.97,5.03
					c-0.25,0.21-0.52,0.36-0.84,0.46c-0.63,0.2-1.27,0.26-1.92,0.18c-0.32-0.04-0.64-0.11-0.93-0.23l-8.8-3.41
					c-0.22-0.08-0.43-0.19-0.62-0.34c-0.19-0.14-0.36-0.31-0.45-0.53c-0.06-0.12-0.08-0.26-0.08-0.39c0-0.1,0.01-0.2,0.04-0.29
					c0.07-0.22,0.23-0.41,0.41-0.56l5.97-5.04c0.25-0.2,0.52-0.36,0.84-0.46c0.63-0.2,1.27-0.26,1.92-0.18
					c0.32,0.04,0.64,0.11,0.93,0.23l8.8,3.41c0.22,0.09,0.43,0.19,0.62,0.34c0.19,0.14,0.36,0.31,0.45,0.53
					C141.79,382.62,141.82,382.76,141.82,382.9z"/>
				<path class="st3" d="M141.81,382.89v0.85c0,0.08-0.01,0.17-0.04,0.24c-0.05,0.17-0.13,0.31-0.24,0.43
					c-0.06,0.06-0.11,0.12-0.25,0.23l-5.97,5.03c-0.18,0.15-0.45,0.3-0.77,0.4c-0.63,0.2-1.27,0.26-1.92,0.19
					c-0.32-0.04-0.64-0.12-0.93-0.23v-0.86c0.3,0.12,0.61,0.2,0.93,0.23c0.65,0.08,1.29,0.02,1.92-0.18
					c0.32-0.1,0.59-0.25,0.84-0.46l5.97-5.03c0.17-0.15,0.33-0.34,0.41-0.56C141.79,383.08,141.81,382.98,141.81,382.89
					L141.81,382.89z"/>
				<path class="st11" d="M131.69,389.17v0.86l-8.8-3.42c-0.23-0.09-0.46-0.21-0.66-0.37c-0.16-0.12-0.3-0.27-0.39-0.46
					c-0.07-0.13-0.11-0.28-0.11-0.43v-0.86h0.01c0,0.13,0.03,0.27,0.08,0.39c0.09,0.22,0.27,0.39,0.45,0.53
					c0.19,0.14,0.4,0.25,0.62,0.34L131.69,389.17z"/>
				<g>
					<path class="st5" d="M141.36,383.73c-0.93,0.92-1.92,1.76-2.9,2.61c-1,0.83-2,1.66-3.07,2.42c0.92-0.92,1.92-1.76,2.9-2.61
						C139.29,385.32,140.29,384.49,141.36,383.73z"/>
				</g>
			</g>
			<g>
				<path class="st10" d="M153.76,372.83c0,0.1-0.02,0.19-0.04,0.28c-0.07,0.22-0.23,0.41-0.41,0.56l-5.97,5.03
					c-0.25,0.21-0.52,0.36-0.84,0.46c-0.63,0.2-1.27,0.26-1.92,0.18c-0.32-0.04-0.64-0.11-0.93-0.23l-8.8-3.41
					c-0.22-0.08-0.43-0.19-0.62-0.34c-0.19-0.14-0.36-0.31-0.45-0.53c-0.06-0.12-0.08-0.26-0.08-0.39c0-0.1,0.01-0.2,0.04-0.29
					c0.07-0.22,0.23-0.41,0.41-0.56l5.96-5.04c0.25-0.2,0.52-0.36,0.84-0.45c0.63-0.2,1.27-0.26,1.92-0.18
					c0.32,0.04,0.64,0.11,0.93,0.23l8.8,3.41c0.22,0.09,0.43,0.19,0.62,0.34c0.19,0.14,0.36,0.31,0.45,0.53
					C153.73,372.55,153.76,372.69,153.76,372.83z"/>
				<path class="st3" d="M153.75,372.82v0.85c0,0.08-0.01,0.17-0.04,0.24c-0.05,0.17-0.13,0.31-0.24,0.43
					c-0.06,0.06-0.11,0.12-0.18,0.18l-5.97,5.03c-0.25,0.21-0.52,0.36-0.84,0.45c-0.63,0.2-1.27,0.26-1.92,0.19
					c-0.32-0.04-0.64-0.12-0.93-0.23v-0.86c0.3,0.12,0.61,0.2,0.93,0.23c0.65,0.08,1.29,0.02,1.92-0.18
					c0.32-0.1,0.59-0.25,0.84-0.46l5.97-5.03c0.17-0.15,0.33-0.34,0.41-0.56C153.73,373.01,153.74,372.92,153.75,372.82
					L153.75,372.82z"/>
				<path class="st11" d="M143.63,379.1v0.86l-8.8-3.42c-0.23-0.09-0.46-0.21-0.66-0.37c-0.16-0.12-0.3-0.27-0.39-0.46
					c-0.07-0.13-0.11-0.28-0.11-0.43v-0.86h0.01c0,0.13,0.03,0.27,0.08,0.39c0.09,0.22,0.27,0.39,0.45,0.53
					c0.19,0.14,0.4,0.25,0.62,0.34L143.63,379.1z"/>
				<g>
					<path class="st5" d="M153.3,373.67c-0.93,0.92-1.92,1.76-2.9,2.61c-1,0.83-2,1.66-3.07,2.42c0.92-0.92,1.92-1.76,2.9-2.61
						C151.23,375.26,152.23,374.42,153.3,373.67z"/>
				</g>
			</g>
			<g>
				<path class="st10" d="M165.68,362.75c0,0.1-0.02,0.19-0.04,0.28c-0.07,0.22-0.23,0.41-0.41,0.56l-5.97,5.03
					c-0.25,0.21-0.52,0.36-0.84,0.45c-0.63,0.2-1.27,0.26-1.92,0.18c-0.32-0.04-0.64-0.11-0.93-0.23l-8.8-3.41
					c-0.22-0.08-0.43-0.19-0.62-0.34c-0.19-0.14-0.36-0.31-0.45-0.53c-0.06-0.12-0.08-0.26-0.08-0.39c0-0.1,0.01-0.2,0.04-0.29
					c0.07-0.22,0.23-0.41,0.41-0.56l5.96-5.04c0.25-0.2,0.52-0.36,0.84-0.45c0.63-0.2,1.27-0.26,1.92-0.18
					c0.32,0.04,0.64,0.11,0.93,0.23l8.8,3.41c0.22,0.09,0.43,0.19,0.62,0.34c0.19,0.14,0.36,0.31,0.45,0.53
					C165.66,362.47,165.68,362.61,165.68,362.75z"/>
				<path class="st3" d="M165.69,362.75v0.85c0,0.08-0.01,0.17-0.04,0.24c-0.05,0.17-0.13,0.31-0.24,0.43
					c-0.06,0.06-0.11,0.12-0.18,0.18l-5.97,5.03c-0.25,0.21-0.52,0.36-0.84,0.46c-0.63,0.2-1.27,0.26-1.92,0.19
					c-0.32-0.04-0.64-0.12-0.93-0.23v-0.86c0.3,0.12,0.61,0.2,0.93,0.23c0.65,0.08,1.29,0.02,1.92-0.18
					c0.32-0.1,0.59-0.25,0.84-0.45l5.97-5.03c0.17-0.15,0.33-0.34,0.41-0.56C165.67,362.94,165.68,362.85,165.69,362.75
					L165.69,362.75z"/>
				<path class="st11" d="M155.56,369.04v0.8l-8.8-3.42c-0.23-0.09-0.46-0.21-0.66-0.37c-0.16-0.12-0.3-0.27-0.39-0.45
					c-0.07-0.13-0.11-0.28-0.11-0.43v-0.86h0.01c0,0.13,0.03,0.27,0.08,0.39c0.09,0.22,0.27,0.39,0.45,0.53
					c0.19,0.14,0.4,0.25,0.62,0.4L155.56,369.04z"/>
				<g>
					<path class="st5" d="M165.23,363.6c-0.93,0.92-1.92,1.76-2.9,2.61c-1,0.83-2,1.66-3.07,2.42c0.92-0.92,1.92-1.76,2.9-2.61
						C163.17,365.19,164.17,364.36,165.23,363.6z"/>
				</g>
			</g>
		</g>
	</g>
	<g>
		<polygon class="st9" points="222.92,400.72 217.63,396.63 217.55,396.57 217.91,396.43 		"/>
		<polygon class="st9" points="228.41,398.52 223.12,394.42 223.04,394.37 223.4,394.22 		"/>
		<polygon class="st9" points="233.9,396.31 228.61,392.22 228.54,392.17 228.9,392.02 		"/>
		<polygon class="st9" points="239.39,394.11 234.1,390.01 234.03,389.96 234.39,389.81 		"/>
		<polygon class="st9" points="244.89,391.9 239.59,387.81 239.52,387.75 239.88,387.61 		"/>
		<polygon class="st9" points="250.38,389.69 245.09,385.6 245.02,385.54 245.38,385.4 		"/>
		<polygon class="st9" points="255.87,387.49 250.58,383.4 250.51,383.34 250.87,383.19 		"/>
		<polygon class="st9" points="261.37,385.29 256.07,381.19 255.99,381.14 256.37,380.99 		"/>
		<polygon class="st9" points="266.85,383.08 261.56,378.98 261.49,378.93 261.85,378.79 		"/>
		<polygon class="st9" points="272.35,380.87 267.05,376.78 266.98,376.72 267.34,376.58 		"/>
		<polygon class="st9" points="277.84,378.66 272.55,374.57 272.48,374.52 272.84,374.37 		"/>
		<polygon class="st9" points="283.33,376.46 278.04,372.37 277.97,372.31 278.33,372.16 		"/>
		<polygon class="st9" points="288.83,374.25 283.53,370.16 283.46,370.1 283.82,369.96 		"/>
		<polygon class="st9" points="294.32,372.05 289.03,367.96 288.95,367.9 289.32,367.75 		"/>
		<polygon class="st9" points="299.81,369.84 294.51,365.75 294.45,365.7 294.81,365.55 		"/>
		<polygon class="st9" points="305.3,367.64 300.01,363.54 299.93,363.49 300.31,363.34 		"/>
		<polygon class="st9" points="310.79,365.43 305.5,361.34 305.43,361.28 305.79,361.14 		"/>
		<polygon class="st9" points="316.29,363.22 310.99,359.14 310.92,359.07 311.28,358.93 		"/>
		<polygon class="st9" points="321.78,361.02 316.49,356.93 316.42,356.87 316.78,356.72 		"/>
		<polygon class="st9" points="327.27,358.82 321.98,354.72 321.91,354.67 322.27,354.52 		"/>
		<polygon class="st9" points="332.76,356.61 327.47,352.51 327.4,352.46 327.76,352.32 		"/>
		<polygon class="st9" points="338.25,354.4 332.96,350.31 332.89,350.25 333.25,350.11 		"/>
	</g>
	<g class="st19">
		<path class="st20" d="M283.93,226.75c-0.18,0-0.36-0.03-0.54-0.09l-56.22-18.56c-0.9-0.3-1.39-1.26-1.09-2.15
			c0.3-0.89,1.27-1.38,2.18-1.08l56.22,18.56c0.9,0.3,1.39,1.26,1.09,2.15C285.32,226.3,284.65,226.75,283.93,226.75z"/>
	</g>
	<g>
		<path class="st0" d="M395.79,262.23c0-1.79-0.28-3.59-0.81-5.29c-0.8-2.56-2.17-4.91-3.84-7.01c-2.24-2.79-5.01-5.12-8.02-7.08
			c-3.76-2.46-7.87-4.35-12.12-5.83c-5.1-1.76-10.4-2.92-15.75-3.57c-5.36-0.66-10.78-0.82-16.16-0.5
			c-5.38,0.32-10.74,1.12-15.97,2.49c-5.23,1.37-10.33,3.29-14.99,5.95l-9.09-5.19l-14.52,8.31l3.62,2.07l88.37,50.67l10.91-6.24
			l3.62-2.07l-3.76-2.27l-3.07-1.76c2.66-1.86,5.14-4.05,7.14-6.62c1.6-2.06,2.9-4.35,3.67-6.83c0.5-1.64,0.78-3.37,0.79-5.09v-4.15
			H395.79z M375.23,263.79c-0.02,0.15-0.05,0.31-0.08,0.46c0,0.01,0,0.01-0.01,0.02c-0.4,1.93-1.37,3.75-2.61,5.31
			c-1.69,2.11-3.9,3.77-6.22,5.1l-39.8-22.76l-0.01-0.01l-3.93-2.24c2.81-1.61,5.89-2.77,9.03-3.59c4.19-1.09,8.5-1.59,12.84-1.59
			c4.34,0.01,8.7,0.55,12.9,1.63c4.18,1.08,8.2,2.7,11.69,5.32c2.18,1.64,4.15,3.65,5.28,6.1
			C375.2,259.48,375.56,261.69,375.23,263.79z"/>
		<g>
			<path class="st16" d="M396.99,258.07c0-1.79-0.27-3.59-0.81-5.29c-0.8-2.56-2.17-4.91-3.84-7.01c-2.24-2.79-5.01-5.12-8.02-7.08
				c-3.76-2.46-7.87-4.35-12.12-5.83c-5.1-1.76-10.4-2.92-15.75-3.57c-5.36-0.66-10.78-0.82-16.16-0.5
				c-5.39,0.32-10.74,1.12-15.97,2.49c-5.23,1.37-10.33,3.29-14.99,5.95l-9.08-5.19l-14.52,8.31l3.62,2.07l87.18,49.87l10.91-6.24
				l3.62-2.07l-2.56-1.46l-3.07-1.76c2.66-1.86,5.14-4.05,7.14-6.62c1.6-2.06,2.9-4.35,3.67-6.83c0.5-1.64,0.78-3.37,0.79-5.09
				v-4.15H396.99z M376.43,259.64c-0.02,0.15-0.05,0.31-0.08,0.46c0,0.01,0,0.01-0.01,0.02c-0.4,1.93-1.37,3.75-2.61,5.31
				c-1.69,2.11-3.9,3.77-6.22,5.1l-39.8-22.76l-0.01-0.01l-3.93-2.24c2.81-1.61,5.89-2.77,9.03-3.59c4.19-1.09,8.5-1.59,12.84-1.59
				c4.34,0.01,8.7,0.55,12.89,1.63c4.18,1.08,8.2,2.7,11.69,5.32c2.18,1.64,4.15,3.65,5.28,6.1
				C376.4,255.32,376.76,257.54,376.43,259.64z"/>
			<path class="st18" d="M397,262.22v4.09c0,1.74-0.28,3.48-0.79,5.14c-0.77,2.48-3,5.7-4.6,7.76c-1.2,1.55-1.64,2.03-3.13,3.3
				l-3.07-1.76c2.66-1.86,5.14-4.05,7.14-6.62c1.6-2.06,2.9-4.35,3.67-6.83C396.71,265.67,396.99,263.94,397,262.22z"/>
			<polygon class="st18" points="391.03,283.98 391.03,288.14 376.5,296.45 376.5,292.3 			"/>
			<path class="st18" d="M376.43,259.64c-0.02,0.15-0.05,0.31-0.08,0.46c-0.43-2.09-1.55-4.05-2.94-5.72c-2-2.36-4.59-4.1-7.35-5.48
				c-3.46-1.72-7.19-2.88-10.99-3.58c-5.4-1-10.13-0.97-13.84-0.66c-4.64,0.38-9.24,1.36-13.51,3.09l-3.94-2.25
				c2.81-1.61,5.89-2.77,9.03-3.59c4.19-1.09,8.5-1.59,12.84-1.59c4.34,0.01,8.7,0.55,12.89,1.63c2.6,0.67,5.14,1.55,7.52,2.76
				c1.45,0.72,2.85,1.57,4.17,2.56c2.18,1.64,4.15,3.65,5.28,6.1C376.4,255.32,376.76,257.54,376.43,259.64z"/>
			<path class="st17" d="M376.43,259.55c-0.02,0.15-0.05,0.31-0.08,0.46c-0.43-2.09-1.55-4.05-2.94-5.72c-2-2.36-4.59-4.1-7.35-5.48
				v-4.18c1.45,0.72,2.85,1.57,4.17,2.56c2.18,1.64,4.15,3.65,5.28,6.1C376.4,255.24,376.76,257.45,376.43,259.55z"/>
			<g>
				<path class="st5" d="M366.05,244.72c-3.27-1.62-6.8-2.64-10.38-3.32c-3.58-0.68-7.24-0.97-10.87-0.89
					c-3.64,0.08-7.27,0.52-10.8,1.38c-3.45,0.84-6.83,2.06-9.9,3.82l-0.69-0.4l0.17-0.09c3.22-1.81,6.73-3.03,10.3-3.83
					c3.58-0.81,7.24-1.2,10.91-1.22c3.66-0.01,7.32,0.33,10.91,1.06C359.28,241.97,362.81,243.05,366.05,244.72z"/>
			</g>
			<g>
				<path class="st5" d="M397,262.28c0,1.87-0.3,3.74-0.89,5.53c-0.59,1.8-1.46,3.52-2.51,5.1c-2.09,3.15-4.88,5.78-7.95,8
					l-0.5-0.29l0.1-0.07c3.12-2.13,5.97-4.69,8.14-7.79c1.07-1.55,1.97-3.22,2.61-4.99C396.61,266.01,396.96,264.15,397,262.28z"/>
			</g>
			<g>
				<path class="st5" d="M376.5,292.3c1.15-0.78,2.33-1.51,3.52-2.24c1.19-0.73,2.39-1.43,3.6-2.13c1.22-0.69,2.43-1.38,3.67-2.03
					c1.23-0.66,2.47-1.31,3.74-1.91c-1.16,0.78-2.34,1.52-3.53,2.25c-1.18,0.73-2.39,1.43-3.6,2.12c-1.21,0.69-2.43,1.37-3.66,2.02
					C379.02,291.04,377.78,291.69,376.5,292.3z"/>
			</g>
		</g>
		<g>
			<polygon class="st21" points="370.34,289.12 375.99,286.09 370.54,289.4 			"/>
			<polygon class="st21" points="364.66,285.88 370.31,282.84 364.87,286.15 			"/>
			<polygon class="st21" points="358.99,282.63 364.64,279.6 359.19,282.91 			"/>
			<polygon class="st21" points="353.31,279.39 358.96,276.35 353.52,279.66 			"/>
			<polygon class="st21" points="347.64,276.14 353.29,273.1 347.84,276.41 			"/>
			<polygon class="st21" points="341.96,272.89 347.61,269.86 342.17,273.17 			"/>
			<polygon class="st21" points="336.29,269.65 341.94,266.61 336.49,269.92 			"/>
			<polygon class="st21" points="330.61,266.4 336.26,263.37 330.82,266.68 			"/>
			<polygon class="st21" points="324.94,263.16 330.59,260.12 325.14,263.43 			"/>
			<polygon class="st21" points="319.26,259.91 324.91,256.87 319.47,260.18 			"/>
			<polygon class="st21" points="313.59,256.66 319.24,253.63 313.79,256.94 			"/>
			<polygon class="st21" points="307.91,253.42 313.56,250.38 308.12,253.69 			"/>
			<polygon class="st21" points="302.24,250.17 307.89,247.14 302.44,250.45 			"/>
			<polygon class="st21" points="296.56,246.93 302.21,243.89 296.77,247.2 			"/>
			<polygon class="st21" points="290.88,243.68 296.54,240.64 291.09,243.95 			"/>
		</g>
		<polygon class="st17" points="376.5,292.21 376.5,296.36 285.7,244.42 285.7,240.27 		"/>
	</g>
	<polygon class="st0" points="171.25,210.76 94.85,254.46 225.66,332.21 302.06,288.51 	"/>
	<g>
		<polygon class="st3" points="302.11,281.07 302.01,287.25 225.6,330.95 225.71,324.77 		"/>
		<path class="st3" d="M176.62,206.55l-3.29,1.88c0.01,0.01,0.03,0.02,0.05,0.03c0.29,0.22,0.61,0.49,0.89,0.76
			c0.28,0.27,0.56,0.58,0.81,0.89c0.16,0.2,0.32,0.41,0.47,0.63c0.73-0.12,1.49-0.1,2.21,0.03c0.61,0.12,1.18,0.31,1.71,0.65
			c0.42,0.28,0.8,0.65,0.94,1.12c0.1,0.35,0.06,0.75-0.11,1.08c-0.17,0.33-0.45,0.59-0.76,0.79c-0.41,0.27-0.87,0.45-1.35,0.57
			c-0.27,0.07-0.55,0.12-0.83,0.14c-0.34,0.03-0.67,0.04-1.01,0.03c-0.19-0.01-0.37-0.03-0.56-0.05c-0.43-0.06-0.85-0.17-1.25-0.32
			c-0.46-0.18-0.9-0.42-1.25-0.77c-0.25-0.27-0.47-0.6-0.51-0.96c-0.05-0.35,0.08-0.74,0.28-1.04c0.21-0.31,0.63-0.6,0.94-0.78
			c-0.03-0.03-0.05-0.06-0.07-0.09c-0.25-0.31-0.54-0.62-0.8-0.88c-0.27-0.25-0.59-0.52-0.86-0.7c-0.14-0.1-0.3-0.18-0.45-0.27
			l-3.12,1.78l-1.51,0.86l-4.79,2.74c0.01,0.01,0.03,0.02,0.05,0.03c0.29,0.21,0.61,0.48,0.89,0.75c0.28,0.27,0.56,0.58,0.81,0.89
			c0.16,0.2,0.32,0.42,0.47,0.63h0.01c0.73-0.12,1.49-0.1,2.21,0.03c0.61,0.12,1.18,0.31,1.71,0.66c0.42,0.27,0.8,0.64,0.94,1.11
			c0.1,0.35,0.05,0.75-0.11,1.08c-0.17,0.33-0.45,0.59-0.76,0.79c-0.41,0.27-0.87,0.45-1.35,0.57c-0.27,0.07-0.55,0.12-0.83,0.14
			c-0.34,0.04-0.67,0.05-1.01,0.03c-0.19-0.01-0.37-0.03-0.56-0.05c-0.43-0.06-0.85-0.17-1.25-0.32c-0.46-0.18-0.9-0.41-1.25-0.77
			c-0.25-0.27-0.47-0.6-0.51-0.96c-0.05-0.35,0.08-0.74,0.28-1.04c0.21-0.31,0.62-0.59,0.94-0.78c-0.02-0.03-0.04-0.05-0.06-0.08
			c-0.25-0.31-0.54-0.63-0.8-0.89c-0.27-0.25-0.59-0.52-0.86-0.7c-0.14-0.1-0.3-0.18-0.45-0.27l-3.12,1.79l-1.51,0.86l-4.79,2.74
			c0.01,0.01,0.03,0.02,0.05,0.03c0.29,0.21,0.61,0.49,0.89,0.75c0.27,0.27,0.56,0.58,0.81,0.89c0.16,0.2,0.32,0.42,0.47,0.63
			c0.73-0.12,1.49-0.1,2.21,0.04c0.61,0.11,1.18,0.31,1.71,0.65c0.42,0.27,0.8,0.65,0.94,1.11c0.1,0.35,0.06,0.75-0.11,1.08
			c-0.17,0.33-0.45,0.59-0.76,0.79c-0.41,0.27-0.87,0.46-1.35,0.57c-0.27,0.07-0.55,0.12-0.83,0.14c-0.34,0.04-0.67,0.05-1.01,0.03
			c-0.19-0.01-0.37-0.03-0.56-0.05c-0.43-0.06-0.85-0.17-1.25-0.32c-0.46-0.17-0.9-0.41-1.25-0.76c-0.25-0.27-0.47-0.61-0.51-0.96
			c-0.05-0.36,0.08-0.74,0.28-1.05c0.21-0.31,0.61-0.59,0.94-0.78c-0.02-0.03-0.04-0.05-0.06-0.08c-0.25-0.31-0.54-0.63-0.8-0.89
			c-0.27-0.25-0.59-0.51-0.86-0.7c-0.14-0.1-0.3-0.19-0.45-0.27l-3.12,1.78l-1.51,0.86l-4.79,2.74c0.01,0.01,0.03,0.02,0.05,0.03
			c0.29,0.22,0.61,0.49,0.89,0.76c0.28,0.27,0.56,0.57,0.81,0.89c0.16,0.2,0.32,0.41,0.47,0.63c0.73-0.12,1.49-0.1,2.21,0.03
			c0.6,0.11,1.18,0.31,1.71,0.65c0.42,0.28,0.8,0.65,0.94,1.11c0.1,0.35,0.06,0.75-0.11,1.08c-0.17,0.33-0.45,0.58-0.76,0.78
			c-0.41,0.28-0.87,0.46-1.35,0.57c-0.28,0.07-0.55,0.12-0.83,0.14c-0.34,0.04-0.67,0.05-1.01,0.03c-0.19-0.01-0.37-0.03-0.56-0.05
			c-0.43-0.06-0.85-0.17-1.25-0.32c-0.46-0.17-0.9-0.41-1.25-0.76c-0.25-0.27-0.47-0.6-0.51-0.96c-0.05-0.36,0.08-0.74,0.28-1.05
			c0.21-0.31,0.61-0.59,0.94-0.78c-0.02-0.03-0.04-0.05-0.06-0.08c-0.25-0.31-0.54-0.63-0.8-0.88c-0.27-0.25-0.59-0.52-0.86-0.7
			c-0.14-0.1-0.3-0.19-0.45-0.27l-3.12,1.79l-1.51,0.87l-4.78,2.74c0.01,0.01,0.03,0.02,0.04,0.03c0.29,0.22,0.61,0.49,0.88,0.76
			c0.28,0.27,0.56,0.58,0.82,0.89c0.16,0.2,0.32,0.41,0.47,0.63c0.73-0.12,1.49-0.1,2.21,0.03c0.6,0.12,1.18,0.31,1.71,0.65
			c0.42,0.28,0.8,0.65,0.94,1.12c0.1,0.35,0.06,0.75-0.11,1.08c-0.17,0.33-0.45,0.59-0.76,0.79c-0.41,0.27-0.87,0.45-1.35,0.57
			c-0.28,0.07-0.55,0.12-0.83,0.14c-0.34,0.04-0.67,0.05-1.01,0.03c-0.19-0.01-0.37-0.03-0.56-0.05c-0.43-0.06-0.85-0.17-1.25-0.32
			c-0.46-0.18-0.9-0.41-1.25-0.77c-0.25-0.27-0.47-0.6-0.51-0.96c-0.05-0.35,0.08-0.74,0.28-1.04c0.21-0.31,0.62-0.6,0.94-0.78
			c-0.03-0.03-0.05-0.06-0.07-0.09c-0.25-0.31-0.54-0.62-0.8-0.88c-0.27-0.25-0.59-0.52-0.86-0.7c-0.14-0.1-0.3-0.18-0.45-0.27
			l-3.12,1.78l-1.51,0.86l-4.79,2.74c0.01,0.01,0.03,0.02,0.05,0.03c0.29,0.21,0.61,0.48,0.88,0.75c0.28,0.27,0.56,0.58,0.82,0.89
			c0.16,0.2,0.32,0.42,0.47,0.63h0.01c0.73-0.12,1.49-0.1,2.21,0.03c0.6,0.12,1.18,0.31,1.71,0.66c0.42,0.27,0.8,0.65,0.94,1.11
			c0.1,0.35,0.05,0.75-0.11,1.08c-0.16,0.33-0.45,0.59-0.76,0.79c-0.41,0.27-0.87,0.45-1.35,0.57c-0.27,0.07-0.55,0.12-0.83,0.14
			c-0.34,0.04-0.67,0.05-1.01,0.03c-0.19-0.01-0.37-0.03-0.56-0.05c-0.43-0.06-0.85-0.17-1.25-0.32c-0.46-0.18-0.9-0.41-1.25-0.77
			c-0.25-0.27-0.47-0.6-0.51-0.95c-0.05-0.36,0.08-0.74,0.28-1.05c0.21-0.31,0.63-0.59,0.94-0.77c-0.02-0.03-0.05-0.06-0.07-0.09
			c-0.25-0.31-0.54-0.63-0.8-0.89c-0.27-0.25-0.59-0.51-0.87-0.7c-0.14-0.1-0.29-0.18-0.44-0.27l-3.12,1.79l-1.51,0.86l-4.79,2.74
			c0.01,0.01,0.03,0.02,0.05,0.03c0.29,0.21,0.61,0.49,0.88,0.75c0.28,0.27,0.56,0.58,0.82,0.89c0.16,0.2,0.32,0.42,0.47,0.63
			c0.73-0.11,1.49-0.1,2.21,0.04c0.6,0.11,1.18,0.31,1.71,0.65c0.42,0.27,0.8,0.65,0.94,1.11c0.1,0.35,0.06,0.75-0.11,1.08
			c-0.17,0.33-0.45,0.59-0.76,0.79c-0.41,0.27-0.87,0.46-1.35,0.57c-0.27,0.07-0.55,0.12-0.83,0.14c-0.34,0.04-0.67,0.05-1.01,0.03
			c-0.19-0.01-0.37-0.03-0.56-0.05c-0.43-0.06-0.85-0.17-1.25-0.32c-0.46-0.17-0.9-0.41-1.25-0.76c-0.25-0.27-0.47-0.61-0.51-0.96
			c-0.05-0.36,0.08-0.74,0.28-1.05c0.21-0.31,0.52-0.53,0.83-0.72l0.11-0.05c-0.02-0.03-0.04-0.07-0.07-0.1
			c-0.25-0.31-0.54-0.63-0.8-0.88c-0.27-0.26-0.59-0.52-0.87-0.7c-0.14-0.1-0.29-0.19-0.44-0.27l-3.12,1.78l-1.51,0.86l-1.49,0.86
			l125.49,74.52l76.4-43.7L176.62,206.55z"/>
		<polygon class="st11" points="225.71,324.77 225.6,330.95 100.11,256.43 100.22,250.25 		"/>
		<path class="st11" d="M180.3,213.62c-0.17,0.33-0.45,0.59-0.76,0.79c-0.41,0.27-0.87,0.45-1.35,0.57
			c-0.27,0.07-0.55,0.12-0.83,0.14c-0.09-0.63-0.24-1.2-0.48-1.87c-0.14-0.37-0.3-0.74-0.48-1.1c-0.18-0.36-0.39-0.72-0.61-1.06
			c-0.08-0.12-0.16-0.24-0.24-0.35c0.73-0.12,1.49-0.1,2.21,0.03c0.61,0.12,1.18,0.31,1.71,0.65c0.42,0.28,0.8,0.65,0.94,1.12
			C180.51,212.89,180.46,213.3,180.3,213.62z"/>
		<path class="st6" d="M177.35,215.13c-0.34,0.03-0.67,0.04-1.01,0.03c-0.19-0.01-0.37-0.03-0.56-0.05
			c-0.05-0.26-0.11-0.5-0.19-0.78c-0.11-0.37-0.24-0.72-0.41-1.09c-0.17-0.37-0.35-0.73-0.56-1.08c-0.19-0.31-0.41-0.63-0.63-0.92
			c-0.03-0.03-0.05-0.06-0.07-0.09c-0.25-0.31-0.54-0.62-0.8-0.88c-0.27-0.25-0.59-0.52-0.86-0.7c-0.14-0.1-0.3-0.18-0.45-0.27
			c-0.13-0.08-0.26-0.14-0.38-0.19c-0.25-0.1-0.52-0.18-0.74-0.22c-0.21-0.03-0.45-0.04-0.62-0.01c-0.17,0.03-0.36,0.09-0.5,0.16
			c-0.05,0.03-0.09,0.05-0.13,0.09c-0.14,0.12-0.25,0.22-0.36,0.41c-0.12,0.18-0.2,0.37-0.28,0.63c-0.07,0.26-0.1,0.52-0.12,0.85
			v0.06l-1.51,0.86c-0.01-0.1-0.02-0.21-0.03-0.31c-0.02-0.37-0.02-0.69,0.01-1.04c0.03-0.35,0.1-0.66,0.19-0.97
			c0.1-0.32,0.21-0.57,0.38-0.84c0.17-0.27,0.33-0.48,0.56-0.68c0.23-0.2,0.44-0.35,0.72-0.48c0.24-0.11,0.55-0.2,0.82-0.25
			c0.27-0.04,0.61-0.04,0.88-0.01c0.28,0.03,0.6,0.1,0.88,0.19c0.55,0.17,1.18,0.51,1.72,0.89c0.01,0.01,0.03,0.02,0.05,0.03
			c0.29,0.22,0.61,0.49,0.89,0.76c0.28,0.27,0.56,0.58,0.81,0.89c0.16,0.2,0.32,0.41,0.47,0.63c0.08,0.12,0.17,0.23,0.24,0.35
			c0.22,0.35,0.43,0.7,0.61,1.06c0.19,0.37,0.34,0.73,0.48,1.1C177.11,213.93,177.26,214.5,177.35,215.13z"/>
		<path class="st11" d="M175.78,215.1c-0.43-0.06-0.85-0.17-1.25-0.32c-0.46-0.18-0.9-0.42-1.25-0.77c-0.25-0.27-0.47-0.6-0.51-0.96
			c-0.05-0.35,0.08-0.74,0.28-1.04c0.21-0.31,0.63-0.6,0.94-0.78c0.22,0.29,0.44,0.61,0.63,0.92c0.21,0.35,0.4,0.71,0.56,1.08
			c0.17,0.37,0.3,0.72,0.41,1.09C175.67,214.6,175.74,214.84,175.78,215.1z"/>
		<path class="st6" d="M166.44,221.37c-0.34,0.04-0.67,0.05-1.01,0.03c-0.19-0.01-0.37-0.03-0.56-0.05
			c-0.05-0.25-0.11-0.5-0.19-0.78c-0.11-0.37-0.24-0.72-0.41-1.09c-0.17-0.37-0.35-0.73-0.56-1.08c-0.19-0.32-0.41-0.63-0.63-0.92
			h-0.01c-0.02-0.03-0.04-0.05-0.06-0.08c-0.25-0.31-0.54-0.63-0.8-0.89c-0.27-0.25-0.59-0.52-0.86-0.7
			c-0.14-0.1-0.3-0.18-0.45-0.27c-0.13-0.08-0.26-0.14-0.38-0.19c-0.25-0.1-0.52-0.18-0.74-0.22c-0.21-0.03-0.45-0.03-0.62-0.01
			c-0.17,0.03-0.36,0.09-0.5,0.17c-0.05,0.03-0.09,0.05-0.13,0.09c-0.14,0.11-0.25,0.22-0.36,0.4c-0.12,0.18-0.2,0.37-0.27,0.64
			c-0.07,0.26-0.1,0.52-0.12,0.84v0.06l-1.51,0.86c-0.01-0.1-0.02-0.2-0.03-0.31c-0.02-0.36-0.02-0.69,0.01-1.04
			c0.03-0.35,0.1-0.66,0.19-0.97c0.1-0.32,0.21-0.57,0.38-0.84c0.17-0.27,0.33-0.48,0.56-0.68c0.23-0.2,0.44-0.35,0.72-0.48
			c0.24-0.12,0.55-0.21,0.82-0.25c0.27-0.03,0.61-0.04,0.88-0.01c0.28,0.03,0.6,0.1,0.88,0.19c0.55,0.17,1.18,0.52,1.72,0.9
			c0.01,0.01,0.03,0.02,0.05,0.03c0.29,0.21,0.61,0.48,0.89,0.75c0.28,0.27,0.56,0.58,0.81,0.89c0.16,0.2,0.32,0.42,0.47,0.63
			c0.09,0.12,0.17,0.24,0.25,0.36c0.22,0.34,0.43,0.69,0.61,1.06c0.19,0.36,0.34,0.72,0.48,1.1
			C166.2,220.17,166.35,220.74,166.44,221.37z"/>
		<path class="st11" d="M169.38,219.86c-0.17,0.33-0.45,0.59-0.76,0.79c-0.41,0.27-0.87,0.45-1.35,0.57
			c-0.27,0.07-0.55,0.12-0.83,0.14c-0.09-0.63-0.24-1.2-0.48-1.87c-0.14-0.37-0.3-0.74-0.48-1.1c-0.18-0.37-0.39-0.72-0.61-1.06
			c-0.08-0.12-0.16-0.25-0.25-0.36h0.01c0.73-0.12,1.49-0.1,2.21,0.03c0.61,0.12,1.18,0.31,1.71,0.66c0.42,0.27,0.8,0.64,0.94,1.11
			C169.6,219.13,169.55,219.54,169.38,219.86z"/>
		<path class="st11" d="M164.87,221.34c-0.43-0.06-0.85-0.17-1.25-0.32c-0.46-0.18-0.9-0.41-1.25-0.77
			c-0.25-0.27-0.47-0.6-0.51-0.96c-0.05-0.35,0.08-0.74,0.28-1.04c0.21-0.31,0.62-0.59,0.94-0.78h0.01c0.22,0.29,0.44,0.6,0.63,0.92
			c0.21,0.35,0.4,0.71,0.56,1.08c0.17,0.37,0.3,0.72,0.41,1.09C164.76,220.84,164.82,221.09,164.87,221.34z"/>
		<path class="st11" d="M158.47,226.1c-0.17,0.33-0.45,0.59-0.76,0.79c-0.41,0.27-0.87,0.46-1.35,0.57
			c-0.27,0.07-0.55,0.12-0.83,0.14c-0.09-0.63-0.24-1.2-0.48-1.86c-0.14-0.38-0.3-0.74-0.48-1.1c-0.18-0.37-0.39-0.72-0.61-1.06
			c-0.08-0.12-0.16-0.24-0.24-0.36c0.73-0.12,1.49-0.1,2.21,0.04c0.61,0.11,1.18,0.31,1.71,0.65c0.42,0.27,0.8,0.65,0.94,1.11
			C158.68,225.37,158.63,225.78,158.47,226.1z"/>
		<path class="st6" d="M155.52,227.61c-0.34,0.04-0.67,0.05-1.01,0.03c-0.19-0.01-0.37-0.03-0.56-0.05
			c-0.05-0.25-0.11-0.5-0.19-0.78c-0.1-0.37-0.23-0.72-0.4-1.09c-0.17-0.37-0.35-0.73-0.56-1.08c-0.19-0.32-0.41-0.64-0.64-0.93
			c-0.02-0.03-0.04-0.05-0.06-0.08c-0.25-0.31-0.54-0.63-0.8-0.89c-0.27-0.25-0.59-0.51-0.86-0.7c-0.14-0.1-0.3-0.19-0.45-0.27
			c-0.13-0.07-0.26-0.14-0.38-0.18c-0.25-0.11-0.52-0.18-0.74-0.22c-0.21-0.03-0.45-0.03-0.62-0.01c-0.17,0.03-0.36,0.1-0.5,0.17
			c-0.05,0.03-0.09,0.05-0.13,0.09c-0.14,0.11-0.25,0.22-0.36,0.4c-0.12,0.18-0.2,0.37-0.27,0.64c-0.07,0.26-0.1,0.52-0.12,0.84
			v0.06l-1.51,0.86c-0.01-0.1-0.02-0.2-0.03-0.31c-0.02-0.36-0.02-0.7,0.01-1.04c0.03-0.35,0.1-0.66,0.19-0.97
			c0.1-0.32,0.21-0.57,0.38-0.84c0.17-0.27,0.33-0.47,0.56-0.68c0.23-0.2,0.44-0.35,0.72-0.48c0.24-0.12,0.55-0.2,0.82-0.25
			c0.27-0.04,0.61-0.05,0.88-0.02c0.28,0.03,0.6,0.1,0.88,0.19c0.55,0.18,1.18,0.52,1.72,0.9c0.01,0.01,0.03,0.02,0.05,0.03
			c0.29,0.21,0.61,0.49,0.89,0.75c0.27,0.27,0.56,0.58,0.81,0.89c0.16,0.2,0.32,0.42,0.47,0.63c0.08,0.12,0.17,0.24,0.24,0.36
			c0.22,0.34,0.43,0.7,0.61,1.06c0.19,0.36,0.34,0.72,0.48,1.1C155.28,226.41,155.43,226.98,155.52,227.61z"/>
		<path class="st11" d="M153.96,227.58c-0.43-0.06-0.85-0.17-1.25-0.32c-0.46-0.17-0.9-0.41-1.25-0.76
			c-0.25-0.27-0.47-0.61-0.51-0.96c-0.05-0.36,0.08-0.74,0.28-1.05c0.21-0.31,0.61-0.59,0.94-0.78c0.23,0.29,0.45,0.61,0.64,0.93
			c0.21,0.35,0.4,0.71,0.56,1.08c0.17,0.37,0.3,0.72,0.4,1.09C153.85,227.09,153.91,227.33,153.96,227.58z"/>
		<path class="st11" d="M147.55,232.35c-0.17,0.33-0.45,0.58-0.76,0.78c-0.41,0.28-0.87,0.46-1.35,0.57
			c-0.28,0.07-0.55,0.12-0.83,0.14c-0.09-0.63-0.24-1.19-0.48-1.86c-0.14-0.37-0.3-0.74-0.48-1.1c-0.18-0.36-0.39-0.72-0.61-1.06
			c-0.08-0.12-0.16-0.24-0.24-0.35c0.73-0.12,1.49-0.1,2.21,0.03c0.6,0.11,1.18,0.31,1.71,0.65c0.42,0.28,0.8,0.65,0.94,1.11
			C147.77,231.62,147.72,232.02,147.55,232.35z"/>
		<path class="st11" d="M143.04,233.82c-0.43-0.06-0.85-0.17-1.25-0.32c-0.46-0.17-0.9-0.41-1.25-0.76
			c-0.25-0.27-0.47-0.6-0.51-0.96c-0.05-0.36,0.08-0.74,0.28-1.05c0.21-0.31,0.61-0.59,0.94-0.78c0.23,0.29,0.45,0.61,0.64,0.93
			c0.21,0.35,0.4,0.71,0.56,1.08c0.17,0.37,0.3,0.72,0.4,1.09C142.93,233.33,142.99,233.57,143.04,233.82z"/>
		<path class="st6" d="M144.61,233.85c-0.34,0.04-0.67,0.05-1.01,0.03c-0.19-0.01-0.37-0.03-0.56-0.05
			c-0.05-0.25-0.11-0.5-0.19-0.78c-0.1-0.37-0.23-0.72-0.4-1.09c-0.17-0.37-0.35-0.73-0.56-1.08c-0.19-0.32-0.41-0.64-0.64-0.93
			c-0.02-0.03-0.04-0.05-0.06-0.08c-0.25-0.31-0.54-0.63-0.8-0.88c-0.27-0.25-0.59-0.52-0.86-0.7c-0.14-0.1-0.3-0.19-0.45-0.27
			c-0.13-0.07-0.26-0.14-0.38-0.18c-0.25-0.11-0.52-0.18-0.74-0.22c-0.21-0.03-0.45-0.04-0.62-0.01c-0.17,0.02-0.36,0.09-0.5,0.16
			c-0.05,0.03-0.09,0.05-0.13,0.09c-0.14,0.11-0.25,0.22-0.36,0.4c-0.12,0.19-0.2,0.37-0.27,0.64c-0.07,0.26-0.1,0.52-0.12,0.84
			v0.06l-1.51,0.87c-0.01-0.1-0.02-0.21-0.03-0.31c-0.02-0.37-0.02-0.69,0.01-1.04c0.03-0.35,0.1-0.67,0.19-0.97
			c0.1-0.32,0.21-0.57,0.38-0.85c0.17-0.27,0.33-0.47,0.56-0.68c0.23-0.2,0.44-0.35,0.72-0.48c0.24-0.12,0.55-0.2,0.82-0.25
			c0.27-0.04,0.6-0.05,0.88-0.01c0.28,0.03,0.6,0.1,0.88,0.19c0.55,0.17,1.18,0.51,1.72,0.89c0.01,0.01,0.03,0.02,0.05,0.03
			c0.29,0.22,0.61,0.49,0.89,0.76c0.28,0.27,0.56,0.57,0.81,0.89c0.16,0.2,0.32,0.41,0.47,0.63c0.08,0.12,0.17,0.23,0.24,0.35
			c0.22,0.34,0.43,0.7,0.61,1.06c0.19,0.37,0.34,0.73,0.48,1.1C144.37,232.66,144.52,233.22,144.61,233.85z"/>
		<path class="st11" d="M136.64,238.59c-0.17,0.33-0.45,0.59-0.76,0.79c-0.41,0.27-0.87,0.45-1.35,0.57
			c-0.28,0.07-0.55,0.12-0.83,0.14c-0.09-0.63-0.24-1.2-0.48-1.87c-0.14-0.37-0.3-0.74-0.48-1.1c-0.18-0.36-0.39-0.72-0.61-1.06
			c-0.08-0.12-0.16-0.24-0.24-0.35c0.73-0.12,1.49-0.1,2.21,0.03c0.6,0.12,1.18,0.31,1.71,0.65c0.42,0.28,0.8,0.65,0.94,1.12
			C136.85,237.86,136.8,238.27,136.64,238.59z"/>
		<path class="st6" d="M133.7,240.1c-0.34,0.04-0.67,0.05-1.01,0.03c-0.19-0.01-0.37-0.03-0.56-0.05c-0.05-0.26-0.11-0.5-0.19-0.78
			c-0.1-0.37-0.23-0.72-0.4-1.09c-0.16-0.37-0.35-0.73-0.56-1.08c-0.19-0.31-0.41-0.63-0.63-0.92c-0.03-0.03-0.05-0.06-0.07-0.09
			c-0.25-0.31-0.54-0.62-0.8-0.88c-0.27-0.25-0.59-0.52-0.86-0.7c-0.14-0.1-0.3-0.18-0.45-0.27c-0.13-0.08-0.26-0.14-0.38-0.19
			c-0.25-0.1-0.52-0.18-0.74-0.22c-0.21-0.03-0.45-0.04-0.62-0.01c-0.17,0.03-0.36,0.09-0.5,0.16c-0.05,0.03-0.09,0.06-0.13,0.09
			c-0.14,0.12-0.25,0.22-0.36,0.41c-0.12,0.18-0.2,0.37-0.28,0.63c-0.07,0.26-0.1,0.52-0.12,0.85v0.06l-1.51,0.86
			c-0.01-0.1-0.02-0.21-0.03-0.31c-0.02-0.37-0.02-0.69,0.01-1.04c0.03-0.35,0.1-0.66,0.19-0.97c0.1-0.32,0.21-0.57,0.38-0.84
			c0.16-0.27,0.33-0.48,0.56-0.68c0.23-0.2,0.44-0.35,0.72-0.48c0.24-0.11,0.55-0.2,0.82-0.25c0.27-0.04,0.6-0.04,0.88-0.01
			c0.28,0.03,0.6,0.1,0.88,0.19c0.55,0.17,1.19,0.51,1.73,0.9c0.01,0.01,0.03,0.02,0.04,0.03c0.29,0.22,0.61,0.49,0.88,0.76
			c0.28,0.27,0.56,0.58,0.82,0.89c0.16,0.2,0.32,0.41,0.47,0.63c0.08,0.12,0.17,0.23,0.24,0.35c0.22,0.35,0.43,0.7,0.61,1.06
			c0.19,0.37,0.34,0.73,0.48,1.1C133.45,238.9,133.61,239.47,133.7,240.1z"/>
		<path class="st11" d="M132.13,240.07c-0.43-0.06-0.85-0.17-1.25-0.32c-0.46-0.18-0.9-0.41-1.25-0.77
			c-0.25-0.27-0.47-0.6-0.51-0.96c-0.05-0.35,0.08-0.74,0.28-1.04c0.21-0.31,0.62-0.6,0.94-0.78c0.22,0.29,0.44,0.61,0.63,0.92
			c0.21,0.35,0.4,0.71,0.56,1.08c0.17,0.37,0.3,0.72,0.4,1.09C132.02,239.57,132.08,239.81,132.13,240.07z"/>
		<path class="st6" d="M122.78,246.34c-0.34,0.04-0.67,0.05-1.01,0.03c-0.19-0.01-0.37-0.03-0.56-0.05
			c-0.05-0.25-0.11-0.5-0.19-0.78c-0.1-0.37-0.23-0.72-0.4-1.09c-0.17-0.37-0.35-0.73-0.56-1.08c-0.19-0.31-0.41-0.63-0.63-0.91
			c-0.02-0.03-0.05-0.06-0.07-0.09c-0.25-0.31-0.54-0.63-0.8-0.89c-0.27-0.25-0.59-0.51-0.87-0.7c-0.14-0.1-0.29-0.18-0.44-0.27
			c-0.13-0.07-0.26-0.14-0.38-0.19c-0.25-0.1-0.52-0.18-0.74-0.22c-0.21-0.03-0.45-0.03-0.62-0.01c-0.17,0.03-0.36,0.09-0.5,0.17
			c-0.05,0.03-0.09,0.05-0.13,0.09c-0.14,0.11-0.25,0.22-0.36,0.4c-0.12,0.18-0.2,0.37-0.28,0.64c-0.07,0.26-0.11,0.52-0.12,0.84
			v0.06l-1.51,0.86c-0.01-0.1-0.02-0.2-0.03-0.31c-0.02-0.36-0.02-0.69,0.01-1.04c0.03-0.35,0.1-0.66,0.19-0.97
			c0.1-0.32,0.21-0.57,0.38-0.84c0.17-0.27,0.33-0.48,0.56-0.68c0.23-0.2,0.44-0.35,0.72-0.48c0.24-0.12,0.55-0.2,0.82-0.25
			c0.27-0.03,0.6-0.04,0.88-0.01c0.28,0.03,0.6,0.1,0.88,0.19c0.55,0.18,1.18,0.52,1.72,0.9c0.01,0.01,0.03,0.02,0.05,0.03
			c0.29,0.21,0.61,0.48,0.88,0.75c0.28,0.27,0.56,0.58,0.82,0.89c0.16,0.2,0.32,0.42,0.47,0.63c0.09,0.12,0.17,0.24,0.25,0.36
			c0.22,0.34,0.43,0.69,0.6,1.06c0.19,0.36,0.34,0.72,0.48,1.1C122.54,245.14,122.69,245.71,122.78,246.34z"/>
		<path class="st11" d="M125.72,244.83c-0.16,0.33-0.45,0.59-0.76,0.79c-0.41,0.27-0.87,0.45-1.35,0.57
			c-0.27,0.07-0.55,0.12-0.83,0.14c-0.09-0.63-0.24-1.2-0.48-1.87c-0.14-0.37-0.3-0.74-0.48-1.1c-0.18-0.37-0.39-0.72-0.6-1.06
			c-0.08-0.12-0.16-0.25-0.25-0.36h0.01c0.73-0.12,1.49-0.1,2.21,0.03c0.6,0.12,1.18,0.31,1.71,0.66c0.42,0.27,0.8,0.65,0.94,1.11
			C125.94,244.1,125.89,244.51,125.72,244.83z"/>
		<path class="st11" d="M121.21,246.31c-0.43-0.06-0.85-0.17-1.25-0.32c-0.46-0.18-0.9-0.41-1.25-0.77
			c-0.25-0.27-0.47-0.6-0.51-0.95c-0.05-0.36,0.08-0.74,0.28-1.05c0.21-0.31,0.63-0.59,0.94-0.77c0.22,0.28,0.44,0.6,0.63,0.91
			c0.21,0.35,0.4,0.72,0.56,1.08c0.17,0.37,0.3,0.72,0.4,1.09C121.1,245.81,121.16,246.06,121.21,246.31z"/>
		<path class="st11" d="M114.81,251.07c-0.17,0.33-0.45,0.59-0.76,0.79c-0.41,0.27-0.87,0.46-1.35,0.57
			c-0.27,0.07-0.55,0.12-0.83,0.14c-0.09-0.62-0.24-1.2-0.48-1.86c-0.14-0.37-0.3-0.74-0.48-1.1c-0.18-0.36-0.39-0.72-0.61-1.06
			c-0.08-0.12-0.16-0.24-0.24-0.36c0.73-0.11,1.49-0.1,2.21,0.04c0.6,0.11,1.18,0.31,1.71,0.65c0.42,0.27,0.8,0.65,0.94,1.11
			C115.02,250.35,114.98,250.75,114.81,251.07z"/>
		<path class="st11" d="M110.3,252.55c-0.43-0.06-0.85-0.17-1.25-0.32c-0.46-0.17-0.9-0.41-1.25-0.76
			c-0.25-0.27-0.47-0.61-0.51-0.96c-0.05-0.36,0.08-0.74,0.28-1.05c0.21-0.31,0.52-0.53,0.83-0.72l0.11-0.05
			c0.23,0.29,0.44,0.6,0.63,0.91c0.21,0.35,0.4,0.71,0.56,1.08s0.3,0.72,0.4,1.09C110.19,252.06,110.25,252.3,110.3,252.55z"/>
		<path class="st6" d="M111.87,252.58c-0.34,0.04-0.67,0.05-1.01,0.03c-0.19-0.01-0.37-0.03-0.56-0.05
			c-0.05-0.25-0.11-0.5-0.19-0.78c-0.1-0.37-0.23-0.72-0.4-1.09s-0.35-0.73-0.56-1.08c-0.19-0.31-0.41-0.63-0.63-0.91
			c-0.02-0.03-0.04-0.07-0.07-0.1c-0.25-0.31-0.54-0.63-0.8-0.88c-0.27-0.26-0.59-0.52-0.87-0.7c-0.14-0.1-0.29-0.19-0.44-0.27
			c-0.13-0.07-0.26-0.14-0.38-0.18c-0.25-0.11-0.52-0.18-0.74-0.22c-0.21-0.04-0.45-0.04-0.62-0.01c-0.17,0.02-0.36,0.09-0.5,0.16
			c-0.05,0.03-0.09,0.05-0.13,0.09c-0.14,0.11-0.25,0.22-0.36,0.4c-0.12,0.18-0.2,0.37-0.27,0.64c-0.07,0.26-0.11,0.52-0.12,0.84
			v0.06l-1.51,0.86c-0.01-0.1-0.02-0.2-0.03-0.31c-0.02-0.36-0.02-0.7,0.01-1.04c0.03-0.35,0.1-0.66,0.19-0.97
			c0.1-0.32,0.21-0.57,0.38-0.84c0.17-0.27,0.33-0.47,0.56-0.68c0.23-0.2,0.44-0.35,0.72-0.48c0.24-0.12,0.55-0.2,0.82-0.25
			c0.27-0.04,0.6-0.05,0.88-0.02c0.28,0.03,0.6,0.1,0.88,0.19c0.55,0.18,1.18,0.52,1.72,0.9c0.01,0.01,0.03,0.02,0.05,0.03
			c0.29,0.21,0.61,0.49,0.88,0.75c0.28,0.27,0.56,0.58,0.82,0.89c0.16,0.2,0.32,0.42,0.47,0.63c0.08,0.12,0.17,0.24,0.24,0.36
			c0.22,0.34,0.43,0.7,0.61,1.06c0.19,0.37,0.34,0.73,0.48,1.1C111.63,251.38,111.78,251.96,111.87,252.58z"/>
		<g>
			<path class="st5" d="M225.71,324.77c6.3-3.76,12.63-7.46,18.97-11.15l19.06-10.99l19.14-10.86l9.6-5.38l9.63-5.32l-9.47,5.61
				l-9.5,5.54l-19.06,10.99l-19.14,10.86C238.55,317.67,232.15,321.25,225.71,324.77z"/>
		</g>
		<path class="st10" d="M292.29,280.01l0.15-0.25l-4.32-2.57l1.97-1.17l-0.15-0.25l-2.11,1.25l-5.57-3.31l1.86-1.11l-0.15-0.25
			l-2,1.19l-5.57-3.31l1.76-1.04l-0.15-0.25l-1.89,1.12l-5.57-3.31l1.65-0.98l-0.15-0.25l-1.78,1.06l-5.57-3.31l1.54-0.91
			l-0.15-0.25l-1.67,0.99l-5.57-3.31l1.43-0.85l-0.15-0.25l-1.56,0.93l-5.57-3.31l1.32-0.78l-0.15-0.25l-1.45,0.86l-5.58-3.31
			l1.21-0.72l-0.15-0.25l-1.34,0.8l-5.57-3.31l1.1-0.65l-0.15-0.25l-1.23,0.73l-5.57-3.31l0.99-0.59l-0.15-0.25l-1.12,0.67
			l-5.57-3.31l0.88-0.52l-0.15-0.25l-1.01,0.6l-5.57-3.31l0.77-0.46l-0.15-0.25l-0.91,0.54l-5.57-3.31l0.66-0.39l-0.15-0.25
			l-0.8,0.47l-5.57-3.31l0.55-0.33l-0.15-0.25l-0.69,0.41l-5.57-3.31l0.44-0.26l-0.15-0.25l-0.58,0.34l-5.57-3.31l0.33-0.2
			l-0.15-0.25l-0.47,0.28l-5.57-3.31l0.22-0.13l-0.15-0.25l-0.36,0.21l-5.57-3.31l0.12-0.07l-0.15-0.25l-0.25,0.15l-3.64-2.16
			l-0.15,0.25l3.5,2.08l-5.57,3.31l-3.75-2.23l-0.15,0.25l3.62,2.15l-5.57,3.31l-3.86-2.29l-0.15,0.25l3.73,2.21l-5.57,3.31
			l-3.98-2.36l-0.15,0.25l3.84,2.28l-5.57,3.31l-4.09-2.43l-0.15,0.25l3.95,2.35l-5.57,3.31l-4.2-2.49l-0.15,0.25l4.07,2.41
			l-5.57,3.31l-4.31-2.56l-0.15,0.25l4.18,2.48l-5.57,3.31l-4.43-2.63l-0.15,0.25l4.29,2.55l-5.57,3.31l-4.54-2.69l-0.15,0.25
			l4.4,2.61l-5.57,3.31l-4.65-2.76l-0.15,0.25l4.51,2.68l-5.57,3.31l-4.76-2.83l-0.15,0.25l4.63,2.75l-5.57,3.31l-4.87-2.89
			l-0.15,0.25l4.74,2.81l-5.35,3.18l0.15,0.25l5.49-3.26l5.57,3.31l-5.24,3.12l0.15,0.25l5.38-3.2l5.57,3.31l-5.13,3.05l0.15,0.25
			l5.27-3.13l5.57,3.31l-5.03,2.99l0.15,0.25l5.16-3.07l5.57,3.31l-4.92,2.92l0.15,0.25l5.05-3l5.57,3.31l-4.81,2.86l0.15,0.25
			l4.94-2.94l5.57,3.31l-4.7,2.79l0.15,0.25l4.83-2.87l5.57,3.31l-4.59,2.73l0.15,0.25l4.72-2.81l5.57,3.31l-4.48,2.66l0.15,0.25
			l4.61-2.74l5.57,3.31l-4.37,2.6l0.15,0.25l4.5-2.68l5.57,3.31l-4.26,2.53l0.15,0.25l4.4-2.61l5.58,3.31l-4.15,2.47l0.15,0.25
			l4.28-2.55l5.57,3.31l-4.04,2.4l0.15,0.25l4.17-2.48l5.57,3.31l-3.93,2.34l0.15,0.25l4.07-2.42l5.57,3.31l-3.82,2.27l0.15,0.25
			l3.96-2.35l5.57,3.31l-3.71,2.21l0.15,0.25l3.85-2.29l5.57,3.31l-3.6,2.14l0.15,0.25l3.74-2.22l5.57,3.31l-3.49,2.08l0.15,0.25
			l3.63-2.16l3.22,1.91l0.15-0.25l-3.09-1.83l5.57-3.31l3.33,1.98l0.15-0.25l-3.2-1.9l5.57-3.31l3.45,2.05l0.15-0.25l-3.31-1.97
			l5.57-3.31l3.56,2.11l0.15-0.25l-3.42-2.03l5.57-3.31l3.67,2.18l0.15-0.25l-3.54-2.1l5.57-3.31l3.78,2.25l0.15-0.25l-3.65-2.17
			l5.57-3.31l3.9,2.31l0.15-0.25l-3.76-2.23l5.57-3.31l4.01,2.38l0.15-0.25l-3.87-2.3l5.57-3.31l4.12,2.45l0.15-0.25l-3.99-2.37
			l5.57-3.31l4.23,2.51l0.15-0.25l-4.1-2.43l5.57-3.31l4.35,2.58l0.15-0.25l-4.21-2.5l5.57-3.31L292.29,280.01z M281.68,273.71
			l-5.57,3.31l-5.57-3.31l5.57-3.31L281.68,273.71z M194.06,256.48l5.57,3.31l-5.57,3.31l-5.57-3.31L194.06,256.48z M188.2,259.62
			l-5.57-3.31l5.57-3.31l5.57,3.31L188.2,259.62z M199.92,259.96l5.57,3.31l-5.57,3.31l-5.57-3.31L199.92,259.96z M205.78,263.45
			l5.57,3.31l-5.57,3.31l-5.57-3.31L205.78,263.45z M211.64,266.93l5.57,3.31l-5.57,3.31l-5.57-3.31L211.64,266.93z M217.5,270.41
			l5.58,3.31l-5.57,3.31l-5.58-3.31L217.5,270.41z M223.37,273.89l5.57,3.31l-5.57,3.31l-5.57-3.31L223.37,273.89z M223.66,273.72
			l5.57-3.31l5.57,3.31l-5.57,3.31L223.66,273.72z M223.37,273.55l-5.58-3.31l5.57-3.31l5.58,3.31L223.37,273.55z M217.5,270.06
			l-5.57-3.31l5.57-3.31l5.57,3.31L217.5,270.06z M211.64,266.58l-5.57-3.31l5.57-3.31l5.57,3.31L211.64,266.58z M205.78,263.1
			l-5.57-3.31l5.57-3.31l5.57,3.31L205.78,263.1z M199.92,259.62l-5.57-3.31l5.57-3.31l5.57,3.31L199.92,259.62z M194.06,256.14
			l-5.57-3.31l5.57-3.31l5.57,3.31L194.06,256.14z M188.2,252.66l-5.57-3.31l5.57-3.31l5.57,3.31L188.2,252.66z M187.91,252.83
			l-5.57,3.31l-5.57-3.31l5.57-3.31L187.91,252.83z M182.05,256.31l-5.57,3.31l-5.57-3.31l5.57-3.31L182.05,256.31z M182.34,256.49
			l5.57,3.31l-5.57,3.31l-5.57-3.31L182.34,256.49z M188.2,259.97l5.57,3.31l-5.57,3.31l-5.57-3.31L188.2,259.97z M194.06,263.45
			l5.57,3.31l-5.57,3.31l-5.57-3.31L194.06,263.45z M199.92,266.93l5.57,3.31l-5.57,3.31l-5.57-3.31L199.92,266.93z M205.78,270.41
			l5.57,3.31l-5.57,3.31l-5.57-3.31L205.78,270.41z M211.64,273.89l5.58,3.31l-5.57,3.31l-5.58-3.31L211.64,273.89z M217.51,277.37
			l5.57,3.31l-5.57,3.31l-5.57-3.31L217.51,277.37z M223.38,280.86l5.57,3.31l-5.57,3.31l-5.57-3.31L223.38,280.86z M223.66,280.68
			l5.57-3.31l5.57,3.31l-5.57,3.31L223.66,280.68z M229.52,277.2l5.57-3.31l5.57,3.31l-5.57,3.31L229.52,277.2z M235.38,273.72
			l5.57-3.31l5.57,3.31l-5.57,3.31L235.38,273.72z M235.09,273.55l-5.57-3.31l5.57-3.31l5.57,3.31L235.09,273.55z M229.23,270.07
			l-5.58-3.31l5.57-3.31l5.58,3.31L229.23,270.07z M223.36,266.58l-5.57-3.31l5.57-3.31l5.57,3.31L223.36,266.58z M217.5,263.1
			l-5.57-3.31l5.57-3.31l5.57,3.31L217.5,263.1z M211.64,259.62l-5.57-3.31l5.57-3.31l5.57,3.31L211.64,259.62z M205.78,256.14
			l-5.57-3.31l5.57-3.31l5.57,3.31L205.78,256.14z M199.92,252.66l-5.57-3.31l5.57-3.31l5.57,3.31L199.92,252.66z M194.05,249.18
			l-5.57-3.31l5.57-3.31l5.57,3.31L194.05,249.18z M188.19,245.7l-5.57-3.31l5.57-3.31l5.57,3.31L188.19,245.7z M187.91,245.87
			l-5.57,3.31l-5.57-3.31l5.57-3.31L187.91,245.87z M182.05,249.35l-5.57,3.31l-5.57-3.31l5.57-3.31L182.05,249.35z M176.19,252.83
			l-5.57,3.31l-5.57-3.31l5.57-3.31L176.19,252.83z M170.33,256.32l-5.57,3.31l-5.57-3.31l5.57-3.31L170.33,256.32z M170.62,256.49
			l5.57,3.31l-5.57,3.31l-5.57-3.31L170.62,256.49z M176.48,259.97l5.57,3.31l-5.57,3.31l-5.57-3.31L176.48,259.97z M182.34,263.45
			l5.57,3.31l-5.57,3.31l-5.57-3.31L182.34,263.45z M188.2,266.93l5.57,3.31l-5.57,3.31l-5.57-3.31L188.2,266.93z M194.06,270.41
			l5.57,3.31l-5.57,3.31l-5.57-3.31L194.06,270.41z M199.93,273.89l5.57,3.31l-5.57,3.31l-5.57-3.31L199.93,273.89z M205.79,277.37
			l5.58,3.31L205.8,284l-5.58-3.31L205.79,277.37z M211.66,280.86l5.57,3.31l-5.57,3.31l-5.57-3.31L211.66,280.86z M217.52,284.34
			l5.57,3.31l-5.57,3.31l-5.57-3.31L217.52,284.34z M223.38,287.82l5.57,3.31l-5.57,3.31l-5.57-3.31L223.38,287.82z M223.67,287.65
			l5.57-3.31l5.57,3.31l-5.57,3.31L223.67,287.65z M229.52,284.16l5.57-3.31l5.57,3.31l-5.57,3.31L229.52,284.16z M235.38,280.68
			l5.57-3.31l5.57,3.31l-5.57,3.31L235.38,280.68z M241.24,277.2l5.57-3.31l5.57,3.31l-5.57,3.31L241.24,277.2z M247.1,273.72
			l5.57-3.31l5.57,3.31l-5.57,3.31L247.1,273.72z M246.81,273.55l-5.57-3.31l5.57-3.31l5.57,3.31L246.81,273.55z M240.95,270.07
			l-5.57-3.31l5.57-3.31l5.57,3.31L240.95,270.07z M235.09,266.58l-5.58-3.31l5.57-3.31l5.58,3.31L235.09,266.58z M229.22,263.1
			l-5.57-3.31l5.57-3.31l5.57,3.31L229.22,263.1z M223.36,259.62l-5.57-3.31l5.57-3.31l5.57,3.31L223.36,259.62z M217.5,256.14
			l-5.57-3.31l5.57-3.31l5.57,3.31L217.5,256.14z M211.64,252.66l-5.57-3.31l5.57-3.31l5.57,3.31L211.64,252.66z M205.77,249.18
			l-5.57-3.31l5.57-3.31l5.57,3.31L205.77,249.18z M199.91,245.7l-5.57-3.31l5.57-3.31l5.57,3.31L199.91,245.7z M194.05,242.22
			l-5.57-3.31l5.57-3.31l5.57,3.31L194.05,242.22z M188.19,238.73l-5.57-3.31l5.57-3.31l5.57,3.31L188.19,238.73z M187.9,238.91
			l-5.57,3.31l-5.57-3.31l5.57-3.31L187.9,238.91z M182.04,242.39l-5.57,3.31l-5.57-3.31l5.57-3.31L182.04,242.39z M176.19,245.87
			l-5.57,3.31l-5.57-3.31l5.57-3.31L176.19,245.87z M170.33,249.35l-5.57,3.31l-5.57-3.31l5.57-3.31L170.33,249.35z M164.47,252.84
			l-5.57,3.31l-5.57-3.31l5.57-3.31L164.47,252.84z M158.61,256.32l-5.57,3.31l-5.57-3.31l5.57-3.31L158.61,256.32z M158.9,256.49
			l5.57,3.31l-5.57,3.31l-5.57-3.31L158.9,256.49z M164.76,259.97l5.57,3.31l-5.57,3.31l-5.57-3.31L164.76,259.97z M170.62,263.45
			l5.57,3.31l-5.57,3.31l-5.57-3.31L170.62,263.45z M176.48,266.93l5.57,3.31l-5.57,3.31l-5.57-3.31L176.48,266.93z M182.35,270.41
			l5.57,3.31l-5.57,3.31l-5.57-3.31L182.35,270.41z M188.21,273.89l5.57,3.31l-5.57,3.31l-5.57-3.31L188.21,273.89z M194.07,277.37
			l5.57,3.31l-5.57,3.31l-5.57-3.31L194.07,277.37z M199.93,280.85l5.58,3.31l-5.57,3.31l-5.58-3.31L199.93,280.85z M205.8,284.34
			l5.57,3.31l-5.57,3.31l-5.57-3.31L205.8,284.34z M211.66,287.82l5.57,3.31l-5.57,3.31l-5.57-3.31L211.66,287.82z M217.52,291.3
			l5.57,3.31l-5.57,3.31l-5.57-3.31L217.52,291.3z M223.38,294.78l5.57,3.31l-5.57,3.31l-5.57-3.31L223.38,294.78z M223.67,294.61
			l5.57-3.31l5.57,3.31l-5.57,3.31L223.67,294.61z M229.53,291.13l5.57-3.31l5.57,3.31l-5.57,3.31L229.53,291.13z M235.38,287.65
			l5.57-3.31l5.57,3.31l-5.57,3.31L235.38,287.65z M241.24,284.16l5.57-3.31l5.57,3.31l-5.57,3.31L241.24,284.16z M247.1,280.68
			l5.57-3.31l5.57,3.31l-5.57,3.31L247.1,280.68z M252.96,277.2l5.57-3.31l5.57,3.31l-5.57,3.31L252.96,277.2z M258.82,273.72
			l5.57-3.31l5.57,3.31l-5.57,3.31L258.82,273.72z M258.53,273.54l-5.57-3.31l5.57-3.31l5.57,3.31L258.53,273.54z M252.67,270.06
			l-5.57-3.31l5.57-3.31l5.57,3.31L252.67,270.06z M246.81,266.58l-5.57-3.31l5.57-3.31l5.57,3.31L246.81,266.58z M240.95,263.1
			l-5.58-3.31l5.57-3.31l5.58,3.31L240.95,263.1z M235.08,259.62l-5.57-3.31l5.57-3.31l5.57,3.31L235.08,259.62z M229.22,256.14
			l-5.57-3.31l5.57-3.31l5.57,3.31L229.22,256.14z M223.35,252.66l-5.57-3.31l5.57-3.31l5.57,3.31L223.35,252.66z M217.49,249.18
			l-5.57-3.31l5.57-3.31l5.57,3.31L217.49,249.18z M211.63,245.69l-5.57-3.31l5.57-3.31l5.57,3.31L211.63,245.69z M205.77,242.21
			l-5.57-3.31l5.57-3.31l5.57,3.31L205.77,242.21z M199.91,238.73l-5.57-3.31l5.57-3.31l5.57,3.31L199.91,238.73z M194.05,235.25
			l-5.57-3.31l5.57-3.31l5.57,3.31L194.05,235.25z M188.19,231.77l-5.57-3.31l5.57-3.31l5.57,3.31L188.19,231.77z M187.9,231.94
			l-5.57,3.31l-5.57-3.31l5.57-3.31L187.9,231.94z M182.04,235.43l-5.57,3.31l-5.57-3.31l5.57-3.31L182.04,235.43z M176.18,238.91
			l-5.57,3.31l-5.57-3.31l5.57-3.31L176.18,238.91z M170.33,242.39l-5.57,3.31l-5.57-3.31l5.57-3.31L170.33,242.39z M164.47,245.87
			l-5.57,3.31l-5.57-3.31l5.57-3.31L164.47,245.87z M158.61,249.36l-5.57,3.31l-5.57-3.31l5.57-3.31L158.61,249.36z M152.75,252.84
			l-5.57,3.31l-5.57-3.31l5.57-3.31L152.75,252.84z M146.89,256.32l-5.57,3.31l-5.57-3.31l5.57-3.31L146.89,256.32z M147.18,256.49
			l5.57,3.31l-5.57,3.31l-5.57-3.31L147.18,256.49z M153.04,259.97l5.57,3.31l-5.57,3.31l-5.57-3.31L153.04,259.97z M158.9,263.45
			l5.57,3.31l-5.57,3.31l-5.57-3.31L158.9,263.45z M164.77,266.93l5.57,3.31l-5.57,3.31l-5.57-3.31L164.77,266.93z M170.63,270.41
			l5.57,3.31l-5.57,3.31l-5.57-3.31L170.63,270.41z M176.49,273.89l5.57,3.31l-5.57,3.31l-5.57-3.31L176.49,273.89z M182.35,277.38
			l5.57,3.31l-5.57,3.31l-5.57-3.31L182.35,277.38z M188.21,280.86l5.57,3.31l-5.57,3.31l-5.57-3.31L188.21,280.86z M194.07,284.34
			l5.58,3.31l-5.57,3.31l-5.58-3.31L194.07,284.34z M199.94,287.82l5.57,3.31l-5.57,3.31l-5.57-3.31L199.94,287.82z M205.8,291.3
			l5.57,3.31l-5.57,3.31l-5.57-3.31L205.8,291.3z M211.66,294.78l5.57,3.31l-5.57,3.31l-5.57-3.31L211.66,294.78z M217.52,298.26
			l5.57,3.31l-5.57,3.31l-5.57-3.31L217.52,298.26z M223.38,301.74l5.57,3.31l-5.57,3.31l-5.57-3.31L223.38,301.74z M223.67,301.57
			l5.57-3.31l5.57,3.31l-5.57,3.31L223.67,301.57z M229.53,298.09l5.57-3.31l5.57,3.31l-5.57,3.31L229.53,298.09z M235.39,294.61
			l5.57-3.31l5.57,3.31l-5.57,3.31L235.39,294.61z M241.25,291.13l5.57-3.31l5.57,3.31l-5.57,3.31L241.25,291.13z M247.1,287.64
			l5.57-3.31l5.57,3.31l-5.57,3.31L247.1,287.64z M252.96,284.16l5.57-3.31l5.57,3.31l-5.57,3.31L252.96,284.16z M258.82,280.68
			l5.57-3.31l5.57,3.31l-5.57,3.31L258.82,280.68z M264.68,277.2l5.57-3.31l5.57,3.31l-5.57,3.31L264.68,277.2z M275.82,270.23
			l-5.57,3.31l-5.57-3.31l5.57-3.31L275.82,270.23z M269.96,266.75l-5.57,3.31l-5.57-3.31l5.57-3.31L269.96,266.75z M264.1,263.27
			l-5.57,3.31l-5.57-3.31l5.57-3.31L264.1,263.27z M258.23,259.79l-5.57,3.31l-5.57-3.31l5.57-3.31L258.23,259.79z M252.37,256.31
			l-5.57,3.31l-5.58-3.31l5.57-3.31L252.37,256.31z M246.5,252.82l-5.57,3.31l-5.57-3.31l5.57-3.31L246.5,252.82z M240.64,249.34
			l-5.57,3.31l-5.57-3.31l5.57-3.31L240.64,249.34z M234.78,245.86l-5.57,3.31l-5.57-3.31l5.57-3.31L234.78,245.86z M228.92,242.38
			l-5.57,3.31l-5.57-3.31l5.57-3.31L228.92,242.38z M223.06,238.9l-5.57,3.31l-5.57-3.31l5.57-3.31L223.06,238.9z M217.2,235.42
			l-5.57,3.31l-5.57-3.31l5.57-3.31L217.2,235.42z M211.34,231.94l-5.57,3.31l-5.57-3.31l5.57-3.31L211.34,231.94z M205.48,228.46
			l-5.57,3.31l-5.57-3.31l5.57-3.31L205.48,228.46z M199.62,224.98l-5.57,3.31l-5.57-3.31l5.57-3.31L199.62,224.98z M188.18,218.19
			l5.57,3.31l-5.57,3.31l-5.57-3.31L188.18,218.19z M182.32,221.67l5.57,3.31l-5.57,3.31l-5.57-3.31L182.32,221.67z M176.46,225.15
			l5.57,3.31l-5.57,3.31l-5.57-3.31L176.46,225.15z M170.61,228.63l5.57,3.31l-5.57,3.31l-5.57-3.31L170.61,228.63z M164.75,232.12
			l5.57,3.31l-5.57,3.31l-5.57-3.31L164.75,232.12z M158.89,235.6l5.57,3.31l-5.57,3.31l-5.57-3.31L158.89,235.6z M153.03,239.08
			l5.57,3.31l-5.57,3.31l-5.57-3.31L153.03,239.08z M147.18,242.56l5.57,3.31l-5.57,3.31l-5.57-3.31L147.18,242.56z M141.32,246.05
			l5.57,3.31l-5.57,3.31l-5.57-3.31L141.32,246.05z M135.46,249.53l5.57,3.31l-5.57,3.31l-5.57-3.31L135.46,249.53z M124.03,256.32
			l5.57-3.31l5.57,3.31l-5.57,3.31L124.03,256.32z M129.89,259.8l5.57-3.31l5.57,3.31l-5.57,3.31L129.89,259.8z M135.75,263.29
			l5.57-3.31l5.57,3.31l-5.57,3.31L135.75,263.29z M141.61,266.77l5.57-3.31l5.57,3.31l-5.57,3.31L141.61,266.77z M147.48,270.25
			l5.57-3.31l5.57,3.31l-5.57,3.31L147.48,270.25z M153.34,273.73l5.57-3.31l5.57,3.31l-5.57,3.31L153.34,273.73z M159.2,277.21
			l5.57-3.31l5.57,3.31l-5.57,3.31L159.2,277.21z M165.06,280.69l5.57-3.31l5.57,3.31l-5.57,3.31L165.06,280.69z M170.92,284.17
			l5.57-3.31l5.57,3.31l-5.57,3.31L170.92,284.17z M176.78,287.65l5.57-3.31l5.57,3.31l-5.57,3.31L176.78,287.65z M182.64,291.13
			l5.57-3.31l5.58,3.31l-5.57,3.31L182.64,291.13z M188.51,294.62l5.57-3.31l5.57,3.31l-5.57,3.31L188.51,294.62z M194.37,298.1
			l5.57-3.31l5.57,3.31l-5.57,3.31L194.37,298.1z M200.23,301.58l5.57-3.31l5.57,3.31l-5.57,3.31L200.23,301.58z M206.1,305.06
			l5.57-3.31l5.57,3.31l-5.57,3.31L206.1,305.06z M211.96,308.54l5.57-3.31l5.57,3.31l-5.57,3.31L211.96,308.54z M223.39,315.33
			l-5.57-3.31l5.57-3.31l5.57,3.31L223.39,315.33z M229.25,311.85l-5.57-3.31l5.57-3.31l5.57,3.31L229.25,311.85z M235.11,308.36
			l-5.57-3.31l5.57-3.31l5.57,3.31L235.11,308.36z M240.96,304.88l-5.57-3.31l5.57-3.31l5.57,3.31L240.96,304.88z M246.82,301.4
			l-5.57-3.31l5.57-3.31l5.57,3.31L246.82,301.4z M252.68,297.92l-5.57-3.31l5.57-3.31l5.57,3.31L252.68,297.92z M258.54,294.43
			l-5.57-3.31l5.57-3.31l5.57,3.31L258.54,294.43z M264.4,290.95l-5.57-3.31l5.57-3.31l5.57,3.31L264.4,290.95z M270.25,287.47
			l-5.57-3.31l5.57-3.31l5.57,3.31L270.25,287.47z M276.11,283.99l-5.57-3.31l5.57-3.31l5.57,3.31L276.11,283.99z M281.97,280.5
			l-5.57-3.31l5.57-3.31l5.57,3.31L281.97,280.5z"/>
	</g>
	<g>
		<g>
			<path class="st0" d="M255.78,298.48c-0.01-0.15-0.06-0.35-0.09-0.5c-0.04-0.15-0.11-0.35-0.18-0.48
				c-0.07-0.14-0.18-0.32-0.28-0.44c-0.05-0.06-0.1-0.12-0.16-0.17c0.18-0.06-0.2-0.26-0.56-0.38c-0.06-0.03-0.12-0.06-0.18-0.08
				c-0.03-0.01-0.07-0.01-0.11-0.02c-1.07-0.37-2.14-0.74-3.21-1.1c-0.23-0.08-0.47-0.16-0.71-0.25l-13.95-4.8
				c-32.83-11.3-65.66-22.58-98.48-33.87c-0.08-0.03-0.17-0.04-0.25-0.04c-2.94-0.18-5.89-0.37-8.82-0.56
				c-1.49-0.09-2.96-0.18-4.44-0.28c-0.33-0.02-0.65-0.04-0.98-0.06c0.27,0.18,0.54,0.37,0.81,0.56c1.22,0.83,2.44,1.67,3.66,2.5
				c2.44,1.68,4.88,3.35,7.32,5.01c0.06,0.03,0.11,0.07,0.17,0.09c32.82,11.28,65.65,22.57,98.48,33.86l13.96,4.8
				c0.23,0.08,0.47,0.16,0.7,0.24c1.02,0.35,2.03,0.7,3.04,1.05c0.06,0.02,0.12,0.04,0.19,0.06l0.01-0.01l0.01-0.02
				c0.03,0.01,0.05,0.03,0.08,0.04c0.03,0.01,0.05,0.01,0.08,0.02c0.01,0,0.01,0.01,0.02,0.01c0.18,0.05,0.34,0.08,0.53,0.08
				c0.21,0,0.36-0.02,0.55-0.07c0.21-0.05,0.34-0.11,0.52-0.2c0.19-0.1,0.3-0.18,0.46-0.31c0.16-0.13,0.25-0.22,0.39-0.37
				c0.14-0.15,0.22-0.25,0.34-0.43c0.25-0.35,0.38-0.59,0.56-1.02c0.15-0.35,0.31-0.8,0.39-1.17c0.05-0.18,0.09-0.42,0.12-0.59
				c0.02-0.17,0.04-0.42,0.05-0.58C255.8,298.85,255.79,298.63,255.78,298.48z"/>
			<polygon class="st10" points="250.3,293.69 248.23,299.6 247.77,300.92 233.81,296.11 232.64,294.24 231.52,292.45 
				233.51,289.91 236.35,288.9 			"/>
			<path class="st18" d="M236.35,288.9c-0.43,0.23-0.83,0.69-1.15,1.14c-0.53,0.74-0.83,1.43-1.07,2.13
				c-0.25,0.7-0.44,1.43-0.5,2.34v0.07c-0.03,0.52,0,1.1,0.18,1.53c-32.83-11.29-65.66-22.58-98.48-33.86
				c-0.06-0.02-0.12-0.05-0.17-0.09c-0.08-0.06-0.16-0.13-0.22-0.21c-0.13-0.18-0.2-0.4-0.25-0.61c-0.06-0.27-0.09-0.55-0.09-0.82
				c0-0.95,0.29-1.94,0.63-2.82c0.27-0.69,0.56-1.31,1.12-1.93c0.36-0.4,0.81-0.78,1.27-0.78c0.08,0,0.17,0.01,0.25,0.04
				C170.69,266.32,203.51,277.6,236.35,288.9z"/>
			<path class="st22" d="M137.61,254.99c-0.45,0-0.91,0.39-1.27,0.78c-0.56,0.63-0.85,1.25-1.12,1.93
				c-0.34,0.88-0.63,1.87-0.63,2.82c0,0.27,0.03,0.55,0.09,0.82c0.05,0.21,0.12,0.42,0.25,0.61c0.06,0.08,0.14,0.15,0.22,0.21
				c-2.41-1.65-4.83-3.3-7.24-4.96c-0.94-0.64-1.88-1.29-2.83-1.93c-0.47-0.32-0.94-0.65-1.42-0.97c-0.1-0.07-0.21-0.14-0.31-0.21
				c0.12,0.01,0.25,0.01,0.38,0.02c0.57,0.04,1.14,0.07,1.71,0.11c1.13,0.08,2.28,0.14,3.41,0.22
				C131.78,254.62,134.71,254.8,137.61,254.99z"/>
			<path class="st23" d="M128.87,254.44c-0.18,0-0.35,0.15-0.49,0.3c-0.22,0.25-0.33,0.48-0.43,0.75c-0.13,0.33-0.24,0.72-0.24,1.08
				v0.01c0,0.11,0.01,0.21,0.03,0.31c0.01,0.08,0.04,0.16,0.09,0.23c0.03,0.03,0.06,0.06,0.09,0.08c-0.94-0.64-1.88-1.29-2.83-1.93
				c-0.47-0.32-0.94-0.65-1.42-0.97c-0.1-0.07-0.21-0.14-0.31-0.21c0.12,0.01,0.25,0.01,0.38,0.02c0.57,0.04,1.14,0.07,1.71,0.11
				C126.59,254.29,127.73,254.36,128.87,254.44z"/>
			<path class="st8" d="M257.05,297.57c-0.01-0.15-0.06-0.35-0.09-0.5c-0.04-0.15-0.11-0.35-0.18-0.48
				c-0.07-0.14-0.18-0.32-0.28-0.44c-0.1-0.13-0.25-0.27-0.4-0.37c-0.14-0.1-0.33-0.2-0.5-0.26c-0.53-0.18-1.09,0.28-1.51,0.74
				c-0.56,0.63-0.86,1.25-1.13,1.93c-0.33,0.88-0.62,1.87-0.62,2.82c0,0.28,0.02,0.55,0.08,0.82c0.05,0.22,0.12,0.42,0.25,0.61
				c0.1,0.13,0.23,0.25,0.39,0.3c0.03,0.01,0.05,0.01,0.08,0.02c0.01,0,0.01,0.01,0.02,0.01c0.18,0.05,0.34,0.08,0.53,0.08
				c0.21,0,0.36-0.02,0.55-0.07c0.21-0.05,0.34-0.11,0.52-0.2c0.19-0.1,0.3-0.18,0.46-0.31c0.16-0.13,0.25-0.22,0.39-0.37
				c0.14-0.15,0.22-0.25,0.34-0.43c0.25-0.35,0.38-0.59,0.56-1.01c0.15-0.35,0.31-0.8,0.39-1.17c0.05-0.18,0.09-0.42,0.12-0.59
				c0.02-0.17,0.04-0.42,0.05-0.58C257.07,297.94,257.06,297.73,257.05,297.57z M256.82,298.67c-0.04,0.37-0.1,0.73-0.2,1.08
				c-0.11,0.36-0.27,0.71-0.45,1.02c-0.14,0.25-0.3,0.48-0.54,0.69c-0.17,0.16-0.38,0.32-0.58,0.3c-0.21-0.01-0.4-0.2-0.5-0.41
				c-0.1-0.21-0.11-0.43-0.09-0.65l0.02-0.22c0.05-0.37,0.1-0.73,0.21-1.08c0.1-0.35,0.27-0.71,0.45-1.02
				c0.14-0.25,0.3-0.48,0.54-0.69c0.17-0.16,0.38-0.32,0.58-0.3c0.2,0.02,0.39,0.21,0.5,0.42
				C256.89,298.07,256.85,298.37,256.82,298.67z"/>
			<path class="st7" d="M256.82,298.67c-0.04,0.37-0.1,0.73-0.2,1.08c-0.11,0.36-0.27,0.71-0.45,1.02c-0.14,0.25-0.3,0.48-0.54,0.69
				c-0.17,0.16-0.38,0.32-0.58,0.3c-0.21-0.01-0.4-0.2-0.5-0.41c-0.1-0.21-0.11-0.43-0.09-0.65l0.02-0.22
				c0.05-0.37,0.1-0.73,0.21-1.08c0.1-0.35,0.27-0.71,0.45-1.02c0.14-0.25,0.3-0.48,0.54-0.69c0.17-0.16,0.38-0.32,0.58-0.3
				c0.2,0.02,0.39,0.21,0.5,0.42C256.89,298.07,256.85,298.37,256.82,298.67z"/>
			<path class="st8" d="M255.6,295.51c-0.53-0.18-1.09,0.28-1.51,0.74c-0.56,0.63-0.86,1.25-1.13,1.93
				c-0.33,0.88-0.62,1.87-0.62,2.82c0,0.28,0.02,0.55,0.08,0.82c0.05,0.22,0.12,0.42,0.25,0.61c0.1,0.13,0.23,0.25,0.39,0.3
				c-1.53-0.52-3.06-1.05-4.59-1.58c-0.23-0.08-0.47-0.16-0.7-0.24c-0.15-0.05-0.28-0.17-0.38-0.3c-0.13-0.18-0.2-0.4-0.25-0.61
				c-0.06-0.27-0.09-0.54-0.09-0.82c0-0.95,0.29-1.94,0.63-2.82c0.26-0.69,0.56-1.31,1.12-1.93c0.42-0.46,0.98-0.93,1.51-0.74
				c0.23,0.08,0.47,0.16,0.71,0.25C252.54,294.46,254.06,294.99,255.6,295.51z"/>
		</g>
		<path class="st11" d="M247.77,300.92l-13.96-4.8c-0.18-0.43-0.21-1.01-0.18-1.53l13.42,4.61c0,0.28,0.03,0.55,0.09,0.82
			c0.05,0.21,0.12,0.42,0.25,0.61C247.49,300.75,247.62,300.86,247.77,300.92z"/>
		<path class="st24" d="M253.06,302.74c-1.53-0.52-3.06-1.05-4.59-1.58c-0.23-0.08-0.47-0.16-0.7-0.24
			c-0.15-0.05-0.28-0.17-0.38-0.3c-0.13-0.18-0.2-0.4-0.25-0.61c-0.06-0.27-0.09-0.54-0.09-0.82l1.18,0.41l4.11,1.41
			c0,0.28,0.02,0.55,0.08,0.82c0.05,0.22,0.12,0.42,0.25,0.61C252.78,302.57,252.91,302.68,253.06,302.74z"/>
		<path class="st25" d="M135.16,262.16c-2.41-1.65-4.83-3.3-7.24-4.96c-0.03-0.02-0.06-0.05-0.09-0.08
			c-0.05-0.07-0.08-0.15-0.09-0.23c-0.03-0.1-0.03-0.2-0.03-0.31l6.9,3.95c0,0.27,0.03,0.55,0.09,0.82
			c0.05,0.21,0.12,0.42,0.25,0.61C135,262.03,135.08,262.1,135.16,262.16z"/>
		<path class="st26" d="M127.92,257.2c-0.88-0.6-1.76-1.2-2.83-1.93c-0.47-0.32-0.94-0.65-1.42-0.97c-0.1-0.07-0.21-0.14-0.31-0.21
			l4.34,2.49c0,0.11,0.01,0.21,0.03,0.31c0.01,0.08,0.04,0.16,0.09,0.23C127.86,257.15,127.88,257.18,127.92,257.2z"/>
		<path class="st17" d="M233.81,296.11c-32.83-11.29-65.66-22.58-98.48-33.86c-0.06-0.02-0.12-0.05-0.17-0.09
			c-0.08-0.06-0.16-0.13-0.22-0.21c-0.13-0.18-0.2-0.4-0.25-0.61c-0.06-0.27-0.09-0.55-0.09-0.82l98.04,33.71l0.99,0.34
			C233.6,295.1,233.63,295.68,233.81,296.11z"/>
	</g>
	<g>
		<g>
			<path class="st16" d="M192.46,133.12c0,0,0.77,10.94-1.09,18.75c-1.71,7.19-1.84,13.08-1.84,13.98c0,0.81-0.4,1.65-0.4,1.65
				c-0.04,0.02-0.08,0.06-0.12,0.08c-0.32,0.22-0.69,0.4-1.09,0.53c-0.61,0.22-1.29,0.34-1.97,0.35c-0.48,0.02-0.96-0.01-1.41-0.09
				c-0.44-0.08-1.22-0.39-1.22-0.39c-0.88-0.43-1.3-1.04-1.29-1.67l-0.01-0.01c-0.06-0.88,1.85-13.75,2.51-20.29
				c0.53-5.27-1.06-12.87-1.69-15.62l0-0.02c-0.02-0.05-0.03-0.09-0.04-0.15c-0.06-0.25-0.13-0.51-0.19-0.79
				c0-0.02-0.01-0.04-0.01-0.07c0-0.02-0.01-0.03-0.01-0.03l0.01,0l0-0.02c-0.02-0.12-0.04-0.25-0.05-0.37
				c-0.06-0.83,0.09-1.5,0.42-1.99c0.01-0.02,0.03-0.04,0.04-0.06c0.46-0.65,1.22-0.99,2.18-0.95c0.64,0.02,2.16,0.13,2.98,0.41
				C191.78,127.57,192.41,132.43,192.46,133.12z"/>
			<path class="st0" d="M194.01,228.17c6.66,3.81,6.66,9.98,0,13.79s-17.45,3.81-24.11,0s-6.66-9.98,0-13.79
				C176.56,224.37,187.36,224.37,194.01,228.17z"/>
			<g>
				<path class="st27" d="M183.23,122.41c-0.07,1.26,0.3,2.15,0.34,2.27l-8.96,5.24c0,0-0.25-3.96-0.38-5.22
					c-0.05-0.47-0.7-0.84-0.7-0.84s-1.38,0.07-1.6-0.01c0,0-2.54-3.71-2.78-8.99c-0.01-0.33-0.02-0.65-0.01-0.97
					c0.15-4.73,3.15-7.82,8.57-7.82c4.88,0,6.94,4.69,7.57,7.83c0.63,3.14-0.96,4.7-1.71,6.8
					C183.34,121.32,183.25,121.9,183.23,122.41z"/>
				<path class="st28" d="M186.17,112.25c-0.28,5.14-2.92,9.77-2.92,9.77s-2.44,1.09-4.85,0.92c-0.14-0.01-0.28-0.02-0.42-0.04
					c-0.56-0.07-1.1-0.22-1.6-0.47c-0.3-0.15-0.59-0.33-0.87-0.52c-0.31-0.86-1.29-4.31-1.16-4.82c0.39-1.51,0.13-2.85-1.73-3.03
					c-1.87-0.18-1.1,3.16-1.1,3.16l-1.52-0.15l-0.12-1.97c-0.07-1.19-0.65-2.24-1.4-3.17c-0.11-0.14-0.18-0.32-0.23-0.64
					c0.07-0.73,0.3-3.12,0.9-4.13c0.01-0.03,0.02-0.05,0.05-0.08c1.08-1.77,3.35-3.48,8.08-3.56c2.2-0.03,3.87,0.3,5.12,0.87
					C186.77,106.34,186.17,111.04,186.17,112.25z"/>
				<path class="st29" d="M193.98,226.29c0,0,0.37,3.44,0.15,5.99c0,0-0.78,2.5-3.89,1.7c0,0-2.7-1.74-2.84-1.94
					c-0.1-0.14-0.31-1.37-0.31-1.37s-1.12-0.17-3.5-0.77c-2.39-0.6-6.45-3.13-6.28-3.65c0.17-0.52,1.84-1.79,2.89-1.83
					c1.05-0.04,8.14-0.29,8.14-0.29L193.98,226.29z"/>
				<path class="st29" d="M160.33,238.21c-0.09,0.24,0.89,2.29,3.47,3.74c1.78,1,3.87,1.31,5.91,1.08c1.01-0.12,2.36-0.19,3.67-0.01
					c0,0,0.01,0.82,0.11,0.98c0.1,0.15,5.13,1.14,6.74-0.12c1.6-1.26,0.41-7.13-0.13-7.41c-1.33-0.68-6.11-1.5-7.32-0.65
					c-1.33,0.94-7.63,1.66-10.42,1.24C159.56,236.65,160.33,238.21,160.33,238.21z"/>
				<path class="st6" d="M195.03,225.63c0,0-0.58-13.06-0.65-18.09c-0.02-1.52-0.31-3.19-0.7-4.77c-1.29-5.27-2.1-10.63-2.31-16.05
					c-0.3-7.62-1.42-14.05-1.42-14.05l-9.42,1.58c0,0-4.47,8.85,0.82,22.75c5.29,13.9,3.53,29,3.53,29c0.03,0.74,0.55,1.47,1.56,2
					c2.02,1.06,5.24,0.95,7.18-0.25C194.59,227.14,195.06,226.37,195.03,225.63L195.03,225.63z"/>
				<g>
					<path class="st4" d="M180.8,203.85c-0.12,4.21,1.97,6.89,1.24,15c-0.68,7.52-1.16,16.52-1.23,17.6c0,0.04,0,0.07-0.01,0.1
						c-0.03,0.72-0.52,1.45-1.48,2c-1.3,0.75-3.14,1-4.79,0.76h-0.04c-0.87-0.12-1.69-0.38-2.36-0.76
						c-0.96-0.54-1.45-1.25-1.48-1.97c-0.01-0.13-0.01-0.26,0.01-0.4c0.09-0.97,0.34-4.15,0.52-8.27c0.01-0.13,0.01-0.26,0.01-0.4
						c0.01-0.28,0.03-0.56,0.03-0.85c0.01-0.15,0.01-0.29,0.01-0.44c0.01-0.29,0.03-0.59,0.03-0.88c0.12-3.44,0.15-7.25-0.01-10.88
						c-0.16-4.1-0.56-7.97-1.36-10.83c-2.79-10.01-4.11-17.62-1.81-27.25l3.54,0.95l3.44,0.92l8.31,2.25
						C183.54,182.56,180.92,199.63,180.8,203.85z"/>
				</g>
				<path class="st17" d="M189.29,161.02c0.3,3.48,2.19,12.03,2.15,12.51l-0.04,0.84c-0.06,1.76-1.26,3.52-3.62,4.87
					c-3.59,2.04-8.82,2.57-13.25,1.57c-0.36-0.08-0.73-0.17-1.07-0.28c-0.24-0.07-0.48-0.14-0.72-0.23
					c-0.48-0.14-0.94-0.32-1.38-0.53c-0.35-0.16-0.71-0.34-1.05-0.53c-1.15-0.67-2.03-1.43-2.63-2.25
					c-0.09-0.11-0.16-0.23-0.24-0.35l-0.33-0.38c-0.46-0.74-0.38-1.12-0.39-1.88c0,0,0.2-1.28,0.46-5.33c0-0.09,0-0.17,0.01-0.27
					c0.02-0.28,0.03-0.59,0.05-0.9c0.05-0.79,0.08-1.59,0.11-2.37c0.03-0.72,0.04-1.46,0.04-2.17v-0.23
					c0.02-1.49-0.01-3.01-0.07-4.5v-0.02c-0.13-3.8-0.51-7.6-1.06-11.39c-0.02-0.16-0.05-0.32-0.07-0.48
					c-0.31-1.93-0.75-3.17-1.1-4.92v-0.02c-0.02-0.06-0.02-0.1-0.03-0.16c-0.05-0.25-0.1-0.51-0.13-0.79v-0.08
					c0-0.01-0.02-0.03-0.02-0.03l0.02-0.01l0.53-2.34c0.01-0.02,0.03-0.03,0.04-0.06c0.45-0.6,4-5.32,4.36-5.65
					c0.33-0.36,0.94-0.77,1.67-1.22c3.64-2.22,10.9-5.39,10.9-5.39s6.27-1.19,8.04,2.18C193.71,134.37,189.05,158.18,189.29,161.02z
					"/>
				<path class="st5" d="M184.11,124.23c0,0-0.23-1.02-0.89-1.63c-0.21-0.19-10.03,3.73-11.42,8.26l9.87-4.81L184.11,124.23z"/>
				<path class="st30" d="M173.55,168.34c-0.17,3.42-0.12,8.1-0.09,12.19c-0.24-0.07-0.48-0.14-0.72-0.23
					c-0.48-0.14-0.94-0.32-1.38-0.53c-0.35-0.16-0.71-0.34-1.05-0.53c-1.15-0.67-2.03-1.43-2.63-2.25
					c-0.09-0.11-0.16-0.23-0.24-0.35l-0.33-0.38c-0.46-0.74-0.38-1.12-0.39-1.88c0,0,0.2-1.28,0.46-5.33c0-0.09,0-0.17,0.01-0.27
					c0.02-0.22,0.03-0.44,0.05-0.67c0.05-0.87,0.09-1.74,0.11-2.6c0.03-0.72,0.04-1.46,0.04-2.17v-0.23
					c0.02-1.49-0.01-3.01-0.07-4.5v-0.02c-0.13-3.8-0.51-7.6-1.06-11.39c-0.02-0.16-0.05-0.32-0.07-0.48l8.3-1.53
					C174.48,145.18,173.87,161.75,173.55,168.34z"/>
				<path class="st16" d="M185.34,125.89c0,0-0.95-2.44-1.65-2.61c-0.21-0.05-6.35,2.27-8.79,4.29c-4.41,3.65-5.05,5.08-5.05,5.08
					s3.67-2.64,9.54-3.82C183.67,127.97,185.34,125.89,185.34,125.89z"/>
			</g>
			<path class="st31" d="M183.64,181.2c-1.82,0.21-3.65,0.26-5.47,0.15c-1.82-0.11-3.64-0.4-5.35-1.01
				c1.73,0.55,3.55,0.77,5.36,0.83c1.81,0.04,3.63-0.06,5.41-0.33L183.64,181.2z"/>
			<path class="st30" d="M174.53,239.32c-0.01,0.07-0.03,0.13-0.04,0.21c-0.87-0.12-1.69-0.37-2.36-0.75
				c-1.05-0.6-1.54-1.39-1.48-2.19c0-0.06,0-0.13,0.01-0.19c0.09-0.98,0.34-4.26,0.52-8.47c0.01-0.13,0.01-0.26,0.01-0.4
				c0.01-0.28,0.03-0.56,0.03-0.85c0.01-0.15,0.01-0.29,0.01-0.44c0.01-0.29,0.03-0.59,0.03-0.88c0.12-3.44,0.15-7.25-0.01-10.88
				c-0.16-4.1-0.56-7.97-1.36-10.83c-2.7-9.7-4.02-17.15-2-26.37c0.58,0.7,1.39,1.38,2.42,1.97c0.34,0.19,0.7,0.37,1.05,0.53
				c0.44,0.21,0.9,0.38,1.38,0.53c-0.58,8.65,0.68,18.85,2.07,27.37C177.75,225.56,175.36,234.87,174.53,239.32z"/>
		</g>
		<path class="st5" d="M131.45,140.76c-0.06-0.02-0.41-1.5-0.18-1.64c0.24-0.14,1.06,0.25,1.06,0.25l1.32,2.06
			c0,0,0.29,0.45-0.42,0.43c-0.71-0.01-1.28-0.31-1.28-0.31L131.45,140.76z"/>
		<g>
			<path class="st32" d="M138.24,148.67c-0.43-0.04-0.85-0.13-1.25-0.26c-1.46,0.29-4.44-0.79-4.95-1.31
				c-1.93-1.99-1.38-6.77-0.53-6.64l0,0c0.43,1.08,1.39,1.91,2.55,2.07c0.39,0.05,0.82,0.05,1.26-0.03
				c-0.31-0.19-1.64-0.95-2.23-1.5c-0.68-0.63,1.17-0.39,1.17-0.39s2.34,0.72,2.7,1.13c0.32,0.37,1.76,1.73,1.94,1.91
				c0.01,0.01,0.02,0.02,0.02,0.02c0.92,0.68,1.42,1.32,1.46,1.42C140.39,145.07,141.17,148.9,138.24,148.67z"/>
		</g>
		<path class="st16" d="M174.07,143L174.07,143c-0.87-1.9-2.43-3.73-4.22-4.76c-0.75-0.43-1.47-0.67-2.11-0.74
			c-0.95-0.1-1.74,0.18-2.24,0.8c-0.02,0.02-0.03,0.04-0.05,0.06c0,0-0.01,0.01-0.02,0.03c-0.5,0.6-8.43,10.33-11.09,10.22
			c-2.74-0.11-12.58-4.08-12.58-4.08l-0.02,0.02c-0.53-0.28-1.28-0.23-2.13,0.26c-1.6,0.92-2.9,2.94-2.9,4.53
			c0,0.68,0.27,1.12,0.67,1.38l-0.03,0.05c0,0,0.06,0.03,0.17,0.07c0.03,0.02,0.07,0.03,0.1,0.04c1.96,0.86,15.05,6.53,16.95,6.22
			c1.19-0.19,6.5-2.05,11.43-4.81c3.59-2,6.99-4.47,8.47-7.13C174.48,144.49,174.35,143.75,174.07,143z"/>
	</g>
	<polygon class="st33" points="100.13,256.4 225.62,330.93 225.59,330.98 209.76,321.9 194.02,312.67 162.55,294.2 131.28,275.41 
		115.64,266.01 100.1,256.46 	"/>
	<g>
		<polygon class="st29" points="68.61,287.09 232.31,380.72 232.26,380.8 211.6,369.44 191.07,357.86 150.01,334.69 109.22,311.04 
			88.82,299.22 68.56,287.18 		"/>
	</g>
	<g>
		<polygon class="st33" points="53.39,371.17 63.44,374.64 73.39,378.35 93.29,385.78 112.99,393.72 122.84,397.69 132.59,401.89 
			132.56,401.98 53.36,371.26 		"/>
	</g>
	<g>
		<path class="st1" d="M212.25,399.94c2.03,1.29,3.68,3.04,5.6,4.45c1.77,1.59,3.81,2.86,5.48,4.58l-0.02,0.03l-11.09-9.03
			L212.25,399.94z"/>
	</g>
	<g>
		<polygon class="st34" points="252.67,302.45 193.89,282.66 135.32,262.27 135.34,262.23 252.69,302.42 		"/>
	</g>
</g>
</svg>
