<svg width="100" height="90" viewBox="0 0 100 90" fill="none" xmlns="http://www.w3.org/2000/svg">
<path fill-rule="evenodd" clip-rule="evenodd" d="M0 51.6667C0 46.7575 3.97969 42.7778 8.88889 42.7778H91.1111C96.0203 42.7778 100 46.7575 100 51.6667V76.1112C100 81.0204 96.0203 85.0001 91.1111 85.0001H8.88889C3.97969 85.0001 0 81.0204 0 76.1112V51.6667Z" fill="#FF9900"/>
<path fill-rule="evenodd" clip-rule="evenodd" d="M0 51.6667C0 46.7575 3.97969 42.7778 8.88889 42.7778H71.1111C76.0203 42.7778 80 46.7575 80 51.6667V76.1112C80 81.0204 76.0203 85.0001 71.1111 85.0001H8.88888C3.97969 85.0001 0 81.0204 0 76.1112V51.6667Z" fill="#FFCE03"/>
<path fill-rule="evenodd" clip-rule="evenodd" d="M6.66663 53.8888C6.66663 51.4342 8.65647 49.4443 11.1111 49.4443H53.3333C55.7879 49.4443 57.7777 51.4342 57.7777 53.8888V73.8888C57.7777 76.3434 55.7879 78.3332 53.3333 78.3332H11.1111C8.65647 78.3332 6.66663 76.3434 6.66663 73.8888V53.8888Z" fill="#FF9900"/>
<path fill-rule="evenodd" clip-rule="evenodd" d="M12.2222 53.8888C12.2222 51.4342 14.212 49.4443 16.6666 49.4443H53.3333C55.7879 49.4443 57.7777 51.4342 57.7777 53.8888V73.8888C57.7777 76.3434 55.7879 78.3332 53.3333 78.3332H16.6666C14.212 78.3332 12.2222 76.3434 12.2222 73.8888V53.8888Z" fill="white"/>
<path fill-rule="evenodd" clip-rule="evenodd" d="M63.3334 52.7777C63.3334 50.9367 64.8258 49.4443 66.6667 49.4443H70C71.841 49.4443 73.3334 50.9367 73.3334 52.7777C73.3334 54.6186 71.841 56.111 70 56.111H66.6667C64.8258 56.111 63.3334 54.6186 63.3334 52.7777Z" fill="#1A986E"/>
<path fill-rule="evenodd" clip-rule="evenodd" d="M63.3334 65.0001C63.3334 63.1591 64.8258 61.6667 66.6667 61.6667H70C71.841 61.6667 73.3334 63.1591 73.3334 65.0001V75.0001C73.3334 76.841 71.841 78.3334 70 78.3334H66.6667C64.8258 78.3334 63.3334 76.841 63.3334 75.0001V65.0001Z" fill="#C40048"/>
<path fill-rule="evenodd" clip-rule="evenodd" d="M63.3334 52.7777C63.3334 50.9367 64.8258 49.4443 66.6667 49.4443C68.5077 49.4443 70 50.9367 70 52.7777C70 54.6186 68.5077 56.111 66.6667 56.111C64.8258 56.111 63.3334 54.6186 63.3334 52.7777Z" fill="#33CC99"/>
<path fill-rule="evenodd" clip-rule="evenodd" d="M63.3334 65.0001C63.3334 63.1591 64.8258 61.6667 66.6667 61.6667C68.5077 61.6667 70 63.1591 70 65.0001V75.0001C70 76.841 68.5077 78.3334 66.6667 78.3334C64.8258 78.3334 63.3334 76.841 63.3334 75.0001V65.0001Z" fill="#FF4A4A"/>
<path fill-rule="evenodd" clip-rule="evenodd" d="M21.6667 58.3333C21.3599 58.3333 21.1112 58.5821 21.1112 58.8889V62.7778H17.7778V58.8889C17.7778 56.7411 19.5189 55 21.6667 55H23.8889C26.0367 55 27.7778 56.7411 27.7778 58.8889V62.7778H24.4445V58.8889C24.4445 58.5821 24.1958 58.3333 23.8889 58.3333H21.6667Z" fill="#33CC99"/>
<path fill-rule="evenodd" clip-rule="evenodd" d="M46.1111 58.3333C45.8042 58.3333 45.5555 58.5821 45.5555 58.8889V62.7778H42.2222V58.8889C42.2222 56.7411 43.9633 55 46.1111 55H48.3333C50.4811 55 52.2222 56.7411 52.2222 58.8889V62.7778H48.8888V58.8889C48.8888 58.5821 48.6401 58.3333 48.3333 58.3333H46.1111Z" fill="#33CC99"/>
<path fill-rule="evenodd" clip-rule="evenodd" d="M33.8889 58.3333C33.5821 58.3333 33.3333 58.5821 33.3333 58.8889V62.7778H30V58.8889C30 56.7411 31.7411 55 33.8889 55H36.1111C38.2589 55 40 56.7411 40 58.8889V62.7778H36.6667V58.8889C36.6667 58.5821 36.4179 58.3333 36.1111 58.3333H33.8889Z" fill="#33CC99"/>
<path fill-rule="evenodd" clip-rule="evenodd" d="M23.8889 69.4445C24.1958 69.4445 24.4445 69.1958 24.4445 68.8889L24.4445 65.0001L27.7778 65.0001L27.7778 68.8889C27.7778 71.0367 26.0367 72.7778 23.8889 72.7778L21.6667 72.7778C19.5189 72.7778 17.7778 71.0367 17.7778 68.8889L17.7778 65.0001L21.1112 65.0001L21.1112 68.8889C21.1112 69.1958 21.3599 69.4445 21.6667 69.4445L23.8889 69.4445Z" fill="#33CC99"/>
<path fill-rule="evenodd" clip-rule="evenodd" d="M48.3333 69.4445C48.6401 69.4445 48.8888 69.1958 48.8888 68.8889L48.8888 65.0001L52.2222 65.0001L52.2222 68.8889C52.2222 71.0367 50.4811 72.7778 48.3333 72.7778L46.1111 72.7778C43.9633 72.7778 42.2222 71.0367 42.2222 68.8889L42.2222 65.0001L45.5555 65.0001L45.5555 68.8889C45.5555 69.1958 45.8042 69.4445 46.1111 69.4445L48.3333 69.4445Z" fill="#33CC99"/>
<path fill-rule="evenodd" clip-rule="evenodd" d="M36.1111 69.4445C36.4179 69.4445 36.6667 69.1958 36.6667 68.8889L36.6667 65.0001L40 65.0001L40 68.8889C40 71.0367 38.2589 72.7778 36.1111 72.7778L33.8889 72.7778C31.7411 72.7778 30 71.0367 30 68.8889L30 65.0001L33.3333 65.0001L33.3333 68.8889C33.3333 69.1958 33.5821 69.4445 33.8889 69.4445L36.1111 69.4445Z" fill="#33CC99"/>
<path fill-rule="evenodd" clip-rule="evenodd" d="M61.1111 8.33333C61.1111 6.49238 62.6035 5 64.4444 5H67.7778C69.6187 5 71.1111 6.49238 71.1111 8.33333V29.4444H61.1111V8.33333Z" fill="#FF4A4A"/>
<path fill-rule="evenodd" clip-rule="evenodd" d="M61.1111 8.33333C61.1111 6.49238 62.6035 5 64.4444 5C66.2854 5 67.7778 6.49238 67.7778 8.33333V29.4444H61.1111V8.33333Z" fill="#FF936A"/>
<path fill-rule="evenodd" clip-rule="evenodd" d="M56.6666 33.8888C56.6666 31.4342 58.6565 29.4443 61.1111 29.4443H71.1111C73.5657 29.4443 75.5555 31.4342 75.5555 33.8888V42.7777H56.6666V33.8888Z" fill="#C40048"/>
<path fill-rule="evenodd" clip-rule="evenodd" d="M56.6666 33.8888C56.6666 31.4342 58.6565 29.4443 61.1111 29.4443H67.7777C70.2323 29.4443 72.2222 31.4342 72.2222 33.8888V42.7777H56.6666V33.8888Z" fill="#FF4A4A"/>
<path fill-rule="evenodd" clip-rule="evenodd" d="M60 22.7778H68.8889V25.0001H60V22.7778Z" fill="#FF4A4A"/>
<path fill-rule="evenodd" clip-rule="evenodd" d="M68.8889 22.7778H72.2222V25.0001H68.8889V22.7778Z" fill="#C40048"/>
<path fill-rule="evenodd" clip-rule="evenodd" d="M24.4445 8.33333C24.4445 6.49238 25.9368 5 27.7778 5H31.1111C32.9521 5 34.4445 6.49238 34.4445 8.33333V29.4444H24.4445V8.33333Z" fill="#1A96F6"/>
<path fill-rule="evenodd" clip-rule="evenodd" d="M24.4445 8.33333C24.4445 6.49238 25.9368 5 27.7778 5C29.6187 5 31.1111 6.49238 31.1111 8.33333V29.4444H24.4445V8.33333Z" fill="#33CCFF"/>
<path fill-rule="evenodd" clip-rule="evenodd" d="M20 33.8888C20 31.4342 21.9898 29.4443 24.4444 29.4443H34.4444C36.899 29.4443 38.8889 31.4342 38.8889 33.8888V42.7777H20V33.8888Z" fill="#0160B8"/>
<path fill-rule="evenodd" clip-rule="evenodd" d="M20 33.8888C20 31.4342 21.9898 29.4443 24.4444 29.4443H31.1111C33.5657 29.4443 35.5556 31.4342 35.5556 33.8888V42.7777H20V33.8888Z" fill="#1A96F6"/>
<path fill-rule="evenodd" clip-rule="evenodd" d="M23.3334 22.7778H32.2223V25.0001H23.3334V22.7778Z" fill="#1A96F6"/>
<path fill-rule="evenodd" clip-rule="evenodd" d="M32.2222 22.7778H35.5555V25.0001H32.2222V22.7778Z" fill="#0160B8"/>
</svg>
